<?xml version="1.0" encoding="utf-8" ?>
<svg xmlns="http://www.w3.org/2000/svg" xmlns:xlink="http://www.w3.org/1999/xlink" width="1024" height="1024">
	<path fill="#050513" d="M884.578 266.231C886.712 266.363 888.827 266.47 890.77 267.453C895.317 269.756 897.639 274.979 899.035 279.618C902.345 290.621 902.823 303.522 903.021 314.999C903.419 338.04 900.461 361.069 896.025 383.645C886.646 431.379 870.502 475.967 849.041 519.546C843.39 531.148 837.159 542.458 830.372 553.434C826.245 560.161 821.424 566.738 817.776 573.718L817.516 574.227C818.825 575.272 820.158 576.244 821.58 577.129C848.219 593.696 861.819 566.593 885.098 561.282C896.513 558.677 908.265 561.308 917.931 567.749C922.37 570.706 926.465 574.14 931.015 576.945C937.69 581.06 942.709 582.567 950.478 580.761C933.465 674.668 887.789 761.003 819.726 827.902C807.807 839.795 795.377 848.947 783.16 859.999C794.313 863.388 805.69 866.609 816.464 871.084C820.861 872.91 824.928 875.409 829.27 877.34C833.033 879.013 837.548 880.144 840.812 882.71C842.565 884.089 843.85 886.006 844.031 888.266C844.185 890.195 843.605 892.449 842.315 893.919C840.658 895.809 838.219 896.999 835.877 897.794C829.872 899.83 823.495 901.127 817.339 902.668C809.015 904.752 800.725 906.967 792.471 909.314C774.43 914.479 756.327 919.425 738.165 924.149C728.74 926.587 718.754 929.716 709.051 930.655C706.524 930.899 704.071 930.444 702.134 928.677C699.164 925.967 698.98 922.159 698.936 918.439C693.423 920.148 688.061 922.703 682.699 924.847C674.886 927.938 666.982 930.792 658.998 933.406C613.307 948.49 564.369 958.514 516.128 959.09C500.974 959.416 485.813 959.091 470.686 958.116C462.719 957.54 454.684 955.832 446.704 955.778C436.399 955.708 424.365 965.485 414.335 962.002C407.783 959.726 404.663 951.993 401.903 946.233C348.582 934.566 291.189 910.023 246.357 878.901C243.021 883.537 238.152 887.85 234.076 891.868C208.934 916.649 172.961 940.985 138.268 949.15C131.272 950.797 121.431 952.351 115.056 948.169C113.014 946.83 111.517 944.989 111.076 942.544C109.841 935.69 115.475 928.023 119.018 922.665C105.195 929.759 83.4098 936.578 68.1172 937.075C60.3242 937.329 51.672 936.72 45.7986 930.933C42.9741 928.15 42.0703 924.361 42.1709 920.493C42.6329 902.737 63.6168 882.383 75.5385 870.598C79.6041 866.665 83.9747 863.016 88.1445 859.189C81.5059 860.8 72.0915 861.954 65.4883 859.678C62.9493 858.803 60.9175 857.293 59.8565 854.773C58.292 851.056 59.0885 847.022 60.6203 843.44C63.7423 836.141 69.5675 829.546 75.088 823.964C97.5875 801.211 126.435 786.303 155.852 774.556C121.649 727.622 96.7478 674.572 82.4953 618.274C79.0749 605.171 75.3621 591.505 74.331 577.968C88.5586 580.524 100.886 566.744 113.32 562.03C128.815 556.156 143.048 560.274 157.539 566.787C158.323 563.493 159.298 560.248 160.461 557.068C163.228 549.263 166.944 541.824 170.984 534.608C180.373 517.836 191.445 502.019 202.203 486.109C214.72 467.598 229.151 443.831 245.75 429.02C261.728 414.763 280.691 404.901 299.909 395.812C300.273 385.713 299.964 376.148 298.28 366.164C296.768 365.963 295.263 365.713 293.768 365.413C289.071 364.478 284.195 362.181 281.605 357.973C278.53 352.978 279.731 347.849 280.944 342.528C277.536 340.352 275.022 338.04 273.128 334.4C270.695 329.626 270.334 324.061 272.13 319.013C274.597 312.097 279.973 308.762 286.278 305.838C286.135 305.47 285.997 305.101 285.864 304.729C284.886 301.975 283.178 297.112 284.485 294.366C285.001 295.352 285.545 296.29 286.142 297.229C287.461 296.622 287.981 294.029 288.669 292.638C292.089 285.72 298.022 284.137 304.765 281.853C296.587 282.22 292.039 284.567 285.364 289.184C286.71 285.92 287.964 283.397 290.906 281.294C295.132 278.275 300.382 277.655 305.394 278.683C311.672 279.972 316.439 283.535 319.933 288.817C320.652 286.546 321.321 284.105 322.386 281.976C324.669 277.417 328.458 275.975 332.956 274.354C326.978 274.585 322.246 275.512 316.593 277.509C317.887 276.204 319.184 274.786 320.622 273.644C323.771 271.142 327.998 270.091 331.957 270.627C337.29 271.348 342.079 274.557 345.2 278.878C348.264 283.118 349.783 288.522 348.727 293.706C347.569 299.393 343.92 302.476 339.389 305.572C345.69 313.346 350.634 320.469 354.39 329.815C358.069 338.97 361.057 349.916 356.82 359.419C353.271 367.378 346.366 370.19 338.825 373.137C341.575 378.997 344.382 384.78 347.462 390.474C359.37 390.45 372.015 392.978 382.717 398.301C390.165 402.005 396.817 405.901 404.796 408.491C405.766 392.856 404.877 376.695 404.812 361C404.783 354.014 404.268 346.561 405.596 339.678C406.479 335.101 408.142 330.779 411.377 327.332C417.729 320.562 424.968 319.712 433.702 319.523C468.917 318.764 504.222 319.486 539.443 319.78C550.576 319.873 571.867 318.6 581.748 320.722C585.895 321.613 589.998 324.332 592.962 327.291C596.271 330.593 598.95 335.185 599.932 339.764C602.142 350.072 601.015 362.043 600.995 372.618L601.03 418.873C608.041 414.055 614.513 407.692 620.976 402.137C631.957 392.628 643.116 383.328 654.447 374.241C720.245 321.334 797.792 270.755 884.578 266.231ZM601.092 492.233C601.04 521.702 600.156 551.442 601.126 580.89C625.824 592.814 649.042 609.718 665.731 631.716C668.544 629.376 671.316 626.915 674.255 624.74C688.1 613.496 701.99 602.447 715.235 590.485C772.572 538.7 828.509 472.517 857.775 400.577C850.797 391.56 843.102 383.107 835.509 374.607C813.608 350.09 794.374 331.178 764.675 316.19C761.688 314.683 756.864 310.589 753.759 310.387C753.563 310.374 753.367 310.404 753.17 310.413C709.287 334.618 669.744 364.667 631.625 397.046C626.33 401.543 621.256 406.317 615.942 410.773C612.425 413.722 608.391 416.338 605.226 419.652C605.811 420.462 605.411 420.18 606.365 420.432C610.091 421.415 613.249 423.178 615.153 426.693C616.8 429.735 616.918 433.264 615.826 436.509C614.763 439.665 612.986 441.44 610.481 443.531L610.046 443.898C613.425 446.149 616.016 448.171 616.975 452.378C617.73 455.693 616.806 459.102 615.003 461.923C613.64 464.056 611.708 465.673 609.813 467.311C613.109 469.048 616.384 471.201 617.46 475.015C618.3 477.994 617.409 481.143 615.786 483.69C612.424 488.967 606.801 490.747 601.092 492.233ZM299.75 399.56C281.859 407.639 264.617 416.42 249.815 429.58C234.149 443.509 222.88 461.925 210.978 478.967C194.135 503.085 173.633 530.023 163.301 557.646C159.368 568.164 159.017 576.654 163.694 586.951C172.641 606.65 190.991 617.774 210.633 624.993C235.614 634.175 262.593 641.196 288.207 648.765C301.93 652.82 315.591 656.522 328.732 662.271C327.341 658.817 325.549 655.11 324.799 651.457C321.946 637.567 327.179 619.229 332.556 606.509C335.916 598.562 340.721 589.75 347.414 584.112C349.755 582.228 352.207 580.4 354.457 578.412C336.153 575.228 226.799 567.265 223.165 564.564C225.547 562.687 228.322 563.096 231.128 563.346C243.375 547.908 255.326 532.211 267.41 516.643C273.076 509.344 278.59 499.136 286.062 493.707C282.851 504.858 273.696 512.418 267.735 521.934L281.025 568.283L336.484 573.695C343.771 574.424 353.915 576.904 360.868 575.661C368.687 574.264 376.274 570.789 383.69 568.028C390.747 565.479 397.854 563.068 405.007 560.799L404.928 466.942C404.936 458.12 406.08 433.119 404.388 426.449C402.883 420.516 397.348 413.587 393.092 409.31C385.09 401.267 373.284 396.323 362.156 394.775C357.878 394.18 353.635 394.166 349.354 393.756L349.856 394.562C351.06 396.464 353.447 398.067 352.962 400.518C352.308 403.823 348.574 406.967 345.821 408.581C338.029 413.152 327.603 411.979 319.278 409.586C312.185 407.529 305.555 404.125 299.75 399.56ZM199.293 804.561C210.715 797.342 272.577 754.279 279.335 754.328C279.462 755.336 279.596 754.963 278.995 755.776C276.728 758.847 245.983 777.486 240.428 781.145C227.237 789.873 214.116 798.705 201.065 807.642C204.479 813.804 207.859 820.595 212.093 826.212C267.322 830.817 320.442 818.289 372.262 800.014C413.923 784.646 454.434 766.323 493.484 745.183C518.945 731.468 543.505 716.318 568.746 702.278C564.3 694.269 560.845 687.441 551.323 684.761C540.245 681.643 526.612 683.872 515.274 684.485C495.134 685.606 475.041 687.444 455.031 689.997L415.172 695.213C392.817 698.149 367.993 702.423 345.781 696.831C326.774 692.045 311.226 679.842 301.515 662.896C300.086 660.35 298.735 657.761 297.464 655.133C278.061 648.717 258.269 643.128 238.679 637.284C213.526 672.981 174.242 712.337 182.392 760.06C184.811 774.222 191.59 792.224 199.293 804.561ZM258.585 872.977C268.25 877.581 277.989 881.001 288.59 882.781C330.312 889.786 378.299 874.281 417.246 860.498C467.083 842.862 515.009 819.19 561.739 794.609C574.716 787.784 591.722 779.878 603.366 771.305C599.684 763.733 572.316 706.559 569.287 705.435C480.532 758.652 375.376 815.582 271.864 828.25C253.071 830.55 233.101 831.777 214.237 829.616C226.743 845.735 240.144 863.263 258.585 872.977ZM482.691 568.544C516.28 568.476 556.442 566.348 588.626 576.407C589.126 566.906 590.004 498.639 588.566 495.632L587.572 495.81C586.668 496.057 585.778 496.239 584.853 496.388C575.548 497.897 566.026 497.103 556.637 497.083L510.641 497.066L470.262 497.141C460.772 497.221 450.871 497.761 441.421 496.822C438.722 496.554 436.117 495.73 433.943 494.071C430.606 491.525 429.54 488.789 428.926 484.749C428.098 479.312 428.549 473.353 428.561 467.85L428.597 437.018C428.537 427.39 428.42 417.763 428.244 408.137C428.154 402.189 427.772 396.007 428.375 390.09C428.683 387.073 429.711 384.321 431.597 381.911C433.633 379.31 437.062 377.802 440.294 377.436C448.241 376.536 456.545 376.995 464.535 377.022L504 377.107L545.68 377C552.633 376.978 559.98 376.475 566.886 377.133C569.521 377.385 572.349 378.255 574.361 380.042C576.68 382.102 577.949 385.296 578.583 388.262C580.62 397.791 578.889 414.019 579.549 424.657C582.549 424.146 585.579 423.496 588.62 423.333C588.522 407.789 588.57 392.245 588.764 376.702C588.879 366.684 589.671 356.107 588.356 346.169C587.917 342.848 587.1 338.494 584.689 336.031C582.226 333.514 578.482 332.363 575.077 331.923C569.447 331.196 563.234 331.785 557.542 331.875C548.625 331.966 539.707 331.999 530.789 331.974C499.437 331.999 467.962 331.329 436.628 331.972C431.253 332.083 424.418 331.814 420.455 336.056C417.672 339.034 417.455 342.601 417.151 346.488C416.349 356.754 416.886 367.335 416.928 377.629L416.97 428.319L416.923 499.769C416.837 518.938 416.5 538.242 417.029 557.4C438.299 551.922 458.417 553.864 477.566 565.111C479.347 566.144 481.059 567.29 482.691 568.544ZM667.61 633.946C679.274 649.456 688.977 665.816 698.416 682.752C700.277 685.975 702.026 689.465 704.239 692.45C728.89 673.879 750.871 652.371 771.151 629.163C821.766 571.928 859.388 504.412 881.429 431.255C877.626 426.257 861.89 406.914 860.101 402.788C854.073 418.097 846.331 432.686 838.135 446.93C804.984 504.553 760.116 554.247 710.768 598.403C696.915 610.799 681.009 621.613 667.61 633.946ZM834.881 883.069C805.493 891.902 775.406 899.004 745.689 906.695C733.138 909.943 720.096 912.72 707.82 916.885C705.743 917.589 702.922 918.304 701.78 920.293C701.537 921.94 702.035 923.09 702.972 924.405C704.162 926.076 705.569 927.476 707.547 928.14C717.33 926.661 727.083 923.482 736.645 920.94C752.774 916.71 768.88 912.394 784.963 907.994C795.296 905.097 805.658 902.303 816.046 899.612C822.402 897.977 829.167 896.695 835.364 894.609C837.05 894.041 838.497 893.408 839.531 891.898C840.472 890.539 840.806 888.85 840.454 887.234C840.11 885.66 839.159 884.35 837.74 883.578C836.849 883.093 835.871 883.016 834.881 883.069ZM75.5673 933.096C116.844 925.969 174.321 894.393 198.796 859.542C203.682 852.585 209.989 842.173 208.266 833.296C207.432 828.999 204.562 825.278 200.875 822.997C194.203 818.868 184.816 818.3 177.204 819.183C133.229 823.68 87.5212 858.314 60.2435 891.625C54.0199 899.225 43.7314 912.356 45.1085 922.958C45.5085 926.038 47.0915 928.586 49.6517 930.335C56.6108 935.089 67.6624 934.276 75.5673 933.096ZM782.884 893.74C783.048 883.553 784.096 873.46 784.445 863.297C774.41 860.326 761.516 852.796 751.745 851.422C734.067 863.407 713.631 863.715 693.295 866.712C694.326 874.962 695.737 883.172 696.938 891.4C698.119 899.498 699.032 907.667 700.889 915.644C707.787 913.209 715.242 911.311 722.376 909.674C742.385 904.014 763.097 900.074 782.884 893.74ZM585.115 469.435C592.674 468.165 607.765 467.226 612.542 460.279C614.039 458.101 614.268 455.417 613.654 452.891C613.044 450.384 611.42 447.965 609.124 446.723C607.53 445.862 605.585 445.252 603.778 445.655C596.384 446.921 581.023 447.792 576.16 454.382C574.735 456.313 574.104 459.053 574.516 461.419C574.989 464.144 577.133 466.994 579.467 468.42C581.243 469.505 583.098 469.643 585.115 469.435ZM584.564 446.04C592.881 444.844 606.781 444.127 612.366 436.974C613.59 435.406 614.142 433.571 613.755 431.6C613.232 428.937 611.024 425.553 608.658 424.172C607.103 423.264 605.511 423.157 603.755 423.133C596.727 424.342 580.479 425.462 575.912 431.624C574.54 433.476 574.125 435.733 574.541 437.982C575.029 440.612 576.725 443.258 578.957 444.748C580.754 445.947 582.461 446.047 584.564 446.04ZM787.582 864.381C786.847 873.904 786.095 883.405 785.962 892.959C797.237 889.817 808.546 886.801 819.887 883.91C823.373 883.11 826.878 882.354 830.331 881.418C816.593 873.041 802.377 869.952 787.582 864.381ZM401.471 937.275C403.786 942.572 405.987 947.952 408.754 953.033C447.421 945.109 486.601 926.55 508.942 892.801C521.875 873.263 528.168 851.866 530.242 828.685C530.623 824.427 531.506 819.042 530.787 814.849L530.355 814.475C497.864 829.707 465.818 844.956 432.347 858.012C422.018 862.003 411.575 865.689 401.031 869.067C395.173 870.952 388.698 872.302 383.146 874.893C384.247 890.916 395.651 921.947 401.471 937.275ZM353.947 618.223C349.337 625.318 347.349 637.57 342.383 646.215C339.773 650.757 333.211 653.474 331.255 657.433C330.873 658.205 330.903 658.251 330.743 658.987C331.171 660.416 331.49 660.937 332.744 661.848C342.954 655.273 347.595 644.504 351.935 633.613C353.374 630.002 355.081 626.238 355.944 622.441C356.168 621.458 356.209 620.587 356.163 619.586C355.379 618.58 355.186 618.599 353.947 618.223ZM147.88 943.228C186.287 928.755 223.599 903.712 248.684 870.827C239.54 862.806 230.183 854.501 222.244 845.252C218.209 840.55 215.344 834.66 210.958 830.301C211.315 849.647 202.716 861.598 189.607 875.2C177.459 887.804 162.739 898.93 147.547 907.596C140.523 911.603 131.819 914.864 125.7 920.089C120.881 924.203 113.931 933.751 114.144 940.229C114.208 942.162 115.028 943.939 116.52 945.183C120.183 948.238 125.881 948.154 130.368 947.582C136.32 946.824 142.194 945.106 147.88 943.228ZM187.355 634.704C186.637 636.637 185.915 638.539 185.398 640.538C190.675 643.373 215.68 657.211 220.078 656.712L220.935 656.181L223.515 652.477C211.982 645.67 199.003 641.385 187.355 634.704ZM251.887 565.147C260.54 566.617 269.547 566.749 278.28 567.931C275.905 560.596 273.674 553.215 271.588 545.792C269.827 539.352 268.784 529.979 265.45 524.497C254.614 537.014 244.698 550.584 234.489 563.625C240.284 564.18 246.084 564.688 251.887 565.147ZM335.119 609.858C353.31 618.56 372.204 615.49 390.597 608.94C394.861 607.422 399.17 605.716 403.234 603.714C412.109 599.342 419.257 594.201 429.714 595.657C436.686 596.628 443.868 599.77 450.944 599.284C453.94 599.078 457.806 598.334 459.098 595.255C459.936 593.256 459.183 590.399 458.789 588.388C449.334 584.828 439.547 581.283 429.334 581.158C425.251 581.108 419.254 585.208 415.817 583.968C415.817 582.869 415.807 582.291 416.658 581.431C419.861 578.192 432.4 577.951 436.992 578.606C441.209 579.207 445.45 580.219 449.536 581.412C455.741 583.224 463.861 586.936 469.865 582.667C471.223 581.701 471.731 580.875 472.357 579.357C472.169 577.671 470.979 576.299 469.652 575.25C462.68 569.738 445.253 567.683 436.517 569.031C433.04 569.568 429.385 571.051 425.875 570.755L425.456 570.002C425.987 568.795 426.327 568.348 427.57 567.81C441.662 561.709 458.744 566.885 471.905 572.742C473.199 573.321 474.472 573.944 475.723 574.61C477.366 573.679 478.867 572.916 480.102 571.463C479.843 569.927 479.302 569.248 478.008 568.36C469.048 562.214 449.435 557.647 438.334 557.195C418.065 558.635 372.4 572.398 355.276 582.56C351.77 584.613 348.624 587.226 345.961 590.295C340.902 596.054 337.57 602.645 335.119 609.858ZM413.803 959.137C429.151 961.897 467.101 942.21 480.044 933.194C510.779 911.786 530.818 881.283 537.349 844.319C538.553 837.507 541.886 815.41 539.53 810.146L538.944 809.938C537.262 810.657 535.692 811.149 534.52 812.604C532.159 820.593 532.948 833.344 531.362 842.465C523.999 884.784 501.013 916.585 463.114 937.172C457.072 940.455 450.814 943.557 444.339 945.881C438.122 948.113 414.486 954.196 411.85 956.168C412.148 957.549 412.851 958.174 413.803 959.137ZM91.1416 855.146C91.3272 855.077 91.5136 855.01 91.6986 854.939C99.8181 851.827 106.037 845.244 113.228 840.551C135.221 826.194 174.408 808.085 200.045 819.073C202.147 819.974 204.219 821.098 206.196 822.248C200.193 811.811 194.125 801.471 189.117 790.506C186.959 785.781 183.786 772.593 180.858 769.548C144.585 781.497 108.881 796.04 80.8317 822.824C74.0793 829.272 67.6619 835.971 63.381 844.372C62.1208 846.845 61.1858 849.579 62.0032 852.358C62.5689 854.282 63.9393 855.717 65.7069 856.612C72.6088 860.105 83.9823 856.77 91.1416 855.146ZM693.92 854.041C693.939 856.107 693.493 861.217 695.185 862.626C695.832 863.164 696.347 863.195 697.148 863.32C706.557 861.809 741.986 858.141 747.575 850.38C748.362 849.287 748.582 848.433 748.265 847.121C747.967 845.884 747.341 844.538 746.511 843.577L745.682 843.522C728.837 848.806 711.491 852.331 693.92 854.041ZM587.323 492.155C594.022 490.927 608.493 488.767 612.381 482.869C613.915 480.578 614.446 477.76 613.848 475.068C613.352 472.892 611.962 470.917 609.976 469.861C608.203 468.919 606.401 468.398 604.392 468.678C596.55 469.815 582.922 470.629 577.885 477.471C576.753 479.01 576.288 480.798 576.644 482.686C577.143 485.33 579.327 489.084 581.542 490.626C583.129 491.731 585.455 491.95 587.323 492.155ZM422.59 330.662C425.733 329.597 428.712 329.324 431.995 329.173C442.701 328.68 453.53 329.062 464.247 329.088L518.939 329.262C530.716 329.336 542.494 329.332 554.272 329.251C560.778 329.218 567.416 328.855 573.906 329.249C577.059 329.44 579.953 329.886 582.789 331.378C586.762 333.467 589.201 336.668 590.339 340.956C593.088 351.31 591.333 369.726 591.237 381.006C591.118 394.913 591.326 408.789 591.47 422.692L597.993 421.289L598.068 371.846C598.071 361.817 599.027 350.709 597.025 340.879C596.152 336.598 594.581 332.944 591.522 329.745C584.292 322.182 575.299 322.453 565.656 322.43L450.102 322.257C438.484 322.619 422.703 320.122 413.811 329.18C410.655 332.395 408.914 336.621 408.297 341.047C406.994 350.399 407.573 360.456 407.6 369.885L407.745 414.333L407.656 560.043C409.76 559.417 411.865 558.723 413.988 558.166L414.073 412.356L414.035 368.703C414.019 360.142 413.538 351.293 414.427 342.788C414.787 339.344 415.699 336.193 418.212 333.69C419.442 332.465 421.046 331.448 422.59 330.662ZM302.871 397.894C308.81 402.705 314.815 405.201 322.126 407.282C330.292 408.668 338.94 409.836 346.156 404.663C347.676 403.574 348.896 402.214 349.999 400.718C344.28 392.287 340.107 382.719 335.726 373.546C330.26 373.171 324.334 373.395 320.089 369.37L319.725 368.372L320.317 367.343C323.996 367.021 327.377 369.356 330.893 370.163C337.724 371.731 346.887 367.73 351.152 362.484C355.206 357.495 356.356 350.911 355.547 344.658C353.85 331.54 346.178 316.469 336.267 307.697C331.049 307.195 326.529 306.619 321.789 304.207L321.435 304.762C315.686 313.626 299.562 317.908 298.628 320.293L298.309 320.484C298.97 327.669 313.212 337.175 308.166 342.674C306.956 343.992 305.321 344.38 303.598 344.261C297.725 343.854 290.797 338.947 285.421 343.594C283.384 345.355 282.112 347.819 282.039 350.516C281.947 353.937 283.978 356.175 286.329 358.437C288.845 360.859 292.112 362.838 295.711 362.732C301.51 362.56 306.858 354.742 308.88 355.423C309.297 356.618 309.48 357.227 308.913 358.426C307.538 361.329 303.843 363.64 301.251 365.436C303.296 376.522 303.437 386.664 302.871 397.894ZM591.941 494.606C591.256 511.059 591.708 527.743 591.539 544.224C591.433 554.496 590.059 566.774 591.676 576.826C592.423 577.422 592.951 577.728 593.868 578.002C595.284 578.488 596.57 579.144 598.078 578.965C598.791 575.203 599.044 496.758 598.431 493.512C597.736 493.011 598.088 493.101 597.435 493.074L591.941 494.606ZM483.576 571.426C480.993 576.218 477.912 576.702 472.968 578.19C514.833 576.536 564.091 573.726 603.006 591.761C616.319 597.931 628.688 606.874 639.456 616.792C651.216 627.684 661.638 639.938 670.5 653.294C685.771 675.824 699.996 703.808 713.398 727.801C722.55 744.231 731.615 760.709 740.594 777.234C745.552 786.27 751.007 795.22 755.43 804.526C757.626 809.147 760.12 814.323 760.423 819.508C760.585 822.293 759.882 824.957 757.945 827.019C744.985 840.815 687.967 847.44 668.477 847.526C660.015 847.563 651.536 846.159 645.236 839.948C635.621 830.471 611.562 776.677 606.596 773.901C605.492 774.042 604.39 775.406 603.543 776.151C603.532 776.502 603.412 776.868 603.512 777.205C604.732 781.298 613.339 795.209 616.023 800.113C622.084 811.185 627.489 822.768 633.981 833.581C636.002 836.946 638.203 840.306 640.92 843.158C647.597 850.165 657.149 853.153 666.635 853.294C674.444 853.411 682.36 852.248 690.115 851.375C708.31 849.324 748.463 844.823 761.326 831.594C764.112 828.728 765.675 825.103 765.571 821.093C765.39 814.039 762.242 806.991 759.355 800.684C753.941 788.853 747.103 777.509 740.849 766.096C730.452 746.691 719.767 727.441 708.798 708.353C697.513 688.533 687.564 668.021 674.68 649.135C665.691 635.853 655.205 623.65 643.428 612.764C595.114 568.547 544.19 571.589 483.576 571.426Z"/>
	<path fill="#050513" d="M726.641 371.528C756.451 369.514 782.237 392.074 784.202 421.887C786.167 451.7 763.565 477.449 733.748 479.364C704.002 481.275 678.327 458.737 676.366 428.994C674.406 399.251 696.901 373.538 726.641 371.528ZM734.263 476.783C762.535 474.584 783.678 449.894 781.501 421.62C779.324 393.347 754.65 372.185 726.375 374.339C698.069 376.497 676.878 401.203 679.058 429.508C681.237 457.813 705.96 478.984 734.263 476.783Z"/>
	<path fill="#050513" d="M501.32 342.221C504.65 341.388 508.039 343.353 508.972 346.656C509.905 349.959 508.044 353.406 504.77 354.438C502.563 355.134 500.152 354.573 498.477 352.976C496.803 351.378 496.13 348.996 496.722 346.759C497.313 344.521 499.075 342.783 501.32 342.221Z"/>
	<path fill="#2B2BEB" d="M587.572 495.81C586.668 496.057 585.778 496.239 584.853 496.388C575.548 497.897 566.026 497.103 556.637 497.083L510.641 497.066L470.262 497.141C460.772 497.221 450.871 497.761 441.421 496.822C438.722 496.554 436.117 495.73 433.943 494.071C430.606 491.525 429.54 488.789 428.926 484.749C428.098 479.312 428.549 473.353 428.561 467.85L428.597 437.018C428.537 427.39 428.42 417.763 428.244 408.137C428.154 402.189 427.772 396.007 428.375 390.09C428.683 387.073 429.711 384.321 431.597 381.911C433.633 379.31 437.062 377.802 440.294 377.436C448.241 376.536 456.545 376.995 464.535 377.022L504 377.107L545.68 377C552.633 376.978 559.98 376.475 566.886 377.133C569.521 377.385 572.349 378.255 574.361 380.042C576.68 382.102 577.949 385.296 578.583 388.262C580.62 397.791 578.889 414.019 579.549 424.657C575.913 426.842 573.171 428.93 572.087 433.307C571.183 436.961 572.112 440.946 574.117 444.082C575.168 445.725 576.668 447.083 578.067 448.427C574.704 450.764 572.115 453.114 571.408 457.334C570.831 460.779 572.077 464.221 574.09 466.992C575.418 468.82 577.256 470.205 579.007 471.604C576.233 475.414 572.924 479.839 573.888 484.861C574.546 488.291 577.325 490.772 580.192 492.497C582.458 493.86 585.161 494.702 587.572 495.81Z"/>
	<path fill="#FEFDFE" d="M531.833 421.483L540.63 421.542C544.252 433.214 549.11 444.477 553.308 455.949L545.506 455.522C545.122 454.022 544.757 451.558 543.863 450.283C542.955 448.989 542.487 448.988 541.029 448.647L529.378 448.608L527.026 455.726L518.786 455.966C523.526 444.676 527.556 432.962 531.833 421.483Z"/>
	<path fill="#2B2BEB" d="M536.025 429.326C538.402 432.41 540.338 438.135 540.794 441.965L540.281 442.524L535.95 442.674C534.383 442.762 532.799 442.74 531.229 442.759C532.734 438.238 534.273 433.76 536.025 429.326Z"/>
	<path fill="#FEFDFE" d="M488.888 421.5L514.103 421.503L514.082 428.082C508.053 428.069 502.036 428 496.018 428.413L495.993 435.134C499.762 435.194 503.84 434.454 507.542 434.99C509.235 435.236 510.014 435.75 511.057 437.069C511.127 438.464 511.149 438.703 510.495 439.921C507.188 442.251 500.12 441.061 496.133 441.046L496.002 449.019L514.387 449.017L514.433 455.99L488.901 455.99C489.015 444.494 489.011 432.997 488.888 421.5Z"/>
	<path fill="#FEFDFE" d="M465.298 421.093C470.078 420.84 474.886 421.564 478.716 424.713C480.155 425.895 481.525 427.652 481.577 429.59C481.598 430.367 481.529 430.151 480.872 430.768C477.303 431.142 473.799 428.998 470.672 427.487C469.784 427.057 469.068 427 468.102 427.126C466.646 427.317 464.925 428.291 464.152 429.569C463.816 430.123 463.625 430.883 463.815 431.513C465.027 435.524 475.09 436.61 478.523 438.736C480.244 439.802 481.615 441.249 482.019 443.283C482.551 445.965 481.552 449.928 479.967 452.114C477.693 455.25 473.685 455.884 470.131 456.46C465.819 456.245 461.413 455.309 457.978 452.546C456.613 451.447 455.419 450.008 455.275 448.195C455.175 446.945 455.272 446.817 456.008 445.89C461.284 444.777 466.233 451.009 471.358 450.196C472.549 450.007 473.545 448.951 474.029 447.888C474.668 446.484 474.513 446.056 474.113 444.658C471.26 441.332 465.827 440.556 461.897 438.875C459.544 437.869 456.852 436.29 455.963 433.721C455.133 431.325 456.168 429.014 457.337 426.944C459.384 423.322 461.358 422.233 465.298 421.093Z"/>
	<path fill="#050513" d="M334.316 323.61C337.915 324.185 341.315 327.019 343.421 329.888C344.898 331.899 346.047 334.681 345.503 337.215C344.956 339.759 342.892 340.852 340.852 342.127C340.105 342.047 339.77 341.922 339.103 341.618C339.041 338.777 342.605 337.447 343.073 334.553C342.486 330.881 337.463 329.17 335.051 326.682C334.071 325.671 334.21 324.92 334.316 323.61Z"/>
	<path fill="#050513" d="M317.336 323.036C319.421 323.38 321.098 323.709 322.729 325.138C324.165 326.396 325.399 327.954 325.551 329.906L324.89 330.371C323.082 328.991 320.773 326.749 318.631 326.031C318.402 325.954 318.169 325.889 317.938 325.818C317.636 326.866 317.549 327.409 317.737 328.504C318.04 330.265 318.816 333.124 317.973 334.739L317.532 334.798C316.991 334.414 316.886 334.376 316.387 333.825C315.272 332.593 314.284 329.63 314.458 327.979C314.688 325.799 315.769 324.452 317.336 323.036Z"/>
	<path fill="#050513" d="M343.676 347.695C344.013 347.695 344.939 348.046 345.277 348.148C345.302 349.219 344.992 349.492 344.227 350.266C342.285 352.232 339.898 352.202 337.332 352.106C336.646 351.676 336.961 351.903 336.219 351.281C335.435 350.624 335.636 350.697 335.557 349.759C337.69 348.439 340.814 349.119 343.284 347.901C343.417 347.836 343.546 347.764 343.676 347.695Z"/>
	<path fill="#050513" d="M335.879 313.928C337.22 314.307 338.638 314.908 339.641 315.912C341.345 317.617 341.507 319.916 341.508 322.188C340.194 321.835 339.491 321.29 338.575 320.328C336.697 318.357 335.851 316.654 335.879 313.928Z"/>
	<path fill="#B4B6FE" d="M193.43 621.641C207.107 627.372 221.036 631.959 235.184 636.353C232.981 639.411 230.735 642.438 228.448 645.434L225.123 649.905C214.108 642.558 201.303 638.026 189.471 632.16C190.718 628.63 192.1 625.14 193.43 621.641Z"/>
	<path fill="#050513" d="M689.781 189.762C696.556 189.646 705.652 188.537 711.009 193.467C714.063 196.278 715.061 200.058 715.294 204.078C715.616 209.621 715.187 215.394 715.117 220.963C715.043 230.412 715.028 239.86 715.072 249.308L715.144 281.291C715.155 287.572 715.493 294.072 714.823 300.317C714.503 303.303 714.047 305.875 711.904 308.107C709.841 310.254 707.391 311.321 704.469 311.691C699.107 312.37 693.438 312.025 688.03 312.007L662.9 311.986C630.475 311.712 598.047 311.835 565.625 312.354C559.173 312.395 548.414 313.637 543.28 308.949C539.262 305.28 538.436 298.83 538.169 293.668C537.449 279.798 538.554 265.832 538.515 251.946L538.336 222.463C538.294 216.126 537.988 209.586 538.753 203.289C539.165 199.9 539.779 196.829 542.207 194.277C544.296 192.081 546.969 190.791 549.952 190.353C555.19 189.585 560.825 190.04 566.111 190.081L589.871 190.1C623.13 190.076 656.542 190.76 689.781 189.762Z"/>
	<path fill="#FEFDFE" d="M588.555 241.933C585.096 244.849 581.812 246.331 577.178 245.848C573.432 245.457 569.775 243.502 567.52 240.464C565.849 238.253 565.232 235.42 565.832 232.715C566.508 229.544 568.426 226.575 571.217 224.9C574.71 222.805 579.514 221.997 583.461 223.13C585.031 223.581 585.641 224.173 586.374 225.597C586.317 226.737 586.188 227.371 585.539 228.302C585.349 228.575 585.15 228.843 584.955 229.113C585.414 230.247 585.828 231.43 586.376 232.523L587.908 233.148C589.548 235.689 588.826 239.086 588.555 241.933Z"/>
	<path fill="#050513" d="M586.376 232.523C583.176 232.423 579.867 232.268 577.099 234.153C577.237 235.841 577.257 235.696 578.561 236.802C579.425 236.954 580.532 237.047 581.336 237.378C582.346 237.793 582.404 238.049 582.791 239.039L582.12 239.811C581.188 240.083 580.336 240.341 579.355 240.328C577.172 240.301 574.916 239.569 573.426 237.908C572.41 236.777 571.525 234.721 571.738 233.181C571.917 231.888 572.892 230.862 573.967 230.214C577.561 228.046 581.059 228.303 584.955 229.113C585.414 230.247 585.828 231.43 586.376 232.523Z"/>
	<path fill="#FEFDFE" d="M640.855 244.269C638.803 242.905 637.1 241.689 636.549 239.153C636.04 236.812 636.29 233.699 637.774 231.732C639.259 229.765 641.641 229.105 643.988 228.873C647.783 228.498 651.656 228.752 655.478 228.483C655.812 234.789 657.293 244.694 652.906 249.772C651.099 251.863 648.632 252.605 645.946 252.707C643.385 252.805 640.288 251.449 638.397 249.745C637.779 249.189 637.405 248.543 636.997 247.829L637.08 246.806C637.825 246.426 638.29 246.132 639.134 246.058L640.855 244.269Z"/>
	<path fill="#050513" d="M640.855 244.269C643.048 244.399 647.205 243.884 649.005 244.889C648.481 246 647.832 246.383 646.712 246.825C644.479 247.704 641.342 246.678 639.134 246.058L640.855 244.269Z"/>
	<path fill="#050513" d="M645.221 233.265C647.183 232.893 649.083 234.157 649.498 236.11C649.913 238.063 648.692 239.991 646.749 240.45C645.452 240.756 644.092 240.336 643.193 239.353C642.295 238.37 641.998 236.977 642.419 235.714C642.84 234.45 643.912 233.513 645.221 233.265Z"/>
	<path fill="#FEFDFE" d="M665.633 253.856C666.474 253.988 667.57 253.927 668.139 254.609C670.868 257.877 669.531 274.489 669.423 279.486C667.132 279.515 664.279 278.243 662.336 278.477C659.581 278.81 657.789 279.614 654.845 279.463C652.847 277.794 650.901 275.904 650.272 273.28C649.625 270.581 650.225 266.655 651.783 264.335C654.702 259.987 658.683 262.611 662.568 261.64C663.293 261.459 663.369 260.853 663.703 260.243C663.519 259.195 663.133 257.803 663.212 256.755C663.335 255.112 664.446 254.713 665.633 253.856Z"/>
	<path fill="#050513" d="M658.592 266.75C660.497 266.155 662.533 267.161 663.218 269.035C663.903 270.91 662.995 272.992 661.155 273.765C659.885 274.298 658.424 274.09 657.353 273.223C656.283 272.355 655.776 270.969 656.035 269.615C656.294 268.262 657.277 267.161 658.592 266.75Z"/>
	<path fill="#FEFDFE" d="M633.629 256.834C635.771 256.988 637.963 256.946 640.113 256.996C643.278 264.001 646.658 271.624 648.895 278.965C648.764 279.042 648.641 279.136 648.501 279.196C646.903 279.877 644.338 279.522 642.717 278.977C641.453 278.036 641.141 276.937 640.607 275.524C633.382 275.154 631.721 279.024 625.467 279.496L625.081 279.075C625.677 278.737 625.384 278.991 625.816 278.172L625.266 277.52C625.675 276.915 625.877 276.436 626.117 275.735C628.3 269.362 631.114 263.091 633.629 256.834Z"/>
	<path fill="#FEFDFE" d="M600.273 228.532C602.151 228.48 603.911 228.538 605.698 229.186C608.111 230.061 610.341 231.952 611.321 234.357C612.215 236.551 612.141 238.867 611.126 241.005C609.597 244.229 606.857 245.336 603.683 246.479C601.878 246.404 600.082 246.338 598.355 245.752C595.915 244.924 593.733 243.149 592.64 240.79C591.712 238.788 591.681 236.485 592.554 234.459C594.019 231.045 596.985 229.734 600.273 228.532Z"/>
	<path fill="#050513" d="M600.91 233.756C602.896 233.128 605.016 234.22 605.657 236.202C606.298 238.183 605.218 240.31 603.241 240.963C601.246 241.622 599.096 240.531 598.45 238.532C597.803 236.533 598.907 234.39 600.91 233.756Z"/>
	<path fill="#FEFDFE" d="M620.985 228.488C622.756 228.369 624.546 228.225 626.295 228.612C629.029 229.217 631.825 231.139 633.175 233.621C634.239 235.576 634.521 237.753 633.797 239.875C632.707 243.069 630.143 244.539 627.303 245.996C625.727 246.26 624.253 246.411 622.658 246.2C620.056 245.855 617.542 244.513 616.005 242.35C614.655 240.45 614.174 238.067 614.683 235.792C615.47 232.116 617.937 230.337 620.985 228.488Z"/>
	<path fill="#050513" d="M623.287 233.692C624.591 233.318 625.995 233.676 626.961 234.628C627.927 235.58 628.304 236.98 627.948 238.288C627.592 239.597 626.558 240.613 625.243 240.945C623.254 241.446 621.231 240.261 620.697 238.281C620.163 236.301 621.316 234.259 623.287 233.692Z"/>
	<path fill="#FEFDFE" d="M683.876 240.7C684.746 241.044 685.18 241.259 685.841 241.961C686.527 242.69 686.333 242.789 686.337 243.715C685.869 244.291 685.812 244.412 685.175 244.93C683.348 246.415 679.632 246.642 677.403 246.399C674.776 246.113 672.681 245.092 671.134 242.913C669.672 240.853 669.12 238.014 669.68 235.55C670.245 233.061 671.959 230.061 674.196 228.711C675.777 227.758 677.543 227.598 679.301 228.046C682.504 228.864 685.444 231.19 687.025 234.087C687.791 235.489 687.895 236.547 687.428 238.098C686.117 239.076 685.511 238.899 683.908 238.956L683.876 240.7Z"/>
	<path fill="#050513" d="M683.876 240.7C682.474 241.216 680.755 241.89 679.233 241.747C677.983 241.629 677.308 241.342 676.584 240.347L677.349 239.533C679.545 238.71 681.608 238.891 683.908 238.956L683.876 240.7Z"/>
	<path fill="#FEFDFE" d="M677.452 261.049C679.527 260.891 681.851 260.735 683.897 261.181C685.402 261.509 686.214 262.143 687.036 263.403L686.582 264.538C683.634 266.644 680.923 266.094 677.489 265.911C681.183 267.385 686.362 269.09 687.894 273.208C688.306 274.317 688.34 275.425 687.73 276.48C686.309 278.936 682.699 279.582 680.176 280.113C678.322 279.789 676.481 279.629 674.953 278.424C673.856 277.56 672.753 276.538 672.627 275.086L673.242 274.447C674.671 274.082 675.602 273.916 677.031 274.348C678.564 274.81 679.74 275.207 681.373 275.026C679.977 272.538 675.93 271.486 673.816 269.543C672.842 268.647 672.461 267.934 672.607 266.556C672.87 264.076 675.531 262.219 677.452 261.049Z"/>
	<path fill="#FEFDFE" d="M659.555 222.014C661.407 221.963 663.199 221.985 665.045 222.145C665.777 223.253 665.692 236.193 666.044 238.799C666.415 241.547 667.603 244.01 667.373 246.807C665.046 246.638 663.063 246.54 661.42 244.665C657.116 239.75 659.208 228.062 659.555 222.014Z"/>
	<path fill="#050513" d="M732.766 85.1736C756.775 84.3761 781.045 85.3369 805.08 85.3166L882.155 85.1842C892.912 85.1747 923.047 83.8479 931.563 86.6331C933.187 88.7566 933.627 91.1324 933.871 93.7603C934.84 104.191 933.799 115.072 933.909 125.564C934.028 136.973 935.733 150.62 934.282 161.763C933.693 166.292 932.705 168.695 929.071 171.457L912.025 171.675L771.682 171.981C771.145 177.914 770.748 183.138 768.599 188.743C765.614 183.369 764.111 177.864 762.488 171.981C755.951 172.021 733.143 173.452 728.061 170.076C725.293 168.238 724.266 165.544 723.742 162.368C722.466 154.622 723.549 142.467 723.531 134.225C723.506 122.625 722.518 110.576 723.483 99.0382C723.748 95.8647 724.051 91.403 725.985 88.7894C727.736 86.4226 729.951 85.636 732.766 85.1736Z"/>
	<path fill="#B4B6FE" d="M732.276 169.062C732.003 168.938 731.728 168.818 731.457 168.69C729.304 167.666 728.056 166.087 727.289 163.841C724.389 155.358 726.637 143.593 726.588 134.73C726.538 125.674 724.06 98.6989 728.085 91.1601C728.801 89.8191 729.796 89.144 731.238 88.7295C738.544 86.6303 754.098 87.9811 762.357 88.0537L796.457 88.0874L886.08 88.0762C898.827 88.0888 911.772 87.4907 924.486 87.93C925.949 87.9805 927.774 88.2212 929.015 89.0799C930.871 90.3631 930.986 91.7863 931.263 93.8515C930.067 110.38 930.946 127.569 931.035 144.177C931.066 149.863 931.537 155.743 931.035 161.402C930.857 163.415 930.581 165.578 929.387 167.26C926.943 168.977 922.803 168.878 919.882 169.005C902.995 169.74 886.027 168.662 869.131 168.674L769.109 168.996L768.127 179.231C766.767 175.838 765.69 172.468 764.723 168.943C756.221 168.939 740.149 168.005 732.276 169.062Z"/>
	<path fill="#FEFDFE" d="M732.276 169.062C732.003 168.938 731.728 168.818 731.457 168.69C729.304 167.666 728.056 166.087 727.289 163.841C724.389 155.358 726.637 143.593 726.588 134.73C726.538 125.674 724.06 98.6989 728.085 91.1601C728.801 89.8191 729.796 89.144 731.238 88.7295C738.544 86.6303 754.098 87.9811 762.357 88.0537L796.457 88.0874L886.08 88.0762C898.827 88.0888 911.772 87.4907 924.486 87.93C925.949 87.9805 927.774 88.2212 929.015 89.0799C930.871 90.3631 930.986 91.7863 931.263 93.8515C912.881 94.3774 894.416 94.0272 876.021 94.0213L788.512 94.0024C775.08 93.9623 761.65 93.2803 748.219 93.6206C744.331 93.7191 736.847 93.2457 733.619 95.2319C732.337 96.7218 732.203 98.4622 732.013 100.352C731.362 106.857 731.878 113.772 732.027 120.326C732.387 131.606 732.581 142.891 732.608 154.176C732.616 159.035 732.874 164.241 732.276 169.062Z"/>
	<path fill="#050513" d="M866.987 119.01C872.825 118.848 879.212 118.165 884.303 121.674C886.808 123.401 888.692 125.949 889.144 129.003C889.71 132.83 887.729 136.897 885.564 139.899C879.671 143.644 873.345 143.196 866.671 143.011C867.266 135.087 866.974 126.961 866.987 119.01Z"/>
	<path fill="#B4B6FE" d="M871.511 122.889C874.249 122.88 876.868 122.772 879.433 123.904C881.277 124.718 882.887 125.994 883.564 127.954C884.661 131.133 883.294 134.131 881.93 136.971C878.344 138.848 875.45 138.984 871.506 139.022L871.511 122.889Z"/>
	<path fill="#050513" d="M809.544 119.132C815.3 118.967 821.505 118.463 826.603 121.698C829.114 123.293 830.947 125.758 831.45 128.719C832.09 132.492 830.041 136.945 827.883 139.91C822.035 143.526 815.92 143.089 809.347 143.012C809.36 135.052 809.426 127.092 809.544 119.132Z"/>
	<path fill="#B4B6FE" d="M813.997 122.988C816.325 122.994 818.92 122.823 821.156 123.541C823.288 124.225 825.286 125.39 826.239 127.501C827.72 130.782 826.313 134.144 825.035 137.223C821.925 139.477 817.682 139.131 814.033 139.168L813.997 122.988Z"/>
	<path fill="#050513" d="M756.535 119.018C761.754 118.917 768.512 118.13 772.813 121.674C774.267 122.872 775.292 124.586 775.333 126.503C775.377 128.523 774.379 130.392 773.001 131.815C771.107 133.771 769.268 134.322 766.623 134.44C765.175 134.392 763.899 134.319 762.486 134.727C760.897 136.181 760.649 137.8 760.558 139.871C760.506 141.069 760.412 142.137 760.193 143.316L759.372 143.782L757.499 143.217C755.319 140.776 756.452 123.281 756.535 119.018Z"/>
	<path fill="#B4B6FE" d="M761.07 122.615C762.945 122.624 764.92 122.557 766.757 122.967C768.046 123.254 769.343 123.847 769.994 125.053C770.992 126.901 770.402 128.47 769.852 130.338C766.887 130.821 764.027 130.923 761.03 130.979L761.07 122.615Z"/>
	<path fill="#050513" d="M850.879 118.935C851.263 118.933 851.648 118.934 852.031 118.952C853.456 119.019 854.346 118.846 855.254 120.093C857.63 123.355 864.452 139.151 863.933 142.643C863.817 143.422 863.767 143.206 863.016 143.754C859.535 143.258 859.402 139.662 857.381 137.449C857.243 137.298 857.083 137.168 856.934 137.028L847.978 136.965C847.392 138.997 846.961 141.67 845.109 142.928C844.099 143.614 844.003 143.773 842.764 143.573C842.647 143.382 842.489 143.211 842.414 143.001C840.701 138.19 848.461 123.876 850.879 118.935Z"/>
	<path fill="#B4B6FE" d="M852.61 124.377C852.806 124.61 853.02 124.829 853.197 125.077C854.676 127.141 856.084 130.068 855.697 132.637L854.559 133.438C853.738 133.37 852.723 133.375 851.938 133.145C850.751 132.797 850.662 132.325 850.116 131.309C850.078 128.924 851.612 126.505 852.61 124.377Z"/>
	<path fill="#050513" d="M783.986 118.72C785.553 118.742 786.982 118.569 788.115 119.841C790.419 122.426 797.175 139.807 796.915 142.993L796.295 143.439C792.353 143.499 792.795 138.577 789.625 137.468L780.515 137.455C779.815 139.643 779.461 141.406 777.352 142.648C776.447 143.18 776.818 143.055 775.731 142.785C775.662 142.603 775.575 142.428 775.524 142.24C774.191 137.251 781.663 123.566 783.986 118.72Z"/>
	<path fill="#B4B6FE" d="M785.553 124.272C787.433 126.476 788.591 129.61 788.465 132.491C787.685 133.914 787.366 133.836 785.905 134.409C785.506 134.324 784.874 134.2 784.505 134.071C783.267 133.637 783.239 133.405 782.726 132.272C782.718 129.533 784.434 126.734 785.553 124.272Z"/>
	<path fill="#050513" d="M897.06 119.071L898.079 119.013C901.976 118.832 904.853 119.17 907.822 121.877C907.742 125.19 898.42 121.699 895.389 124.612C895.324 125.225 895.213 125.298 895.53 125.837C897.547 129.264 902.006 128.749 905.219 130.241C906.877 131.011 907.865 132.325 908.457 134.032C909.056 135.763 909.068 137.599 908.064 139.199C906.329 141.967 903.218 142.823 900.203 143.288C896.842 142.831 893.515 142.346 891.098 139.709C891.223 138.383 891.22 138.287 892.083 137.284C895.286 136.62 898.429 139.506 901.881 139.362C903.259 138.66 903.473 138.443 904.34 137.157C904.037 133.035 893.521 132.442 891.321 127.939C890.68 126.627 890.81 124.9 891.369 123.575C892.431 121.064 894.71 120.098 897.06 119.071Z"/>
	<path fill="#050513" d="M800.042 118.873C801.458 118.906 802.597 118.909 803.924 119.488C805.956 125.495 804.63 136.501 804.469 143.167C803.102 143.11 801.781 143.18 800.54 142.53C798.673 136.477 799.927 125.511 800.042 118.873Z"/>
</svg>
