<?xml version="1.0" encoding="utf-8" ?>
<svg xmlns="http://www.w3.org/2000/svg" xmlns:xlink="http://www.w3.org/1999/xlink" width="1024" height="1024">
	<path d="M115.951 212.695C123.381 202.348 138.303 190.959 148.254 182.925C202.541 139.095 265.209 106.765 333.951 93.1904C409.606 78.7449 487.834 86.751 558.995 116.222C574.932 122.651 591.032 129.175 605.349 138.781C600.286 167.984 601.759 195.943 614.357 223.199C616.573 227.992 618.708 233.255 621.764 237.577C622.927 239.221 624.242 241.118 626.31 241.592C626.613 241.662 627.768 241.783 628.063 241.816C645.54 268.48 671.942 288.049 702.536 297.014C702.596 298.164 702.576 299.243 703.075 300.305C710.413 314.062 720.275 336.474 720.788 351.903C721.577 357.834 722.12 364.154 723.491 369.971C730.489 381.909 733.799 397.774 744.43 407.075C744.525 411.961 744.656 416.811 745.048 421.686C753.371 422.457 761.502 424.125 769.682 425.786C770.607 428.472 771.609 431.145 772.169 433.935C772.015 439.033 772.543 444.092 772.422 449.175C770.618 453.185 768.259 456.968 766.063 460.773C768.96 463.797 774.626 468.591 776.564 472.028C777.752 481.045 777.425 490.742 777.539 499.862C777.932 531.525 774.854 561.014 769.158 592.185C767.034 603.803 764.173 615.281 762.045 626.892C766.001 629.276 780.355 632.614 785.614 634.259C806.344 640.746 827.072 647.269 847.679 654.133C865.435 635.088 882.67 615.561 900.504 596.59C911.857 584.514 924.855 572.883 934.873 559.682C926.971 554.796 918.365 550.819 910.09 546.588C903.339 543.137 896.598 539.254 889.598 536.348C917.698 526.382 945.53 515.801 973.542 505.607C987.085 500.678 1000.86 494.778 1014.84 491.295L970.658 568.61C964.799 578.856 953.253 596.869 949.45 607.239C944.313 594.736 940.33 581.503 936.673 568.497C920.333 584.739 904.992 602.2 889.469 619.221C876.553 633.382 863.224 647.446 849.775 661.105C831.738 656.017 813.907 649.983 795.975 644.515C784.765 641.097 771.434 638.281 760.93 633.374C755.8 646.727 752.948 661.188 746.218 673.886C745.083 674.691 744.654 675.051 744.387 676.461C743.971 678.657 744.209 681.233 744.269 683.476C741.077 688.988 738.716 694.995 735.966 700.738C729.2 714.869 721.896 729.995 712.233 742.395C710.167 759.199 711.08 777.077 711.044 794.03L711.027 873.98C693.036 874.097 674.982 874.437 656.998 874.029L656.714 825.483C656.66 816.782 656.084 807.762 656.676 799.095C651.012 804.697 645.804 810.742 640.028 816.232C626.747 828.854 612.666 839.623 597.761 850.191C596.68 850.978 595.648 851.708 594.45 852.316L596.766 859.866C597.984 860.723 598.653 861.353 599.253 862.74C601.922 868.909 603.618 875.808 605.468 882.262C608.674 893.611 611.819 904.976 614.903 916.358C619.147 931.982 623.297 947.631 627.354 963.304C629.861 972.92 632.761 982.595 634.491 992.379C634.875 994.554 634.975 996.478 634.551 998.649C631.348 1003.97 625.883 1006.12 620.103 1007.54C618.339 1007.97 615.02 1008.31 613.775 1009.48L613.957 1010.12C608.316 1010.92 582.671 1009.26 580.253 1011.31C580.259 1012.17 580.264 1013.01 580.349 1013.87C578.946 1016.23 579.108 1021.18 578.864 1024L544.163 1024C543.426 1020.47 542.656 1017.04 541.511 1013.62C541.417 1013.23 541.278 1012.6 541.11 1012.26C539.824 1009.63 536.372 1010.77 534.028 1010.24C533.765 1010.18 533.505 1010.11 533.243 1010.05C532.553 1009.37 532.891 1009.57 531.992 1009.22C528.82 1008 525.872 1006.72 523.276 1004.47C522.497 1003.79 522.131 1003.38 521.13 1003.04C520.018 1002.65 520.84 1003.19 519.732 1002.19C514.892 995.354 510.492 980.829 507.4 972.694C500.107 953.802 493.096 934.803 486.369 915.702C461.991 924.669 421.593 927.349 395.491 927.487C393.264 933.146 391.63 939.057 389.568 944.783C384.548 958.719 372.961 989.235 363.581 1000.41C362.641 1001.53 361.611 1002.8 360.122 1002.94C359.815 1001.08 360.412 999.265 361.096 997.539C362.843 993.127 365.606 988.954 367.889 984.785C370.43 980.146 372.638 975.392 374.733 970.539C380.942 956.152 386.048 941.304 391.62 926.665C382.071 926.635 372.49 925.665 362.985 924.805C334.991 922.271 306.049 918.518 279.471 909.04C276.072 907.601 272.693 906.281 269.185 905.132C262.693 935.38 256.702 966.377 242.122 993.981C240.198 997.623 238.02 1002.23 235.121 1005.2C234.257 1006.09 233.819 1006.5 232.541 1006.53C231.874 1005.35 232.344 1004.08 232.809 1002.85C235.566 995.555 240.616 989.105 243.545 981.773C253.567 956.684 260.311 930.055 265.283 903.528C256.906 899.056 247.913 895.516 239.322 891.444C226.164 885.218 213.375 878.239 201.02 870.542C108.494 812.796 41.7506 721.645 14.6392 616.001C10.2898 599.152 6.46467 581.984 4.15338 564.725C2.69086 553.804 2.74986 542.023 0.140625 531.356C0.0961206 531.174 0.0468749 530.993 0 530.812L0 480.767C2.38734 472.694 2.22255 462.924 3.17037 454.538C4.51256 443.206 6.26469 431.925 8.4233 420.719C18.1384 369.113 38.4689 316.818 66.2849 272.268C72.5947 262.162 79.3568 251.674 87.8176 243.219C93.452 230.656 106.253 221.97 115.951 212.695Z"/>
	<path fill="#FEE5A3" d="M115.951 212.695C123.381 202.348 138.303 190.959 148.254 182.925C202.541 139.095 265.209 106.765 333.951 93.1904C409.606 78.7449 487.834 86.751 558.995 116.222C574.932 122.651 591.032 129.175 605.349 138.781C600.286 167.984 601.759 195.943 614.357 223.199C616.573 227.992 618.708 233.255 621.764 237.577C622.927 239.221 624.242 241.118 626.31 241.592C626.613 241.662 627.768 241.783 628.063 241.816C645.54 268.48 671.942 288.049 702.536 297.014C702.596 298.164 702.576 299.243 703.075 300.305C710.413 314.062 720.275 336.474 720.788 351.903C718.583 346.98 717.249 341.708 715.035 336.758C703.975 312.649 683.77 293.936 658.885 284.755C633.107 275.061 604.541 275.958 579.422 287.249C552.716 299.499 535.947 321.632 525.931 348.67C515.767 318.385 506.03 304.816 485.52 281.42C496.459 270.472 501.182 256.846 503.773 241.877C508.244 238.853 512.076 235.439 514.659 230.618C517.931 224.509 518.865 216.938 516.837 210.29C514.253 201.82 508.226 197.255 500.811 193.315C501.786 189.871 502.796 186.398 503.198 182.833C504.151 174.382 502.224 165.748 496.807 159.06C490.493 151.263 481.812 148.879 472.299 147.942C471.486 146.234 466.141 143.743 464.353 142.889C450.826 136.433 430.896 132.837 416.42 138.059C405.032 138.562 392.69 148.074 385.281 156.149C371.965 170.661 367.023 189.217 367.919 208.597C368.257 215.887 369.337 222.876 371 229.973C346.716 238.797 329.296 257.165 318.38 280.349C303.941 311.015 301.349 350.301 311.801 382.636C302.849 390.794 293.934 398.932 285.574 407.707C254.112 441.049 229.102 479.934 211.814 522.392C207.705 532.222 201.437 544.308 200.747 554.988C200.645 556.564 200.829 557.456 201.691 558.82C202.169 559.082 202.751 559.474 203.263 559.648C204.052 561.568 205.339 563.687 207.204 564.729C207.31 564.789 207.431 564.816 207.545 564.859C209.225 565.255 209.823 565.239 211.066 566.488C212.363 571.71 211.295 575.141 213.707 581.455C227.073 616.436 268.5 646.287 297.451 668.467C300.027 670.442 309.869 677.302 310.771 679.816C311.034 680.547 310.454 681.674 310.116 682.291C308.716 682.029 307.884 681.622 306.534 682.185C303.464 690.252 303.05 704.052 301.718 712.996L289.83 790.506C285.811 816.264 281.379 841.956 276.538 867.572C274.175 880.097 271.381 892.582 269.185 905.132C262.693 935.38 256.702 966.377 242.122 993.981C240.198 997.623 238.02 1002.23 235.121 1005.2C234.257 1006.09 233.819 1006.5 232.541 1006.53C231.874 1005.35 232.344 1004.08 232.809 1002.85C235.566 995.555 240.616 989.105 243.545 981.773C253.567 956.684 260.311 930.055 265.283 903.528C256.906 899.056 247.913 895.516 239.322 891.444C226.164 885.218 213.375 878.239 201.02 870.542C108.494 812.796 41.7506 721.645 14.6392 616.001C10.2898 599.152 6.46467 581.984 4.15338 564.725C2.69086 553.804 2.74986 542.023 0.140625 531.356C0.0961206 531.174 0.0468749 530.993 0 530.812L0 480.767C2.38734 472.694 2.22255 462.924 3.17037 454.538C4.51256 443.206 6.26469 431.925 8.4233 420.719C18.1384 369.113 38.4689 316.818 66.2849 272.268C72.5947 262.162 79.3568 251.674 87.8176 243.219C93.452 230.656 106.253 221.97 115.951 212.695Z"/>
	<path d="M160.48 217.292C160.646 212.396 160.008 198.766 163.649 195.419C168.09 191.337 191.662 192.446 198.185 193.672C200.44 194.096 203.405 194.607 204.978 196.401C207.988 199.834 207.987 212.944 208.194 217.531C215.978 220.52 223.64 223.719 230.557 228.458C236.491 222.955 241.962 217.515 249.696 214.668C259.672 218.276 273.588 232.674 278.017 242.111C274.487 250.058 269.911 256.652 264.493 263.416C269.54 270.549 272.361 277.285 275.105 285.555C280.422 285.678 295.186 284.735 298.744 289.003C302.874 293.958 302.403 318.486 300.941 325.135C300.467 327.294 299.752 328.762 297.775 329.878C292.019 333.126 282.434 332.298 275.912 332.37C272.773 340.369 269.645 348.131 265.43 355.644C270.244 361.475 275.301 367.07 278.789 373.826C275.396 381.444 258.061 402.239 250.092 405.418C248.364 406.108 246.942 405.987 245.296 405.186C239.585 402.405 234.805 396.465 229.962 392.393C222.495 396.088 215.124 399.258 207.206 401.873C206.394 407.105 205.548 420.552 201.215 423.861C195.726 428.053 173.896 426.811 167.125 425.387C165.107 424.963 162.674 424.366 161.461 422.562C157.927 417.309 157.972 408.446 156.891 402.282C149.225 399.643 142.097 396.356 134.926 392.61C128.528 397.347 121.91 402.994 114.137 405.234C106.176 401.49 91.6436 387.31 88.5763 379.114C87.6267 376.576 87.797 374.773 88.9429 372.347C91.7285 366.449 97.2561 361.989 101.19 356.878C96.4631 349.431 92.661 341.826 90.5893 333.201C85.7256 332.945 69.5801 333.302 66.6326 328.996C63.1721 323.94 64.8262 297.443 65.954 291.096C73.2311 287.079 82.0313 286.42 90.2046 285.888C93.0419 276.921 95.9663 267.992 101.596 260.319C96.6516 254.829 91.8813 249.418 87.8176 243.219C93.452 230.656 106.253 221.97 115.951 212.695C124.958 215.961 129.108 222.572 136.376 228.044C144.146 223.388 151.877 220.094 160.48 217.292Z"/>
	<path fill="#B2B0FE" d="M173.069 197.189L174.075 197.129C180.048 196.794 196.315 195.409 200.377 199.336C204.791 203.603 203.899 214.389 204.004 220.231C213.878 223.452 222.416 227.679 230.807 233.814C236.949 228.058 243.058 222.581 250.341 218.303C259.227 225.467 267.163 232.956 273.742 242.351C270.039 250.287 264.891 256.575 259.243 263.172C265.62 271.383 269.214 280.026 272.034 289.973C278.232 289.76 285.333 288.963 291.39 290.279C293.334 290.7 294.927 291.142 295.952 292.971C299.283 298.914 298.079 319.711 296 326.497C288.509 328.454 280.47 327.995 272.795 327.983C269.723 338.02 266.226 347.25 260.355 356.004C265.532 361.94 270.398 368.141 274.931 374.582C267.305 384.74 258.569 394.015 248.883 402.233C242.36 397.677 236.342 392.557 230.397 387.282C221.787 392.439 213.142 396.066 203.658 399.233C203.028 406.632 200.94 414.094 198.958 421.241C197.408 421.596 195.702 421.693 194.12 421.898C184.265 422.352 174.607 422.239 164.803 421.002C162.624 413.891 161.588 406.229 160.274 398.911C151.088 396.682 142.947 392.76 135.218 387.371C128.74 392.574 121.809 397.186 114.508 401.152C106.73 394.988 96.0066 385.995 91.6957 377.069C94.6756 369.778 101.163 363.311 106.19 357.363C100.192 348.532 96.684 339.203 93.7565 329.016C85.2273 328.996 77.3169 328.335 69.066 326.103C68.7616 315.32 68.5093 304.46 69.8865 293.739C77.2227 290.679 85.779 290.55 93.6038 289.924C96.1989 278.725 101.059 268.706 106.571 258.705C100.947 254.609 96.5495 248.694 92.3838 243.202C98.6338 233.039 108.084 224.293 117.673 217.34C124.533 222.089 130.147 227.397 135.568 233.728C144.68 227.638 153.973 223.575 164.514 220.65C164.459 214.977 163.532 202.927 166.831 198.348C168.715 197.265 170.944 197.346 173.069 197.189Z"/>
	<path d="M175.833 263.747C201.772 260.171 225.707 278.276 229.324 304.209C232.942 330.141 214.876 354.105 188.949 357.765C162.963 361.433 138.933 343.317 135.306 317.325C131.68 291.333 149.835 267.331 175.833 263.747Z"/>
	<path fill="#FEFEFE" d="M176.181 267.76C199.957 264.412 221.942 280.98 225.276 304.758C228.61 328.535 212.029 350.511 188.249 353.831C164.49 357.148 142.537 340.584 139.205 316.826C135.874 293.068 152.425 271.105 176.181 267.76Z"/>
	<path d="M207.545 564.859C209.225 565.255 209.823 565.239 211.066 566.488C212.363 571.71 211.295 575.141 213.707 581.455C227.073 616.436 268.5 646.287 297.451 668.467C300.027 670.442 309.869 677.302 310.771 679.816C311.034 680.547 310.454 681.674 310.116 682.291C308.716 682.029 307.884 681.622 306.534 682.185C303.464 690.252 303.05 704.052 301.718 712.996L289.83 790.506C285.811 816.264 281.379 841.956 276.538 867.572C274.175 880.097 271.381 892.582 269.185 905.132C262.693 935.38 256.702 966.377 242.122 993.981C240.198 997.623 238.02 1002.23 235.121 1005.2C234.257 1006.09 233.819 1006.5 232.541 1006.53C231.874 1005.35 232.344 1004.08 232.809 1002.85C235.566 995.555 240.616 989.105 243.545 981.773C253.567 956.684 260.311 930.055 265.283 903.528C268.74 884.333 273.073 865.297 276.498 846.092C281.845 814.507 286.932 782.879 291.76 751.211C295.619 726.676 300.113 702.066 302.195 677.301C293.464 671.05 285.122 664.154 276.763 657.413C261.6 645.185 246.382 632.741 233.38 618.171C219.947 603.117 206.322 586.074 207.545 564.859Z"/>
	<path fill="#FEFEFE" d="M172.563 638.641C173.578 638.965 174.575 639.337 175.237 640.236C177.412 643.191 176.207 649.421 175.934 652.945C188.742 652.9 202.175 657.837 212.307 665.571C225.14 675.366 233.342 690.588 235.466 706.508C237.671 723.04 233.525 740.401 223.238 753.645C211.434 768.841 194.975 775.265 176.43 777.668C176.861 783.441 178.064 791.337 175.502 796.757C174.842 798.153 174.422 798.495 173.009 799.051L173.155 798.293L173.773 798.961C172.923 798.998 172.943 799.205 172.447 798.679C169.799 795.874 170.795 788.377 170.976 784.867L171.001 777.675C157.26 775.749 144.993 771.921 134.35 762.678C121.575 751.584 114.626 736.169 113.351 719.428C107.512 719.767 97.2068 721.339 92.3551 717.429L92.2819 716.437C97.251 712.518 106.893 713.83 112.929 714.042C112.72 700.065 117.924 685.589 126.712 674.747C137.911 660.931 153.723 654.532 171.041 652.632C170.663 647.974 169.851 642.731 172.563 638.641Z"/>
	<path fill="#FEE5A3" d="M169.22 657.715L169.827 657.722C172.566 660.771 169.122 666.242 171.326 669.783C172.006 670.875 172.2 671.118 173.436 671.351C173.58 671.232 173.737 671.127 173.867 670.993C176.645 668.158 176.089 661.491 176.053 657.872C182.299 658.221 188.136 659.276 193.984 661.561C208.505 667.133 220.171 678.318 226.348 692.592C232.406 707.095 232.39 723.422 226.302 737.912C219.557 754.034 207.719 763.218 191.872 769.61C186.806 771.255 181.574 772.039 176.305 772.699C175.842 761.156 176.014 749.54 176.102 737.988C176.16 730.345 176.814 722.171 175.337 714.653C167.132 713.663 158.775 713.939 150.523 713.95L117.867 713.989C118.274 701.362 122.933 688.239 130.754 678.308C140.518 665.91 153.781 659.617 169.22 657.715Z"/>
	<path fill="#FEE5A3" d="M121.394 719.76C137.794 718.8 154.542 719.427 170.977 719.489C170.968 726.147 172.046 768.938 170.401 771.817L168.271 772.172C162.883 771.245 157.612 769.73 152.555 767.654C137.682 761.375 127.569 749.599 121.588 734.811C120.194 731.363 117.161 724.144 119.053 720.557C119.4 719.9 120.696 719.897 121.394 719.76Z"/>
	<path fill="#FEFEFE" d="M87.1106 592.263C98.9101 589.711 110.541 597.222 113.068 609.027C115.595 620.831 108.06 632.446 96.2494 634.948C84.4747 637.443 72.903 629.935 70.3832 618.165C67.8634 606.396 75.3468 594.808 87.1106 592.263Z"/>
	<path fill="#FEE5A3" d="M91.2888 596.749C100.55 596.465 108.283 603.753 108.548 613.014C108.814 622.276 101.511 629.995 92.2493 630.242C83.0127 630.489 75.32 623.211 75.0551 613.975C74.7902 604.739 82.0532 597.032 91.2888 596.749Z"/>
	<path fill="#FEFEFE" d="M392.43 345.165C407.245 361.268 428.229 367.101 448.079 374.658C441.748 386.737 432.951 396.946 426.284 408.687C409.53 397.416 394.012 384.482 377.694 372.621C373.741 369.748 370.147 366.371 366.036 363.716C364.586 362.779 363.28 361.934 361.544 362.31C361.101 363.75 361.592 364.508 362.034 365.924C351.382 372.42 340.477 377.971 330.702 385.851C320.315 394.224 311.071 404.034 302.181 413.948C266.771 453.44 236.897 500.869 219.105 550.981C219.176 552.344 219.066 552.343 220.038 553.274C224.836 554.341 231.91 551.16 236.84 550.463C239.451 550.095 242.445 550.348 245.101 550.399C264.816 550.777 283.163 558.822 298.862 570.435C298.674 571.823 298.644 573.043 298.667 574.439C298.679 575.111 298.703 574.85 298.461 575.521C297.814 576.874 297.305 577.775 297.746 579.32C298.856 583.21 310.188 595.595 313.156 599.525C320.978 609.886 328.367 620.571 336.238 630.896C339.847 635.63 343.494 640.844 347.89 644.875L349.466 645.179L350.29 644.577C350.498 642.17 349.258 640.101 347.954 638.172C352.731 629.279 368.105 603.48 366.983 594.416C366.227 593.291 366.315 593.297 365.002 592.999C362.638 594.545 354.442 617.25 351.982 622.218C349.892 626.477 347.333 630.49 344.354 634.183C339.99 628.748 335.765 623.203 331.683 617.553C339.226 604.258 346.758 590.997 353.076 577.06C386.187 581.777 418.957 582.183 452.321 582.147C453.088 602.215 453.183 621.964 451.357 641.993C450.529 651.068 448.444 660.146 447.792 669.154C447.621 671.524 447.473 672.987 449.247 674.697C450.329 674.603 450.542 674.584 451.304 673.715C458.736 665.234 456.402 643.23 456.588 632.865C456.734 624.758 457.475 616.669 457.416 608.555C457.353 599.715 456.498 590.887 456.425 582.056C468.866 581.755 481.294 581.039 493.687 579.909C501.065 603.542 511.217 624.224 526.613 643.705C529.463 647.312 532.714 652.149 536.799 654.394C537.473 654.764 538.124 654.907 538.877 655.006L539.827 654.609C540.031 651.721 536.398 648 534.544 645.86C531.7 642.576 528.552 639.436 525.884 636.019C513.014 619.537 503.61 599.778 498.071 579.667C504.635 578.871 511.285 577.805 517.874 577.338C527.768 597.005 535.875 617.521 542.097 638.639C542.951 641.437 544.264 644.606 544.601 647.507C544.828 649.465 544.256 651.602 544.644 653.527C544.795 654.279 546.138 654.953 546.715 655.302C550.331 662.256 555.013 686.409 557.26 695.575C567.269 735.922 576.848 776.375 585.995 816.926C587.774 824.885 591.004 846.44 594.45 852.316L596.766 859.866C597.984 860.723 598.653 861.353 599.253 862.74C601.922 868.909 603.618 875.808 605.468 882.262C608.674 893.611 611.819 904.976 614.903 916.358C619.147 931.982 623.297 947.631 627.354 963.304C629.861 972.92 632.761 982.595 634.491 992.379C634.875 994.554 634.975 996.478 634.551 998.649C631.348 1003.97 625.883 1006.12 620.103 1007.54C618.339 1007.97 615.02 1008.31 613.775 1009.48L613.957 1010.12C608.316 1010.92 582.671 1009.26 580.253 1011.31C580.259 1012.17 580.264 1013.01 580.349 1013.87C578.946 1016.23 579.108 1021.18 578.864 1024L544.163 1024C543.426 1020.47 542.656 1017.04 541.511 1013.62C541.417 1013.23 541.278 1012.6 541.11 1012.26C539.824 1009.63 536.372 1010.77 534.028 1010.24C533.765 1010.18 533.505 1010.11 533.243 1010.05C532.553 1009.37 532.891 1009.57 531.992 1009.22C528.82 1008 525.872 1006.72 523.276 1004.47C522.497 1003.79 522.131 1003.38 521.13 1003.04C520.018 1002.65 520.84 1003.19 519.732 1002.19C514.892 995.354 510.492 980.829 507.4 972.694C500.107 953.802 493.096 934.803 486.369 915.702C461.991 924.669 421.593 927.349 395.491 927.487C393.264 933.146 391.63 939.057 389.568 944.783C384.548 958.719 372.961 989.235 363.581 1000.41C362.641 1001.53 361.611 1002.8 360.122 1002.94C359.815 1001.08 360.412 999.265 361.096 997.539C362.843 993.127 365.606 988.954 367.889 984.785C370.43 980.146 372.638 975.392 374.733 970.539C380.942 956.152 386.048 941.304 391.62 926.665C382.071 926.635 372.49 925.665 362.985 924.805C334.991 922.271 306.049 918.518 279.471 909.04C276.072 907.601 272.693 906.281 269.185 905.132C271.381 892.582 274.175 880.097 276.538 867.572C281.379 841.956 285.811 816.264 289.83 790.506L301.718 712.996C303.05 704.052 303.464 690.252 306.534 682.185C307.884 681.622 308.716 682.029 310.116 682.291C310.454 681.674 311.034 680.547 310.771 679.816C309.869 677.302 300.027 670.442 297.451 668.467C268.5 646.287 227.073 616.436 213.707 581.455C211.295 575.141 212.363 571.71 211.066 566.488C209.823 565.239 209.225 565.255 207.545 564.859C207.431 564.816 207.31 564.789 207.204 564.729C205.339 563.687 204.052 561.568 203.263 559.648C206.63 551.058 208.917 542.047 212.048 533.365C217.864 517.718 224.785 502.505 232.759 487.84C261.756 433.855 305.164 382.923 361.533 356.512C371.543 351.822 381.859 348.349 392.43 345.165Z"/>
	<path fill="#FEE5A3" d="M395.491 927.487C403.891 905.255 410.037 882.253 415.901 859.245C422.933 831.655 429.254 804.169 434.378 776.162C440.556 791.159 445.574 806.817 451.263 822.032L486.369 915.702C461.991 924.669 421.593 927.349 395.491 927.487Z"/>
	<path fill="#FEE5A3" d="M269.185 905.132C271.381 892.582 274.175 880.097 276.538 867.572C281.379 841.956 285.811 816.264 289.83 790.506L301.718 712.996C303.05 704.052 303.464 690.252 306.534 682.185C307.884 681.622 308.716 682.029 310.116 682.291C309.916 684.585 310.218 685.737 311.672 687.548C312.956 689.147 314.638 690.501 316.177 691.849C315.183 693.18 314.808 693.529 314.602 695.22C315.081 696.258 315.47 696.961 316.28 697.774C314.119 715.957 310.941 733.894 308.078 751.969C304.147 778.018 299.915 804.02 295.381 829.971C291.989 849.491 288.168 868.757 283.986 888.121C282.527 894.879 281.62 902.503 279.471 909.04C276.072 907.601 272.693 906.281 269.185 905.132Z"/>
	<path d="M391.62 926.665C402.887 893.209 412.426 859.196 420.197 824.76C425.106 803.109 429.553 781.355 433.536 759.515C435.73 747.13 437.214 734.378 439.821 722.1C440.174 720.439 440.656 719.167 441.655 717.798L442.585 717.415C443.262 717.73 443.577 717.691 443.892 718.44C446.956 725.731 434.061 760.392 437.474 772.369C439.88 780.813 443.442 789.14 446.512 797.367L462.984 841.484L514.566 978.9C515.926 982.467 523.033 997.352 521.501 1000.33C521.042 1001.22 520.507 1001.6 519.732 1002.19C514.892 995.354 510.492 980.829 507.4 972.694C500.107 953.802 493.096 934.803 486.369 915.702L451.263 822.032C445.574 806.817 440.556 791.159 434.378 776.162C429.254 804.169 422.933 831.655 415.901 859.245C410.037 882.253 403.891 905.255 395.491 927.487C393.264 933.146 391.63 939.057 389.568 944.783C384.548 958.719 372.961 989.235 363.581 1000.41C362.641 1001.53 361.611 1002.8 360.122 1002.94C359.815 1001.08 360.412 999.265 361.096 997.539C362.843 993.127 365.606 988.954 367.889 984.785C370.43 980.146 372.638 975.392 374.733 970.539C380.942 956.152 386.048 941.304 391.62 926.665Z"/>
	<path d="M596.766 859.866C597.984 860.723 598.653 861.353 599.253 862.74C601.922 868.909 603.618 875.808 605.468 882.262C608.674 893.611 611.819 904.976 614.903 916.358C619.147 931.982 623.297 947.631 627.354 963.304C629.861 972.92 632.761 982.595 634.491 992.379C634.875 994.554 634.975 996.478 634.551 998.649C633.368 997.963 632.335 997.264 631.765 995.982C628.97 989.701 627.449 981.839 625.656 975.191C620.951 957.752 616.778 940.17 612.162 922.707C608.936 910.619 605.597 898.562 602.145 886.537C600.226 879.867 597.828 873.045 596.442 866.254C595.949 863.838 595.92 862.188 596.766 859.866Z"/>
	<path d="M316.177 691.849C338.375 681.015 357.187 648.007 367.583 626.012C371.671 617.363 374.981 608.433 378.967 599.771C379.886 597.774 380.781 594.289 383.161 594.122C383.971 595.033 384.201 595.224 384.196 596.525C384.175 602.237 379.567 610.184 377.178 615.435C364.328 643.683 350.407 670.406 325.858 690.393C322.732 692.939 319.538 695.4 316.28 697.774C315.47 696.961 315.081 696.258 314.602 695.22C314.808 693.529 315.183 693.18 316.177 691.849Z"/>
	<path fill="#FEE5A3" d="M723.491 369.971C730.489 381.909 733.799 397.774 744.43 407.075C744.525 411.961 744.656 416.811 745.048 421.686C753.371 422.457 761.502 424.125 769.682 425.786C770.607 428.472 771.609 431.145 772.169 433.935C772.015 439.033 772.543 444.092 772.422 449.175C770.618 453.185 768.259 456.968 766.063 460.773C768.96 463.797 774.626 468.591 776.564 472.028C777.752 481.045 777.425 490.742 777.539 499.862C777.932 531.525 774.854 561.014 769.158 592.185C767.034 603.803 764.173 615.281 762.045 626.892C766.001 629.276 780.355 632.614 785.614 634.259C806.344 640.746 827.072 647.269 847.679 654.133C865.435 635.088 882.67 615.561 900.504 596.59C911.857 584.514 924.855 572.883 934.873 559.682C926.971 554.796 918.365 550.819 910.09 546.588C903.339 543.137 896.598 539.254 889.598 536.348C917.698 526.382 945.53 515.801 973.542 505.607C987.085 500.678 1000.86 494.778 1014.84 491.295L970.658 568.61C964.799 578.856 953.253 596.869 949.45 607.239C944.313 594.736 940.33 581.503 936.673 568.497C920.333 584.739 904.992 602.2 889.469 619.221C876.553 633.382 863.224 647.446 849.775 661.105C831.738 656.017 813.907 649.983 795.975 644.515C784.765 641.097 771.434 638.281 760.93 633.374C755.8 646.727 752.948 661.188 746.218 673.886C745.083 674.691 744.654 675.051 744.387 676.461C743.971 678.657 744.209 681.233 744.269 683.476C741.077 688.988 738.716 694.995 735.966 700.738C729.2 714.869 721.896 729.995 712.233 742.395C710.167 759.199 711.08 777.077 711.044 794.03L711.027 873.98C693.036 874.097 674.982 874.437 656.998 874.029L656.714 825.483C656.66 816.782 656.084 807.762 656.676 799.095C651.012 804.697 645.804 810.742 640.028 816.232C626.747 828.854 612.666 839.623 597.761 850.191C590.758 816.952 582.574 783.936 574.788 750.873C565.637 712.013 556.786 673.388 545.227 635.154L550.493 634.235C551.468 634.904 552.222 635.485 553.466 635.226C563.175 633.207 592.154 594.3 598.88 585.059C599.204 594.342 596.996 616.928 602.124 623.961C604.008 626.546 606.76 627.827 609.869 628.251C614.168 628.837 619.648 628.636 623.143 625.802C625.016 624.283 626.204 622.129 626.846 619.829C629.168 611.513 627.525 592.366 628.28 582.488C628.417 583.579 628.521 584.376 629.056 585.347C629.302 585.202 629.574 585.093 629.795 584.911C633.044 582.241 641.837 564.37 642.528 560.179C651.53 549.655 657.388 531.644 657.613 517.899C657.738 510.172 655.477 502.32 649.916 496.729C644.098 490.879 637.294 490.123 629.507 489.945L629.501 478.176C654.462 473.128 673.353 467.214 692.235 448.988C715.357 426.67 722.928 401.291 723.491 369.971Z"/>
	<path fill="#FCADCE" d="M889.598 536.348C917.698 526.382 945.53 515.801 973.542 505.607C987.085 500.678 1000.86 494.778 1014.84 491.295L970.658 568.61C964.799 578.856 953.253 596.869 949.45 607.239C944.313 594.736 940.33 581.503 936.673 568.497C920.333 584.739 904.992 602.2 889.469 619.221C876.553 633.382 863.224 647.446 849.775 661.105C831.738 656.017 813.907 649.983 795.975 644.515C784.765 641.097 771.434 638.281 760.93 633.374C753.696 631.048 746.396 628.916 739.326 626.119C730.209 634.793 721.796 644.419 713.253 653.658C698.35 669.865 683.304 685.939 668.116 701.88C663.303 706.961 658.815 712.37 653.891 717.338C651.572 719.676 648.576 722.931 645.09 722.959C643.975 722.285 643.966 722.103 643.432 720.894C643.458 718.413 644.694 716.524 646.2 714.638C649.434 710.587 653.507 706.993 657.126 703.262C663.016 697.123 668.868 690.946 674.679 684.733C695.422 662.573 715.864 640.172 737.139 618.511C744.867 621.573 754.991 623.2 762.045 626.892C766.001 629.276 780.355 632.614 785.614 634.259C806.344 640.746 827.072 647.269 847.679 654.133C865.435 635.088 882.67 615.561 900.504 596.59C911.857 584.514 924.855 572.883 934.873 559.682C926.971 554.796 918.365 550.819 910.09 546.588C903.339 543.137 896.598 539.254 889.598 536.348Z"/>
	<path fill="#FCADCE" d="M656.905 736.998C668.752 737.201 680.637 737.037 692.487 737.001C698.494 736.983 704.827 736.558 710.79 737.268C711.797 738.431 711.574 740.283 712.009 741.735C712.076 741.957 712.158 742.175 712.233 742.395C710.167 759.199 711.08 777.077 711.044 794.03L711.027 873.98C693.036 874.097 674.982 874.437 656.998 874.029L656.714 825.483C656.66 816.782 656.084 807.762 656.676 799.095C658.056 794.224 656.943 744.972 656.905 736.998Z"/>
	<path fill="#FCADCE" d="M219.105 550.981C236.897 500.869 266.771 453.44 302.181 413.948C311.071 404.034 320.315 394.224 330.702 385.851C340.477 377.971 351.382 372.42 362.034 365.924C372.712 373.86 383.346 381.856 393.935 389.91C404.175 397.833 415.089 408.631 427.082 413.669C436.024 404.653 444.413 389.127 451.341 378.202C456.988 383.784 482.54 410.458 488.178 410.476C488.335 410.476 488.489 410.43 488.645 410.407C491.791 405.862 493.225 394.108 494.761 388.296C501.299 394.116 506.43 400.998 511.849 407.825L535.886 438.543C541.873 446.043 549.122 452.838 554.619 460.654C557.555 464.828 560.913 477.432 564.24 479.431C565.309 483.167 566.663 487.002 567.385 490.813C568.582 493.77 573.009 502.284 571.681 505.291C571.572 505.539 571.429 505.77 571.303 506.01C567.642 511.167 564.853 517.209 561.605 522.665C555.573 532.798 547.996 543.523 539.742 551.991L518.101 555.258C515.29 542.884 513.332 530.182 515.113 517.508C515.615 513.942 517.516 506.317 514.771 503.603C513.681 503.764 514.012 503.514 513.371 504.305C508.755 510.006 510.823 537.667 511.893 544.742C512.38 547.917 512.974 551.074 513.675 554.208C486.552 548.487 452.299 553.513 425.16 558.235C409.775 560.912 394.374 564.108 378.709 564.496C364.891 564.839 351.577 562.907 338.188 559.709C342.267 535.895 345.66 513.505 342.321 489.314C344.234 487.2 347.196 484.722 347.059 481.659L346.398 480.568C345.068 480.445 344.58 480.668 343.545 481.539C339.59 484.865 336.343 491.018 333.569 495.394C319.451 517.666 308.064 540.381 297.781 564.651C277.806 551.588 254.107 542.456 229.924 547.547C226.172 548.337 222.667 549.583 219.105 550.981Z"/>
	<path fill="#FEFEFE" d="M567.385 490.813C568.582 493.77 573.009 502.284 571.681 505.291C571.572 505.539 571.429 505.77 571.303 506.01C569.545 503.676 568.436 500.686 567.61 497.894C566.872 495.401 566.109 493.206 567.385 490.813Z"/>
	<path fill="#FEFEFE" d="M537.528 471.034C535.379 464.943 532.459 459.257 528.959 453.829C527.163 451.042 524.856 448.231 523.467 445.244C522.864 443.948 522.618 442.953 522.921 441.53L523.741 441.09C528.363 442.516 534.692 454.896 537.044 459.324C544.109 472.62 547.451 488.283 542.933 503.004C540.544 510.787 533.457 529.09 527.159 533.959L526.018 533.986C525.178 533.14 524.677 532.241 524.653 531.001C524.639 530.319 524.906 529.611 525.21 529.014C522.843 526.657 523.384 523.38 523.845 520.336C525.783 507.545 533.038 479.985 528.877 468.441C526.726 462.473 520.51 454.7 519.92 448.746C519.816 447.701 519.745 448.107 520.454 447.264C527.023 449.804 530.081 465.686 536.687 470.461C536.962 470.659 537.248 470.843 537.528 471.034Z"/>
	<path d="M537.528 471.034C535.379 464.943 532.459 459.257 528.959 453.829C527.163 451.042 524.856 448.231 523.467 445.244C522.864 443.948 522.618 442.953 522.921 441.53L523.741 441.09C528.363 442.516 534.692 454.896 537.044 459.324C544.109 472.62 547.451 488.283 542.933 503.004C540.544 510.787 533.457 529.09 527.159 533.959L526.018 533.986C525.178 533.14 524.677 532.241 524.653 531.001C524.639 530.319 524.906 529.611 525.21 529.014C528.715 525.092 531.4 520.258 533.685 515.55C540.671 501.15 542.788 486.366 537.528 471.034Z"/>
	<path d="M442.726 503.606C443.922 503.961 444.474 504.286 445.37 505.155C445.627 505.821 445.824 506.415 445.752 507.143C445.105 513.703 439.582 521.175 434.541 525.138C425.059 532.592 411.509 534.911 399.76 533.479C389.633 532.245 382.37 528.065 376.13 520.014C375.43 518.618 374.884 517.252 375.193 515.664C375.358 514.817 375.616 514.862 376.27 514.409C378.247 514.999 383.285 524.274 391.325 527.342C401.745 531.318 415.247 530.57 425.351 525.965C435.542 521.321 439.079 513.516 442.726 503.606Z"/>
	<path fill="#FEFEFE" d="M379.354 474.9C379.918 475.299 380.116 475.677 380.482 476.251C380.3 479.827 375.158 483.004 372.63 485.368C370.818 487.064 368.717 489.198 367.943 491.606C366.17 497.128 369.442 514.668 369.105 522.176C369.005 524.414 368.892 527.576 367.156 529.165C364.984 522.528 362.732 498.224 364.191 491.289C365.923 483.056 372.816 479.081 379.354 474.9Z"/>
	<path fill="#FEFEFE" d="M516.742 566.288C522.117 565.111 527.426 563.961 532.406 561.547C547.465 554.25 557.827 536.72 566.03 522.695C568.865 517.848 571.508 511.802 575.445 507.827C578.815 504.424 581.757 503.95 586.314 503.977C586.777 506.209 587.366 508.281 588.146 510.423C587.158 512.685 586.434 515.07 585.641 517.407L587.966 523.133C586.575 525.796 583.787 529.527 583.77 532.484C583.752 535.485 585.701 536.986 587.692 538.874C587.368 539.682 587.051 540.492 586.74 541.304C586.308 542.402 585.758 543.558 585.623 544.741C585.23 548.179 588.547 551.299 590.425 553.903L590.396 557.524C590.378 559.255 590.267 560.839 591.114 562.42C592.633 565.257 596.623 565.956 599.46 566.842C599.577 571.047 599.562 574.518 598.011 578.541C593.466 590.331 574.129 611.618 564.836 620.704C560.32 625.12 555.09 628.888 550.964 633.68L550.493 634.235L545.227 635.154C539.577 618.057 533.427 601.359 526.077 584.911C523.251 578.588 520.557 572.091 516.742 566.288Z"/>
	<path fill="#FEFEFE" d="M628.28 582.488C628.435 577.306 630.509 562.999 627.285 559.433C626.513 558.58 625.43 558.215 624.313 558.12C618.942 557.666 606.931 560.836 599.989 560.938C597.53 560.974 594.95 561.047 593.105 559.249C592.906 557.963 592.675 557.235 593.453 556.058C597.348 550.164 618.335 550.645 625.379 548.663C626.831 548.254 627.996 547.927 628.733 546.557C622.968 539.768 598.258 551.388 591.639 548.868C590.404 548.398 590.157 548.16 589.543 547.084C589.56 546.034 589.626 545.367 590.083 544.396C594.459 535.092 617.544 537.495 626.597 534.235C627.798 533.802 628.699 533.563 629.292 532.377C623.575 525.018 597.053 538.464 590.218 535.435C588.876 534.841 588.692 534.441 588.037 533.216C588.027 531.634 588.335 530.679 589.366 529.446C594.98 522.729 610.038 522.5 618.09 521.614C621.435 521.246 625.941 520.523 628.169 517.742L627.957 516.87C622.619 514.394 608.348 517.651 602.496 519.152C599.487 519.924 596.14 521.488 592.999 521.077C591.418 520.87 590.891 520.298 590.038 519.096C589.849 517.591 590.122 516.496 591.027 515.29C595.894 508.808 609.682 509.651 617.086 508.595C619.453 508.257 622.743 507.479 624.246 505.481L623.806 504.74C613.871 501.371 598.676 508.915 594.008 507.879C592.627 507.572 592.379 507.289 591.575 506.236C591.564 505.792 591.526 505.494 591.676 505.042C592.389 502.884 594.839 501.508 596.765 500.628C606.606 496.133 630.746 491.907 640.693 495.829C645.736 497.818 649.58 501.925 651.63 506.901C657.946 522.223 648.618 538.385 642.793 552.12C641.533 555.09 641.041 556.585 642.308 559.662C642.379 559.835 642.454 560.006 642.528 560.179C641.837 564.37 633.044 582.241 629.795 584.911C629.574 585.093 629.302 585.202 629.056 585.347C628.521 584.376 628.417 583.579 628.28 582.488Z"/>
	<path fill="#FEE5A3" d="M338.872 494.168C340.882 509.351 339.964 525.653 337.387 540.759C336.115 548.215 334.164 555.644 333.724 563.207C340.478 564.816 347.362 565.724 354.109 567.284C349.021 574.771 345.58 583.385 341.604 591.491C337.797 599.251 333.484 606.482 328.564 613.584C320.334 602.259 309.223 584.117 298.461 575.521C298.703 574.85 298.679 575.111 298.667 574.439C298.644 573.043 298.674 571.823 298.862 570.435C299.83 569.654 300.498 569.002 301.088 567.895C303.447 563.466 304.963 558.268 306.849 553.601C309.172 547.855 312.053 542.224 314.866 536.702C322.309 522.215 330.317 508.026 338.872 494.168Z"/>
	<path fill="#FEFEFE" d="M472.902 343.404C482.493 347.239 492.079 351.329 501.839 354.707C509.001 357.186 516.319 358.416 523.087 361.974C519.5 388.817 525.168 415.712 541.697 437.47C547.919 445.66 555.486 452.657 563.115 459.506C562.917 466.303 563.175 472.697 564.24 479.431C560.913 477.432 557.555 464.828 554.619 460.654C549.122 452.838 541.873 446.043 535.886 438.543L511.849 407.825C506.43 400.998 501.299 394.116 494.761 388.296C496.675 383.506 503.619 366.739 501.989 362.744C500.815 362.131 500.812 362.295 499.521 362.681C485.23 369.03 472.225 372.095 456.506 370.849C463.284 362.222 470.056 354.232 472.902 343.404Z"/>
	<path fill="#FEFEFE" d="M416.42 138.059C430.896 132.837 450.826 136.433 464.353 142.889C466.141 143.743 471.486 146.234 472.299 147.942C472.511 148.911 472.64 149.665 473.157 150.527C474.388 152.578 480.487 153.519 482.899 154.255C488.857 156.074 494.093 160.416 496.863 166.011C501.158 174.688 499.32 183.744 496.503 192.502L489.835 192.459L490.3 191.682C493.896 185.64 496.127 179.082 494.19 172.036C492.662 166.482 488.718 161.739 483.692 158.979C476.255 154.895 468.594 155.889 460.892 158.241C451.995 152.237 441.694 149.729 431.018 150.303C401.412 151.895 382.516 176.242 377.972 203.95C377.118 209.158 378.516 224.139 375.507 227.516L374.964 227.128C369.816 215.532 370.834 197.864 373.905 185.865C377.918 170.19 387.53 156.426 401.637 148.282C405.677 145.95 410.405 144.639 414.287 142.187C415.777 141.246 416.032 140.161 416.335 138.546C416.365 138.384 416.391 138.222 416.42 138.059Z"/>
	<path fill="#FCADCE" d="M456.506 370.849C472.225 372.095 485.23 369.03 499.521 362.681C494.203 376.605 489.622 390.721 486.687 405.346C475.103 395.525 463.981 385.42 453.467 374.456C454.399 373.315 455.403 371.796 456.506 370.849Z"/>
	<path fill="#AEEBCA" d="M558.919 450.577C525.152 421.109 516.119 372.271 537.112 332.674C558.105 293.078 603.597 273.147 646.937 284.558C685.444 294.697 713.769 327.447 718.251 367.013C722.732 406.58 702.45 444.836 667.186 463.33C631.923 481.825 588.92 476.76 558.919 450.577Z"/>
	<path fill="#FEFEFE" d="M558.919 450.577C525.152 421.109 516.119 372.271 537.112 332.674C558.105 293.078 603.597 273.147 646.937 284.558C646.508 284.814 646.121 285.16 645.65 285.326C644.244 285.82 626.635 283.961 622.725 284.132C579.88 286.005 544.047 314.336 533.649 356.225C527.663 380.336 530.549 407.136 543.554 428.506C546.626 433.495 550.124 438.208 554.009 442.593C555.545 444.348 558.245 446.552 559.399 448.489C559.604 448.834 559.568 449.273 559.653 449.666L558.919 450.577Z"/>
	<path d="M617.578 298.753C660.636 296.071 697.714 328.808 700.387 371.867C703.06 414.926 670.315 451.997 627.256 454.66C584.209 457.324 547.151 424.591 544.479 381.545C541.807 338.498 574.532 301.434 617.578 298.753Z"/>
	<path fill="#FEE5A3" d="M617.963 302.719C658.877 300.242 694.041 331.428 696.471 372.345C698.9 413.263 667.674 448.391 626.754 450.773C585.9 453.152 550.842 421.988 548.416 381.137C545.99 340.286 577.114 305.191 617.963 302.719Z"/>
	<path fill="#AEEBCA" d="M668.529 335.711C670.311 335.909 671.516 336.173 672.945 337.294C681.811 344.25 685.898 358.813 687.099 369.531C687.79 375.7 688.413 383.142 684.31 388.254C683.1 388.116 681.638 388.111 680.544 387.554C679.873 387.213 679.064 386.54 678.963 385.728C678.668 383.359 679.479 379.857 679.665 377.397C679.955 373.575 679.733 369.942 679.273 366.141C678.324 358.302 675.287 352.999 670.707 346.75C669.475 345.069 667.516 342.677 667.015 340.653C666.5 338.57 667.449 337.366 668.529 335.711Z"/>
	<path fill="#FEFEFE" d="M445.072 167.612C449.641 167.435 453.843 167.486 458.272 168.744C471.052 172.375 477.633 182.727 483.787 193.653C481.029 195.532 478.138 197.31 475.737 199.648C470.676 204.576 467.712 210.879 467.693 218.003C467.614 224.907 470.404 231.533 475.395 236.302C482.331 242.901 490.323 243.582 499.347 243.523C498.332 250.66 496.468 257.563 493.242 264.035C485.655 279.254 469.844 290.35 452.316 287.31C448.823 286.704 444.058 283.826 440.638 284.95L440.32 285.879C440.645 286.708 441.02 287.326 441.656 287.947C445.64 291.836 454.944 291.442 460.124 291.532C460.523 310.348 461.497 327.048 468.893 344.693C464.071 354.731 457.625 363.206 450.32 371.521C436.097 365.481 404.245 355.855 396.235 342.907C405.029 324.72 403.74 302.053 402.161 282.343C401.478 273.815 400.435 265.386 401.086 256.825C396.799 256.952 392.406 258.301 388.279 256.627C383.762 254.794 380.286 250.735 378.495 246.272C376.543 241.409 376.487 235.46 378.74 230.681C380.068 227.864 382.341 225.718 385.293 224.69C390.356 222.926 395.341 226.035 399.839 228.096C400.716 224.734 400.507 221.146 401.882 217.907C402.66 216.075 403.791 214.614 405.701 213.903C406.762 213.509 408.345 213.323 409.352 213.901C413.151 216.081 414.085 227.593 415.497 231.745C417.39 237.313 420.783 242.148 426.188 244.743C432.625 247.833 441.162 248.163 447.761 245.563C454.185 243.069 459.277 238.007 461.809 231.597C464.495 224.989 464.342 217.567 461.387 211.075C458.489 204.779 453.416 199.933 446.835 197.622C438.806 194.802 427.217 196.226 421.219 202.781C418.748 205.481 416.762 210.485 413.41 212.078L412.839 211.809C413.841 208.452 417.948 205.431 419.445 201.451C422.361 193.697 421.463 185.251 426.246 178.06C430.643 171.449 437.696 169.116 445.072 167.612Z"/>
	<path d="M399.966 231.863C400.405 232.056 400.85 232.237 401.276 232.457C402.613 233.145 403.224 233.813 403.649 235.241C403.129 236.461 403.009 236.636 401.942 237.421C400.422 237.307 399.988 236.703 398.809 235.776C397.408 236.287 397.255 237.273 396.565 238.539L395.738 238.711C395.341 238.408 394.688 237.823 394.197 237.635C392.989 237.171 392.573 237.357 391.43 237.761L390.977 238.746C391.814 242.158 393.858 240.973 395.843 244.348C395.252 244.946 394.675 245.335 393.955 245.767C392.962 245.813 392.159 245.801 391.245 245.39C388.588 244.192 387.028 241.181 386.226 238.521C385.776 237.029 385.862 236.143 386.567 234.776C389.65 232.695 393.323 234.204 396.752 233.985C398.555 233.87 398.825 233.115 399.966 231.863Z"/>
	<path fill="#FEFEFE" d="M473.984 556.211C484.013 555.243 494.466 555.989 504.496 556.594C508.571 561.779 512.603 566.855 515.78 572.66C502.8 575.736 489.519 576.327 476.248 577.049C450.277 578.462 424.25 578.492 398.276 577.14C384.106 576.782 369.31 576.187 355.388 573.301L357.987 567.438C397.076 571.773 435.166 558.503 473.984 556.211Z"/>
	<path fill="#FEFEFE" d="M436.171 200.224C448.101 199.012 458.737 207.745 459.869 219.683C461.002 231.621 452.197 242.198 440.252 243.251C428.419 244.293 417.963 235.59 416.842 223.764C415.72 211.939 424.353 201.425 436.171 200.224Z"/>
	<path fill="#FEFEFE" d="M490.584 196.783C502.292 195.461 512.876 203.827 514.292 215.524C515.708 227.22 507.428 237.871 495.743 239.382C483.924 240.91 473.124 232.513 471.692 220.682C470.259 208.851 478.742 198.12 490.584 196.783Z"/>
	<path fill="#FEFEFE" d="M372.866 233.532C373.45 234.587 373.485 235.397 373.628 236.569C372.565 240.299 364.941 243.505 361.661 245.605C329.205 266.379 314.685 313.827 315.327 350.598C315.44 357.062 318.593 373.124 317.489 377.481C317.192 378.653 316.987 378.721 316.015 379.316L314.894 378.888C306.394 348.274 308.286 312.945 321.183 283.882C331.628 260.345 348.728 242.73 372.866 233.532Z"/>
	<path fill="#FEFEFE" d="M566.982 462.721C570.937 464.249 574.787 466.495 578.614 468.345C584.985 471.424 591.212 473.873 598 475.88C597.824 481.405 598.662 490.063 597.412 495.222C597.108 496.476 595.216 496.893 594.168 497.366C592.803 498.46 591.423 499.536 590.028 500.591C585.18 500.349 580.605 500.262 575.821 501.206C570.465 488.406 567.286 476.668 566.982 462.721Z"/>
	<path fill="#FEFEFE" d="M481.335 283.89C492.521 290.711 507.491 314.922 513.252 326.806C516.528 333.562 519.188 340.498 521.035 347.777L515.164 349.438C514.307 349.729 513.579 349.781 512.678 349.819C510.758 347.178 510.037 340.736 508.984 337.448C507.937 334.152 506.655 330.936 505.147 327.824C497.848 312.728 486.542 300.212 476.204 287.173C477.875 286.027 479.623 284.976 481.335 283.89Z"/>
	<path fill="#AEEBCA" d="M922.915 622.352C940.48 623.692 960.961 622.13 979.027 622.704C979.801 653.561 979.453 684.532 979.452 715.4L979.483 874.075C973.923 875.026 967.395 874.239 961.71 874.206L923.013 874.027L922.915 622.352Z"/>
	<path fill="#B2B0FE" d="M887.579 673.758C888.837 673.764 889.062 673.619 890.184 674.291C890.832 675.781 890.867 677.455 890.887 679.062C890.939 683.276 890.52 687.499 890.505 691.716L890.542 729.279L890.523 874.091L840.19 873.956C838.71 874.015 837.044 874.355 835.792 873.429C834.473 869.086 835.251 860.453 835.209 855.707C835.096 839.492 835.077 823.276 835.153 807.06C835.259 762.77 834.539 718.315 835.538 674.047C852.787 673.304 870.297 673.849 887.579 673.758Z"/>
	<path d="M158.334 54.8213C176.381 52.2816 193.081 64.8222 195.675 82.8616C198.268 100.901 185.778 117.639 167.746 120.286C149.638 122.945 132.814 110.39 130.21 92.2739C127.605 74.1579 140.21 57.3717 158.334 54.8213ZM166.246 116.439C182.052 114.643 193.456 100.443 191.796 84.6225C190.137 68.802 176.035 57.2767 160.201 58.8002C144.173 60.3422 132.476 74.6545 134.156 90.6683C135.835 106.682 150.248 118.256 166.246 116.439Z"/>
	<path d="M281.836 1010.74C295.55 1011.02 309.269 1010.95 322.979 1010.51C326.948 1010.39 333.683 1009.62 336.707 1012.47C336.376 1013.67 336.436 1013.41 335.507 1014.05C327.923 1014.23 286.219 1015.49 281.971 1013.42C281.152 1013.02 281.456 1013.25 281.106 1012.24L281.836 1010.74Z"/>
	<path d="M190.705 1010.22C196.288 1010.13 206.708 1008.82 211.605 1011.42C212.523 1011.91 212.349 1011.95 212.669 1012.83C210.736 1014.75 204.895 1014.12 202.125 1014.16C195.817 1014.16 187.392 1015.27 181.37 1013.77C180.199 1013.48 179.303 1013.34 178.66 1012.26C178.748 1012.15 178.822 1012.04 178.923 1011.95C181.265 1009.83 187.657 1010.31 190.705 1010.22Z"/>
	<path fill="#FEFEFE" d="M605.349 138.781C614.506 100.69 635.171 70.5523 668.68 49.9392C699.688 30.8643 738.187 25.8978 773.357 34.3088C808.764 43.0386 839.321 65.3374 858.436 96.3949C877.807 128.053 882.179 167.652 873.374 203.413C864.923 237.738 841.395 268.896 811.203 287.126C780.373 305.528 743.478 310.879 708.69 301.994C706.822 301.523 704.84 301.089 703.075 300.305C702.576 299.243 702.596 298.164 702.536 297.014C671.942 288.049 645.54 268.48 628.063 241.816C627.768 241.783 626.613 241.662 626.31 241.592C624.242 241.118 622.927 239.221 621.764 237.577C618.708 233.255 616.573 227.992 614.357 223.199C601.759 195.943 600.286 167.984 605.349 138.781Z"/>
	<path d="M605.349 138.781C614.506 100.69 635.171 70.5523 668.68 49.9392C699.688 30.8643 738.187 25.8978 773.357 34.3088C808.764 43.0386 839.321 65.3374 858.436 96.3949C877.807 128.053 882.179 167.652 873.374 203.413C864.923 237.738 841.395 268.896 811.203 287.126C780.373 305.528 743.478 310.879 708.69 301.994C706.822 301.523 704.84 301.089 703.075 300.305C702.576 299.243 702.596 298.164 702.536 297.014C764.921 315.295 831.436 286.216 860.38 228.006C889.325 169.797 872.368 99.2117 820.141 60.5022C767.914 21.7927 695.448 26.1004 648.175 70.7246C600.902 115.349 592.427 187.446 628.063 241.816C627.768 241.783 626.613 241.662 626.31 241.592C624.242 241.118 622.927 239.221 621.764 237.577C618.708 233.255 616.573 227.992 614.357 223.199C601.759 195.943 600.286 167.984 605.349 138.781Z"/>
	<path d="M802.339 135.741C820.46 133.136 837.261 145.718 839.859 163.841C842.456 181.963 829.867 198.759 811.743 201.349C793.631 203.938 776.847 191.357 774.25 173.246C771.654 155.134 784.228 138.345 802.339 135.741Z"/>
	<path fill="#FEFEFE" d="M802.938 144.782C816.061 142.522 828.527 151.344 830.76 164.472C832.992 177.6 824.143 190.048 811.01 192.252C797.917 194.45 785.515 185.634 783.289 172.545C781.063 159.456 789.853 147.036 802.938 144.782Z"/>
	<path d="M713.202 137.549C727.618 137.528 742.035 137.582 756.451 137.711L756.51 145.49C745.341 145.509 734.173 145.636 723.007 145.872L723.007 164.028L752.508 164.004L752.497 172.443L723.004 172.486L722.986 191.633L758.569 191.92L758.617 199.924C743.575 200.03 728.533 200.057 713.491 200.007L713.202 137.549Z"/>
	<path d="M669.994 137.208C678.108 137.346 684.695 139.063 692.16 142.138L688.955 150.056C683.762 147.838 678.544 145.893 672.867 145.441C668.504 145.093 663.367 145.362 659.967 148.485C658.175 150.13 657.253 152.869 657.304 155.265C657.501 164.437 683.18 165.926 690.327 173.003C692.957 175.608 694.125 178.925 694.049 182.596C693.95 187.323 692.174 191.912 688.591 195.077C682.861 200.137 674.641 200.661 667.376 200.29C659.445 199.624 652.806 197.334 645.893 193.479L649.233 184.915C655.901 189.222 664.614 192.723 672.68 192.36C676.053 192.208 680.011 191.307 682.247 188.555C683.43 187.1 684.158 185.047 683.889 183.163C682.481 173.285 659.546 172.517 651.655 165.97C649.178 163.916 647.422 161.311 647.192 158.037C646.893 153.796 648.889 147.328 651.711 144.066C656.204 138.873 663.544 137.77 669.994 137.208Z"/>
	<path fill="#B2B0FE" d="M827.407 308.857C837.389 308.826 847.469 308.464 857.439 308.705C858.675 315.694 859.86 322.683 861.504 329.589C867.528 332.06 873.589 334.453 879.441 337.314C885.907 333.698 891.917 329.34 898.345 325.702C905.222 331.685 912.798 338.606 918.131 346.001C914.956 352.397 911.256 358.552 907.817 364.811C910.706 371.296 913.672 377.762 916.341 384.341C923.718 385.846 931.173 387.236 938.474 389.081C938.143 399.322 937.981 409.567 937.989 419.813C930.754 421.443 923.463 422.85 916.248 424.56C913.849 431.029 911.236 437.417 908.413 443.712C911.937 449.766 915.602 455.761 919.045 461.858C912.68 468.509 906.244 475.093 899.74 481.608C893.006 477.948 885.953 474.496 879.446 470.469C874.333 472.795 868.82 475.116 864.255 478.427C862.173 485.193 861.054 492.179 859.367 499.043C849.007 499.399 838.637 499.396 828.277 499.035C826.353 491.865 825.37 484.411 823.179 477.339C817.273 475.563 811.263 473.649 805.635 471.109C800.211 474.955 794.656 478.75 788.838 481.979C784.778 478.63 780.758 475.209 776.564 472.028C774.626 468.591 768.96 463.797 766.063 460.773C768.259 456.968 770.618 453.185 772.422 449.175C773.883 447.472 775.016 445.693 776.186 443.787C774.993 440.445 773.562 437.198 772.169 433.935C771.609 431.145 770.607 428.472 769.682 425.786C761.502 424.125 753.371 422.457 745.048 421.686C744.656 416.811 744.525 411.961 744.43 407.075C744.552 400.176 744.72 393.222 745.43 386.354C753.101 385.004 760.756 383.567 768.394 382.043C770.699 377.079 773.143 372.259 775.774 367.46C771.817 360.501 766.454 354.318 762.862 347.19C770.384 339.626 777.66 331.688 785.426 324.384C791.642 328.791 797.853 333.346 804.678 336.778C810.159 334.206 815.839 332.229 821.357 329.785C823.424 322.857 825.074 315.681 827.407 308.857ZM847.239 436.633C865.277 434.103 877.899 417.5 875.513 399.443C873.127 381.386 856.625 368.632 838.55 370.875C820.27 373.143 807.341 389.872 809.754 408.133C812.167 426.394 828.998 439.191 847.239 436.633Z"/>
	<path d="M837.496 367.218C857.854 364.344 876.653 378.609 879.364 398.989C882.075 419.368 867.659 438.053 847.259 440.6C827.088 443.12 808.66 428.902 805.979 408.752C803.299 388.602 817.369 370.06 837.496 367.218ZM847.239 436.633C865.277 434.103 877.899 417.5 875.513 399.443C873.127 381.386 856.625 368.632 838.55 370.875C820.27 373.143 807.341 389.872 809.754 408.133C812.167 426.394 828.998 439.191 847.239 436.633Z"/>
	<path fill="#AEEBCA" d="M746.218 673.886C758.065 673.578 769.938 673.77 781.789 673.801C787.48 673.816 793.405 674.113 799.076 673.666L799.408 800.773L799.117 844.055C799.036 854.006 798.731 864.098 799.44 874.026C781.299 874.038 763.039 874.495 744.915 874.034L744.659 747.616L744.53 704.711C744.481 697.7 744.773 690.462 744.269 683.476C744.209 681.233 743.971 678.657 744.387 676.461C744.654 675.051 745.083 674.691 746.218 673.886Z"/>
	<path d="M533.243 1010.05C533.505 1010.11 533.765 1010.18 534.028 1010.24C536.372 1010.77 539.824 1009.63 541.11 1012.26C541.278 1012.6 541.417 1013.23 541.511 1013.62C541.355 1013.66 541.201 1013.7 541.043 1013.73C534.25 1015.08 515.524 1013.97 507.429 1014.08C480.654 1014.39 453.877 1014.42 427.101 1014.18C414.389 1014.16 401.578 1014.81 388.883 1014.38C386.386 1014.3 382.633 1014.31 380.554 1012.91L380.86 1012.08C382.512 1011.14 384.062 1010.66 385.97 1010.48C389.768 1010.13 393.909 1010.52 397.75 1010.52L423.422 1010.51L491.332 1010.48C505.294 1010.46 519.295 1010.74 533.243 1010.05Z"/>
	<path d="M613.957 1010.12C619.246 1009.63 624.734 1010.04 630.053 1010.1L655.062 1010.18L696.908 1010.27C703.478 1010.33 710.216 1010.14 716.759 1010.59C718.994 1010.74 721.849 1010.93 723.795 1012.08L723.684 1012.83C721.611 1013.77 719.447 1014.04 717.193 1014.15C711.316 1014.41 705.374 1014.16 699.488 1014.21C676.776 1014.43 654.064 1014.01 631.35 1014.03L598.172 1014.22C592.388 1014.25 586.027 1014.85 580.349 1013.87C580.264 1013.01 580.259 1012.17 580.253 1011.31C582.671 1009.26 608.316 1010.92 613.957 1010.12Z"/>
</svg>
