<?xml version="1.0" encoding="utf-8" ?>
<svg xmlns="http://www.w3.org/2000/svg" xmlns:xlink="http://www.w3.org/1999/xlink" width="1024" height="1024">
	<path fill="#E9EBFC" d="M496.983 73.0821C508.11 70.4744 533.564 73.0678 545.7 74.138C595.445 78.5247 649.664 89.3876 694.89 111.075C709.351 118.01 723.44 125.836 737.375 133.767C742.639 136.762 747.738 140.111 753.08 142.952C762.302 140.826 771.296 140.524 779.637 145.704C783.364 148.019 786.539 151.189 789.098 154.741C797.062 152.45 804.707 152.381 812.203 156.521C822.245 162.067 830.203 172.412 833.254 183.436C834.964 189.614 835.248 196.031 833.597 202.259C833.07 204.246 832.212 206.13 831.809 208.146C878.921 254.434 914.682 306.267 939.398 367.719C947.436 387.704 954.447 408.465 959.408 429.442C963.971 448.741 966.901 468.154 969.157 487.838C970.129 496.323 975.895 498.122 975.988 509.199C976.108 523.545 975.372 537.982 974.63 552.307C970.455 632.906 954.651 690.867 922.488 764.473C937.933 773.884 949.671 784.403 954.106 802.659C957.594 816.757 955.23 831.667 947.552 843.995C944.535 848.852 940.726 853.015 936.425 856.762C930.507 861.917 923.964 866.377 917.572 870.916L885.753 893.05C875.762 899.966 866.131 907.92 855.619 914.002C850.757 916.815 845.742 919.059 840.252 920.313C826.936 923.354 815.165 922.192 802.526 917.352C797.782 923.187 790.355 928.18 784.214 932.453C747.439 958.037 704.907 977.294 662.551 991.487C652.748 994.771 641.887 998.719 631.602 999.933C631.041 999.999 630.477 1000.03 629.914 1000.07C593.813 1015.88 545.197 1018.93 506.67 1013.57C506.365 1017.04 506.101 1020.52 505.879 1024L32.2907 1024C31.5932 1020.04 31.9532 1017.34 32.9538 1013.5C34.6969 1006.81 37.3803 1000.34 39.7711 993.867L50.423 964.862C61.8231 933.728 72.8575 902.371 85.6511 871.777C78.0954 866.502 70.4792 861.314 62.804 856.215C52.8902 849.645 42.0134 843.436 34.0438 834.473C23.3548 822.451 22.4664 812.878 21.0121 797.463C20.4257 791.248 19.6892 784.962 20.0833 778.714C20.8849 766.006 27.7377 754.247 37.193 745.944C50.3778 734.365 66.2675 731.549 83.2993 732.695C78.0851 720.121 73.8844 706.86 69.9312 693.849C58.5339 656.335 51.9563 623.51 47.6477 584.407C46.5211 574.182 44.1662 562.682 46.2849 552.531C45.6033 550.096 44.8399 547.63 44.3488 545.15C43.776 542.257 43.9688 540.139 45.6048 537.671C42.5754 492.364 57.9257 420.428 73.7637 378.657C76.4385 371.603 80.0159 364.779 83.1763 357.924C78.1676 350.345 63.5648 333.531 65.2145 324.252C65.5833 322.178 66.7132 320.772 68.2313 319.385C74.7974 313.389 83.1901 308.515 90.5102 303.409C101.887 295.473 113.098 287.251 124.522 279.401C124.548 278.843 124.59 278.285 124.657 277.731C125.549 270.336 161.529 230.42 168.834 222.61C178.024 212.786 187.597 203.077 197.391 193.853C206.568 185.209 216.412 177.342 226.229 169.453L225.78 168.874C221.629 163.416 219.757 157.614 220.902 150.743C222.141 143.311 226.955 136.429 233.133 132.227C239.085 128.177 246.881 126.166 253.99 127.616C260.581 128.959 265.145 132.832 268.814 138.246C282.607 130.752 295.779 122.171 310 115.443C352.684 95.2469 430.214 70.9375 477.49 74.1872C484.194 72.6235 490.141 72.1774 496.983 73.0821ZM247.704 1020.99C253.474 1009.46 260.306 998.461 266.595 987.216C280.687 962.168 294.62 937.031 308.392 911.805C315.267 899.342 322.723 886.99 329.099 874.278C324.044 864.927 318.3 855.86 312.83 846.743L286.8 803.243C282.655 796.313 268.069 774.268 267.019 768.082C265.637 761.777 256.26 746.18 252.786 739.417C240.84 716.356 230.182 692.649 220.859 668.408C218.591 662.682 214.6 654.769 214.173 648.678C197.644 655.608 183.614 658.346 165.677 657.964C157.795 668.744 152.184 680.8 146.303 692.733C140.441 704.626 134.538 716.516 129.419 728.753C131.647 737.067 134.431 753.823 139.369 760.247C141.545 763.077 144.676 765.036 147.727 766.794C159.459 773.554 170.797 780.594 182.321 787.694C203.666 800.843 226.157 812.758 233.149 838.878C237.695 855.862 235.641 873.71 226.764 888.939C218.532 903.081 204.98 913.336 189.133 917.415C173.474 921.478 158.103 919.386 144.236 911.133C131.782 903.72 119.813 895.228 107.914 886.953C101.796 882.697 95.7361 878.106 89.2762 874.393C89.1456 874.317 89.0165 874.24 88.8867 874.163C76.8503 900.693 67.6729 928.946 57.4655 956.243C49.5247 977.478 39.6716 998.81 34.433 1020.88L186.393 1020.89C206.818 1020.91 227.286 1020.59 247.704 1020.99ZM266.323 140.559C265.025 136.896 261.438 134.043 258.055 132.367C252.737 129.734 246.71 129.749 241.161 131.656C234.058 134.118 228.289 139.411 225.226 146.277C223.037 151.162 222.477 156.636 224.582 161.66C225.501 163.854 226.911 165.847 228.498 167.604C239.109 156.416 252.976 148.004 266.323 140.559ZM512.251 402.827C536.755 401.218 555.3 380.026 553.644 355.525C551.988 331.024 530.759 312.52 506.262 314.223C481.831 315.922 463.389 337.08 465.04 361.514C466.692 385.947 487.814 404.431 512.251 402.827Z"/>
	<path d="M200.323 519.857C194.288 497.094 197.508 460.884 209.553 440.286C218.493 424.999 233.846 413.8 249.816 406.723C254.559 404.621 260.86 403.107 265.19 400.399C270.602 397.015 272.94 391.105 279.762 389.304C288.614 386.966 324.127 391.377 331.993 396.081C336.179 398.585 339.942 402.939 342.892 406.77C353.828 404.463 366.967 404.37 376.581 410.881C381.074 413.923 384.281 418.292 385.219 423.691C387.485 436.732 377.613 443.61 375.048 455.061C372.499 466.442 372.303 479.116 372.329 490.748C372.359 496.397 373.413 501.993 375.44 507.265C378.126 514.37 387.854 526.642 382.604 533.769C379.313 538.236 373.28 541.014 368.383 543.336C364.039 559.602 355.883 577.548 340.709 586.429C333.588 590.597 326.028 591.463 317.923 591.485C316.845 601.025 315.468 610.669 314.786 620.24C327.414 622.556 338.878 626.568 350.864 631.002C364.189 625.383 390.693 613.214 401.223 604.875C408.524 599.093 412.541 589.378 417.649 581.702C421.258 576.322 425.24 571.201 429.565 566.377C434.983 560.313 440.987 554.8 447.489 549.918C454.345 544.747 462.95 540.248 468.175 533.276C470.896 529.644 472.65 525.069 474.445 520.935C476.92 515.232 481.439 501.018 490.129 504.616C496.168 507.115 500.694 515.681 503.41 521.296C512.165 504.086 519.885 486.187 527.826 468.58C533.151 456.771 537.492 443.06 545.868 433.04C549.174 429.086 553.186 426.973 558.045 425.393C562.804 423.845 568.39 423.493 573.251 424.898C580.595 427.022 587.865 430.824 594.776 434.068L622.959 447.326C653.001 461.465 683.478 475.035 712.94 490.358C721.532 494.826 728.913 498.914 732.118 508.822C733.709 513.665 733.899 518.86 732.665 523.806C729.736 535.6 722.878 547.212 717.578 558.162C708.653 576.218 699.954 594.385 691.483 612.659C695.615 619.003 698.104 625.736 696.535 633.42C695.096 640.464 690.364 646.026 684.417 649.795C682.763 650.843 681.009 651.741 679.273 652.644C681.565 659.427 682.543 665.429 682.528 672.585C688.79 666.328 697.488 660.359 706.788 660.495C708.917 660.526 711.511 661.295 712.91 663.011C714.307 664.724 714.24 667.459 713.911 669.533C712.845 676.253 709.715 682.19 709.037 689.165C706.947 710.654 713.681 731.846 713.997 753.139C714.313 774.499 709.709 795.613 708.672 816.912C708.238 825.836 708.496 834.83 708.383 843.765C707.868 884.5 706.004 927.295 679.836 960.84C672.587 970.131 663.555 979.146 653.826 985.841C646.18 991.101 637.492 994.828 629.914 1000.07C593.813 1015.88 545.197 1018.93 506.67 1013.57C506.365 1017.04 506.101 1020.52 505.879 1024L32.2907 1024C31.5932 1020.04 31.9532 1017.34 32.9538 1013.5C34.6969 1006.81 37.3803 1000.34 39.7711 993.867L50.423 964.862C61.8231 933.728 72.8575 902.371 85.6511 871.777C78.0954 866.502 70.4792 861.314 62.804 856.215C52.8902 849.645 42.0134 843.436 34.0438 834.473C23.3548 822.451 22.4664 812.878 21.0121 797.463C20.4257 791.248 19.6892 784.962 20.0833 778.714C20.8849 766.006 27.7377 754.247 37.193 745.944C50.3778 734.365 66.2675 731.549 83.2993 732.695C91.784 735.389 99.2557 738.997 107.15 743.038C111.519 735.518 117.461 719.672 123.991 714.716C124.95 714.696 124.887 714.47 125.442 715.112C126.961 716.867 127.443 720.307 127.962 722.529C138.732 699.999 148.391 677.59 162.361 656.751C150.528 648.09 147.172 635.891 144.955 621.88C141.108 597.571 145.416 572.553 160.05 552.417C169.891 538.876 184.756 526.252 200.323 519.857ZM129.419 728.753C131.647 737.067 134.431 753.823 139.369 760.247C141.545 763.077 144.676 765.036 147.727 766.794C159.459 773.554 170.797 780.594 182.321 787.694C203.666 800.843 226.157 812.758 233.149 838.878C237.695 855.862 235.641 873.71 226.764 888.939C218.532 903.081 204.98 913.336 189.133 917.415C173.474 921.478 158.103 919.386 144.236 911.133C131.782 903.72 119.813 895.228 107.914 886.953C101.796 882.697 95.7361 878.106 89.2762 874.393C89.1456 874.317 89.0165 874.24 88.8867 874.163C76.8503 900.693 67.6729 928.946 57.4655 956.243C49.5247 977.478 39.6716 998.81 34.433 1020.88L186.393 1020.89C206.818 1020.91 227.286 1020.59 247.704 1020.99C253.474 1009.46 260.306 998.461 266.595 987.216C280.687 962.168 294.62 937.031 308.392 911.805C315.267 899.342 322.723 886.99 329.099 874.278C324.044 864.927 318.3 855.86 312.83 846.743L286.8 803.243C282.655 796.313 268.069 774.268 267.019 768.082C265.637 761.777 256.26 746.18 252.786 739.417C240.84 716.356 230.182 692.649 220.859 668.408C218.591 662.682 214.6 654.769 214.173 648.678C197.644 655.608 183.614 658.346 165.677 657.964C157.795 668.744 152.184 680.8 146.303 692.733C140.441 704.626 134.538 716.516 129.419 728.753Z"/>
	<path fill="#FEFEFE" d="M214.173 648.678C221.388 644.831 229.004 641.68 236.04 637.502C241.827 634.066 246.713 629.073 253.007 626.551C265.66 621.481 294.613 621.474 308.453 622.996C316.691 623.917 324.824 625.604 332.748 628.036C366.375 638.309 391.564 659.535 407.917 690.521C413.818 701.703 419.07 713.271 424.618 724.634L456.816 790.326L473.617 824.158C477.204 831.288 481.489 838.492 483.941 846.104C475.224 846.094 466.507 846.021 457.79 845.888C438.17 845.687 420.439 846.472 405.593 861.087C395.58 870.942 389.412 885.31 389.453 899.389C389.49 912.089 394.588 925.711 403.761 934.636C409.487 940.207 416.702 943.639 424.496 945.194C434.075 947.104 444.128 946.525 453.846 946.426C462.653 946.349 471.46 946.321 480.267 946.341C509.114 946.334 538.139 947.09 566.969 946.48C582.545 946.151 596.596 942.668 607.623 930.987C617.016 921.19 622.114 908.052 621.787 894.484C621.363 880.159 614.692 866.705 604.195 857.093C599.442 852.74 581.16 845.969 580.304 844.384C580.985 841.587 585.912 838.348 587.968 836.103C592.446 831.215 595.294 825.473 598.021 819.492C633.667 820.438 669.408 818.891 705.011 820.14C704.943 833.918 704.649 847.694 704.128 861.463C702.813 904.56 698.807 938.367 666.417 970.796C634.555 1002.7 588.619 1012.47 545.003 1012.26C529.147 1012.12 513.313 1011.04 497.583 1009.04C456.835 1004.04 436.356 995.278 407.476 966.011C397.853 956.258 388.988 945.718 380.146 935.259C362.095 913.903 344.942 891.98 329.716 868.499C310.637 839.076 293.655 808.077 275.756 777.913C274.264 775.398 270.699 768.219 268.046 767.653L267.019 768.082C265.637 761.777 256.26 746.18 252.786 739.417C240.84 716.356 230.182 692.649 220.859 668.408C218.591 662.682 214.6 654.769 214.173 648.678Z"/>
	<path fill="#FEFEFE" d="M566.134 438.559C566.272 438.554 566.411 438.543 566.549 438.545C575.237 438.68 595.959 448.473 602.183 454.748C601.163 457.577 599.17 459.85 597.937 462.566C597.338 463.886 596.852 466.117 597.626 467.459C598.69 469.305 602.387 471.167 604.297 472.189C614.013 477.388 624.524 481.605 634.518 486.28C645.791 491.553 656.899 497.508 668.588 501.806C669.756 501.479 670.931 501.154 672.074 500.745C677.117 498.943 678.998 495.273 681.226 490.771C687.454 493.145 693.579 496.059 699.609 498.896C705.817 501.816 715.837 505.729 718.073 512.856C719.707 518.062 717.289 524.047 715.394 528.87C708.914 545.36 700.453 561.184 693.052 577.286L645.928 679.934L606.696 767.051C599.262 783.654 592.453 800.526 583.949 816.622C582.219 819.033 580.34 821.343 578.019 823.217C572.56 827.623 566.875 827.309 560.333 826.694C558.639 823.055 557.049 818.373 553.622 816.054C547.081 811.627 538.167 809.9 530.969 806.613C504.378 794.47 478.154 781.205 451.073 770.191C447.407 763.88 444.387 757.092 441.191 750.529L425.392 718.135C431.502 705.057 438.326 692.245 444.672 679.272L479.318 606.703C486.18 592.357 493.469 578.204 500.095 563.748L536.404 483.741C541.813 471.774 546.249 458.85 552.84 447.503C556.073 441.937 560.104 440.114 566.134 438.559Z"/>
	<path d="M539.503 544.083C542.688 543.867 545.759 544.012 548.807 545.024C554.397 546.879 559.875 549.791 565.236 552.247L594.05 565.469L624.297 579.249C630.371 582.016 636.671 584.589 642.448 587.932C647.826 591.045 650.515 595.09 652.012 601.017C652.733 603.869 652.743 606.738 651.988 609.581C648.88 621.291 642.285 632.369 637.188 643.326C633 652.329 629.567 661.751 624.49 670.316C620.777 676.581 615.521 678.643 608.812 680.341C604.239 680.446 600.207 679.182 595.96 677.627C588.894 675.038 582.041 671.59 575.196 668.47L541.086 652.904C533.947 649.634 526.788 646.404 519.612 643.215C515.114 641.203 510.2 639.315 506 636.748C500.775 633.554 497.38 629.235 496.014 623.232C495.297 620.081 495.399 616.968 496.222 613.849C498.497 605.232 503.163 597.167 506.818 589.085C511.84 577.981 516.231 566.023 522.656 555.631C526.681 549.12 532.237 545.776 539.503 544.083Z"/>
	<path fill="#FE766A" d="M538.256 547.561C544.394 547.026 548.976 548.699 554.546 551.025C566.489 556.012 578.038 562.259 589.874 567.573C601.883 572.897 613.86 578.293 625.804 583.762C631.089 586.207 637.278 588.545 642.074 591.848C644.711 593.664 646.797 596.032 647.936 599.037C649.09 602.08 649.149 605.334 648.488 608.499C646.355 618.71 640.038 629.145 635.55 638.593C632.666 644.664 630.043 650.856 627.227 656.958C622.578 667.029 620.656 672.565 609.526 676.66C604.1 677.216 598.65 675.037 593.673 673.116C579.417 667.615 565.829 660.387 551.904 654.111C538.088 647.885 521.455 641.76 508.604 634.011C505.735 632.28 501.769 629.673 500.495 626.522C499.139 623.124 498.775 619.411 499.447 615.814C501.151 606.67 506.907 597.533 510.799 589.08C514.118 581.873 517.101 574.514 520.405 567.301C524.956 557.366 527.461 551.595 538.256 547.561Z"/>
	<path d="M568.326 580.996C570.053 581.158 571.754 581.417 573.08 582.628C578.206 587.31 599.12 618.499 598.558 624.752C598.452 625.942 597.918 626.823 597.031 627.612C592.537 631.609 580.97 630.062 575.243 629.902C568.662 630.006 553.272 631.533 547.553 628.409C546.292 627.72 545.625 626.796 545.258 625.411C543.721 619.62 555.856 596.226 559.064 590.256C561.363 585.976 563.453 582.454 568.326 580.996Z"/>
	<path fill="#FEFEFE" d="M567.754 584.953C568.596 584.952 569.637 584.868 570.396 585.323C575.583 588.427 592.764 617.695 595.293 624.38C589.2 626.514 583.176 626.137 576.851 626.01C571.931 626.089 552.388 627.302 549.487 624.573C549.317 623.839 549.262 623.209 549.368 622.458C550.363 615.355 562.489 588.947 567.754 584.953Z"/>
	<path fill="#545ED7" d="M331.267 877.783C336.591 882.482 342.03 892.28 346.231 898.256C351.379 905.58 356.756 912.605 362.381 919.565C371.036 930.238 379.985 940.669 389.216 950.847C408.415 972.226 428.663 993.733 456.34 1003.84C471.239 1009.28 487.361 1011.04 503.047 1012.71L502.832 1021.59C476.644 1021.28 450.44 1021.45 424.25 1021.45L251.815 1021.05L331.267 877.783Z"/>
	<path fill="#FEFEFE" d="M370.006 457.91L370.486 458.323C371.572 461.071 370.878 464.189 370.324 466.994C369.39 467.267 369.774 467.176 368.81 467.372L368.129 467.507C365.815 469.886 365.725 477.084 365.275 480.503C364.826 483.916 364.373 487.406 363.395 490.716C360.946 499.013 356.715 506.835 357.331 515.747C358.093 526.761 366.5 532.421 364.398 544.85C362.111 558.375 352.338 574.039 341.157 582C333.375 587.542 319.001 590.989 310.39 585.533C307.04 583.41 304.067 579.522 300.007 578.821L299.215 579.612L299.309 580.726C302.146 585.41 309.769 588.633 314.484 590.903L311.37 619.6C302.267 619.164 293.219 618.838 284.103 618.991C274.225 619.202 264.544 620.803 254.833 622.475C268.404 602.647 279.2 581.881 281.881 557.614C282.558 551.491 280.848 545.326 281.783 539.197C282.635 533.611 284.837 528.162 286.327 522.722C287.588 518.119 288.107 513.4 288.65 508.672C302.925 497.964 312.456 485.509 319.476 469.152C322.637 469.912 325.802 470.643 329.025 471.091C344.476 473.239 357.945 467.01 370.006 457.91Z"/>
	<path d="M330.458 539.151C334.917 540.531 337.583 544.78 342.089 546.462C346.659 548.167 352.159 546.711 357.078 547.937L357.418 548.643C356.834 549.767 356.626 550.042 355.388 550.585C351.135 552.454 342.504 550.359 338.454 548.444C337.554 548.018 337.136 547.813 336.132 547.622C336.138 549.173 336.827 550.55 337.36 551.994C339.421 556.395 341.255 557.737 345.18 560.374C346.45 561.228 348.256 562.211 348.562 563.759C348.169 563.976 347.905 564.16 347.427 564.224C344.794 564.575 341.365 562.621 339.512 560.943C333.805 555.776 331.035 546.617 330.458 539.151Z"/>
	<path d="M337.048 492.328C337.641 492.361 338.235 492.396 338.823 492.483C340.551 492.739 342.043 493.786 343.053 495.192C344.657 497.424 345.009 500.106 344.479 502.762C343.88 505.755 342.456 507.438 340.006 509.146C337.758 509.092 336.041 508.827 334.392 507.161C332.984 505.739 332.408 503.814 332.441 501.847C332.509 497.873 334.242 494.998 337.048 492.328Z"/>
	<path d="M343.235 472.2C345.805 471.919 348.525 471.918 351.105 472.058C354.68 472.253 358.946 473.288 361.407 476.05L361.114 476.583C357.472 476.782 353.728 476.266 350.097 475.949C343.14 475.953 336.343 477.368 329.357 477.004C333.962 473.602 337.667 472.678 343.235 472.2Z"/>
	<path d="M329.904 531.208C330.7 531.289 331.463 531.499 332.241 531.679L332.711 532.486C332.066 534.271 330.026 535.618 328.617 536.835C327.826 537.412 327.481 537.635 326.492 537.635L326.42 536.55C327.347 534.436 328.371 532.93 329.904 531.208Z"/>
	<path fill="#FEFEFE" d="M702.378 664.551C704.13 664.45 705.994 664.446 707.737 664.659C709.055 664.819 710.048 665.192 710.918 666.227C710.634 668.83 709.384 671.677 708.59 674.189C707.021 679.156 705.797 684.17 705.47 689.394C704.778 700.442 705.721 712.473 707.222 723.435C708.424 732.216 710.078 741.012 710.479 749.875C710.964 760.607 709.628 771.33 708.547 781.988L704.987 816.499L641.499 816.519C627.489 816.562 613.581 817.213 599.591 816.098C601.474 809.628 605.018 803.405 607.992 797.38C612.784 787.177 617.148 776.748 622.141 766.645C626.965 768.016 631.461 768.933 636.497 768.366C645.223 767.383 653.271 762.352 658.692 755.554C663.571 749.435 666.72 741.262 665.644 733.37C664.877 727.742 662.028 722.039 657.412 718.598C653.095 715.379 649.163 715.18 644.102 715.937C647.873 707.896 652.95 701.975 658.751 695.324C664.612 693.936 669.294 692.406 674.505 689.331C674.248 694.058 673.615 700.733 675.516 705.155C675.982 706.239 675.952 706.293 677.099 706.705C677.481 706.438 678.007 706.305 678.245 705.904C679.144 704.394 677.397 693.479 677.72 690.599C678.108 687.132 679.63 683.393 681.312 680.336C685.944 671.916 693.364 667.245 702.378 664.551Z"/>
	<defs>
		<linearGradient id="gradient_0" gradientUnits="userSpaceOnUse" x1="577.89252" y1="423.71564" x2="686.86108" y2="808.45996">
			<stop offset="0" stop-color="#E0E3FF"/>
			<stop offset="1" stop-color="white"/>
		</linearGradient>
	</defs>
	<path fill="url(#gradient_0)" d="M561.839 427.577C564.492 427.437 567.095 427.331 569.736 427.726C581.901 429.541 594.376 437.763 605.472 442.979C623.725 451.399 641.907 459.969 660.017 468.691C679.286 477.87 699.309 485.913 717.817 496.586C721.111 498.485 723.763 500.359 726.015 503.513C729.748 508.741 730.993 515.424 729.761 521.691C727.839 531.469 713.342 559.377 708.47 569.504C696.661 593.884 685.087 618.379 673.751 642.983C654.692 684.887 635.856 726.891 617.243 768.995L600.758 805.505C597.172 813.455 593.827 821.637 589.542 829.241C586.452 834.725 580.847 838.22 575.713 841.541C572.235 838.244 568.932 834.796 565.622 831.332C568.141 831.124 570.645 830.752 573.029 829.883C577.888 828.112 581.699 825.038 584.701 820.871C592.306 810.312 596.708 797.095 602.038 785.266L628.057 727.793L694.547 581.658C698.875 572.141 703.265 562.652 707.716 553.192C712.528 543.087 718.798 532.646 721.006 521.576C721.983 516.674 721.545 510.987 718.578 506.805C714.961 501.709 687.474 488.819 681.128 487.87C677.097 489.094 677.281 492.697 674.987 495.632C674.077 496.795 672.724 497.409 671.287 497.593C668.317 497.973 664.909 496.764 662.151 495.706C653.084 492.225 644.675 487.213 635.901 483.085C626.841 478.823 610.762 473.596 603.509 467.832C597.517 463.069 606.614 458.583 605.485 453.302C604.914 450.636 600.398 448.455 598.171 447.206C588.464 441.76 571.991 433.017 560.844 436.488C556.715 437.774 553.182 440.882 550.732 444.384C545.079 452.467 541.765 463.558 537.703 472.608L519.142 513.783C513.61 526.157 508.299 538.502 501.958 550.494L502.373 548.357C503.822 541.097 503.094 533.307 505.101 526.223C507.463 517.885 514.773 504.585 518.61 496.298C526.588 479.07 534.015 461.41 542.545 444.467C547.207 435.207 551.953 430.879 561.839 427.577Z"/>
	<path d="M606.145 457.761C610.797 458.783 668.615 485.387 671.399 488.088C672.002 488.674 671.761 489.804 671.765 490.613C666.412 490.115 611.684 464.757 607.038 461.024C605.852 460.071 606.162 459.129 606.145 457.761Z"/>
	<path fill="#FEFEFE" d="M241.091 460.578C251.024 459.94 260.645 460.884 269.049 466.674C277.927 472.79 282.416 482.765 284.221 493.12C287.013 509.141 284.396 528.576 274.749 542.021C268.66 550.508 260.642 554.744 250.49 556.426C241.41 558.049 231.397 557.134 223.416 552.251C215.034 547.017 209.081 538.659 206.876 529.026C202.975 512.603 206.648 493.125 215.585 478.9C221.618 469.3 230.008 463.078 241.091 460.578Z"/>
	<path d="M243.887 466.171C250.705 465.652 258.284 467.94 263.889 471.814C271.854 477.321 276.239 486.112 277.92 495.464C280.499 509.801 277.462 525.609 269.018 537.562C263.396 545.52 256.22 550.226 246.621 551.876C238.606 552.352 230.98 551.002 224.393 546.172C217.215 540.909 213.198 532.908 211.908 524.231C209.703 509.398 213.157 491.021 222.226 478.873C227.747 471.477 234.838 467.506 243.887 466.171Z"/>
	<path fill="#E9EBFC" d="M243.697 469.584C249.7 469.506 255.363 470.515 260.556 473.703C267.897 478.209 272.211 485.876 274.047 494.105C276.979 507.24 274.725 522.808 267.452 534.219C262.489 542.006 255.967 546.439 246.98 548.475C240.147 548.575 234.194 548.192 228.147 544.498C221.508 540.443 217.333 533.59 215.734 526.098C212.771 512.216 215.922 494.545 223.768 482.683C228.624 475.343 235.103 471.365 243.697 469.584Z"/>
	<path fill="#FEFEFE" d="M485.822 506.522C486.709 506.814 487.519 507.123 488.342 507.569C494.258 510.773 497.876 516.673 499.601 523.026C501.816 531.185 501.328 541.003 498.536 548.965C495.104 558.751 487.752 566.16 482.892 575.165L453.766 629.712C448.146 640.408 442.878 651.318 436.866 661.799C434.248 659.166 431.853 656.338 429.427 653.53C418.241 639.313 410.968 623.621 406.521 606.145C416.458 587.202 430.545 568.144 447.079 554.568C454.375 548.576 463.124 544.035 469.346 536.835C476.95 528.036 478.679 515.824 485.822 506.522Z"/>
	<path fill="#FEFEFE" d="M402.473 608.385C405.244 610.24 406.943 620.12 408.187 623.58C409.056 625.995 410.217 628.345 411.327 630.656C417.557 643.632 426.068 654.526 435.545 665.234C429.589 677.605 423.498 689.91 417.271 702.147C413.721 696.344 410.95 689.856 408.052 683.7C394.428 660.578 378.061 647.278 355.648 633.339C361.953 629.631 368.861 626.794 375.395 623.489C384.645 618.81 393.578 613.706 402.473 608.385Z"/>
	<path fill="#E9EBFC" d="M282.1 392.102C286.452 391.86 290.868 392.121 295.203 392.526C300.524 393.022 305.839 393.731 311.139 394.416C323.381 395.999 331.209 397.948 339.389 407.774C329.93 403.701 320.366 400.196 309.965 402.765C294.299 406.633 284.402 422.292 276.48 435.126C271.78 443.285 267.802 451.567 264.561 460.412C255.752 457.22 248.649 456.565 239.335 457.395C241.077 451.848 243.268 446.346 245.542 440.996C252.568 424.469 264.842 399.078 282.1 392.102Z"/>
	<path fill="#E9EBFC" d="M463.089 794.136C469.541 795.856 475.725 800.204 481.788 803.021L541.283 830.552C542.258 835.81 543.908 840.856 545.545 845.933C526.547 846.283 507.54 845.685 488.549 846.162C479.307 829.2 470.813 811.841 463.089 794.136Z"/>
	<path fill="#FEFEFE" d="M648.547 718.502C650.041 718.546 651.209 718.911 652.544 719.567C656.877 721.7 659.524 724.683 661.043 729.288C663.211 735.863 662.244 742.784 659.029 748.832C654.5 757.352 646.774 762.082 637.802 764.893C632.683 765.978 628.284 764.991 623.358 763.653C629.704 749.381 635.622 734.639 642.75 720.753C644.597 719.835 646.609 719.203 648.547 718.502Z"/>
	<path fill="#E9EBFC" d="M497.257 560.411C497.447 562.398 495.939 564.938 495.118 566.729C490.515 576.767 485.32 586.568 480.537 596.526L448.081 664.117L432.937 695.288C430.599 700.16 428.601 705.427 425.887 710.089C425.133 711.383 424.529 712.423 423.04 712.822L422.178 711.862L419.206 705.55C427.427 689.948 434.881 673.968 442.833 658.229C450.167 643.714 457.991 629.449 465.492 615.02C475.596 595.583 483.413 577.69 497.257 560.411Z"/>
	<path fill="#FEFEFE" d="M453.859 775.186C464.197 777.971 473.768 783.856 483.457 788.334L544.517 816.457C543.627 818.867 542.838 821.33 542.005 823.761C541.778 824.618 541.561 824.837 540.996 825.49C535.996 825.966 469.619 793.341 459.356 788.331C457.429 783.99 455.596 779.607 453.859 775.186Z"/>
	<path fill="#FEFEFE" d="M159.865 827.811C162.214 829.476 164.636 831.038 166.977 832.716C169.41 834.459 172.122 836.831 172.499 839.994C172.792 842.459 171.487 845.029 169.871 846.812C167.928 848.958 165.426 849.324 162.678 849.413C161.829 855.039 160.091 859.247 157.616 864.341C166.342 857.763 174.635 850.629 182.442 842.983L187.785 847.284C183.692 856.926 179.995 866.744 177.302 876.873C177.011 878.012 177.17 878.077 176.214 878.875C174.655 878.858 173.174 877.479 171.931 876.593L175.294 867.871C172.446 865.978 169.511 864.406 166.467 862.852C164.406 864.682 162.313 866.331 160.073 867.936C157.452 866.753 155.291 865.372 152.969 863.686C154.804 859.086 156.879 854.545 157.974 849.7L153.511 846.434L145.214 859.336L141.106 855.983C147.775 846.76 154.085 837.622 159.865 827.811Z"/>
	<path d="M161.993 834.207C163.827 834.835 165.95 836.139 166.884 837.897C167.539 839.131 167.507 840.426 167.14 841.736C166.528 843.919 164.42 845.039 162.595 846.065C160.332 845.231 158.293 844.046 156.19 842.879L161.993 834.207Z"/>
	<path d="M181.206 849.915C181.238 850.069 181.288 850.222 181.301 850.379C181.597 854.192 179.32 860.198 176.643 862.901C175.198 863.085 174.882 862.598 173.684 861.829C172.862 861.181 171.536 860.479 171.225 859.486C174.502 856.244 177.83 853.053 181.206 849.915Z"/>
	<path fill="#FEFEFE" d="M560.261 878.535C561.898 878.463 563.542 878.379 565.146 878.781C568.098 879.52 570.559 881.566 572.12 884.14C574.987 888.868 575.227 896.051 573.906 901.299C572.576 906.584 569.94 909.699 565.376 912.452C563.745 912.527 562.022 912.666 560.414 912.317C557.479 911.681 554.852 909.488 553.342 906.943C550.454 902.076 550.358 894.747 551.767 889.336C553.136 884.079 555.699 881.166 560.261 878.535Z"/>
	<path d="M561.62 882.875C561.776 882.887 561.933 882.891 562.088 882.913C564.168 883.2 565.674 884.01 566.92 885.696C569.547 889.251 569.814 894.494 569.198 898.713C568.567 903.04 567.197 905.993 563.689 908.615C561.619 908.321 559.927 907.462 558.575 905.842C555.996 902.752 555.668 898.031 556.007 894.197C556.436 889.353 557.834 885.918 561.62 882.875Z"/>
	<path fill="#FEFEFE" d="M533.222 878.527C534.712 878.452 536.172 878.419 537.636 878.758C540.668 879.46 543.31 881.626 544.905 884.255C547.826 889.069 548.121 895.767 546.767 901.115C545.398 906.519 542.711 909.605 538.101 912.428C536.727 912.511 535.338 912.605 533.978 912.343C530.99 911.768 528.36 909.802 526.718 907.274C523.506 902.333 523.27 894.932 524.73 889.368C526.102 884.142 528.634 881.153 533.222 878.527Z"/>
	<path d="M533.753 882.85C535.67 882.916 537.189 883.074 538.734 884.307C540.993 886.111 541.963 888.782 542.269 891.582C542.937 897.679 541.254 903.14 537.47 907.865C535.558 908.063 534.029 907.779 532.455 906.63C530.145 904.944 529.478 901.41 529.286 898.763C528.859 892.86 529.816 887.38 533.753 882.85Z"/>
	<path fill="#FEFEFE" d="M502.061 878.605C502.888 878.564 503.716 878.544 504.543 878.547C509.424 878.531 515.297 878.722 518.884 882.575C519.989 883.763 520.644 885.274 520.491 886.92C520.201 890.037 518.544 892.025 516.304 894.022C517.702 895.314 519.2 896.607 520.161 898.275C521.962 901.405 521.071 904.338 520.171 907.557C519.724 908.036 519.262 908.5 518.785 908.948C514.359 913.034 507.564 912.148 502.014 911.966L502.061 878.605Z"/>
	<path d="M507.107 896.408C509.215 896.451 511.342 896.575 513.264 897.538C514.699 898.258 515.645 899.309 516.056 900.892C516.604 903.007 515.299 905.225 514.332 906.993C513.187 907.418 511.392 908.168 510.165 908.068C509.01 907.974 508.081 907.576 507.422 906.586C505.801 904.149 506.829 899.181 507.107 896.408Z"/>
	<path d="M507.302 882.556C508.754 882.58 510.471 882.694 511.843 883.185C513.178 883.663 514.392 884.624 514.806 886.028C515.411 888.087 514.393 890.023 513.563 891.842C512.546 892.124 511.279 892.518 510.221 892.517C508.884 892.516 508.27 892.042 507.335 891.167C505.976 888.195 506.698 885.618 507.302 882.556Z"/>
	<path fill="#FEFEFE" d="M196.494 852.78C198.709 854.028 200.846 855.486 202.999 856.842C200.964 864.855 197.133 872.707 193.993 880.355C200.417 875.096 206.594 869.814 212.299 863.759C214.421 865.317 216.502 866.939 218.598 868.532C212.164 877.158 205.893 885.904 199.788 894.765C198.444 893.732 197.146 892.64 195.837 891.564C200.306 886.441 204.118 880.865 208.002 875.298C208.417 874.758 208.786 874.077 209.148 873.496L208.693 873.308C202.339 877.465 196.472 883.089 190.626 887.962L186.356 885.354C191.653 877.582 194.6 869.26 197.516 860.401C192.656 868.107 188.098 875.894 183.657 883.851L178.979 880.597C185.951 872.303 191.112 862.166 196.494 852.78Z"/>
	<path fill="#FEFEFE" d="M369.217 477.871C369.946 482.981 368.704 488.519 369.094 493.731C370.08 506.931 376.898 517.424 381.973 529.276C378.863 532.432 375.576 535.248 372.036 537.908C371.114 538.496 370.53 538.724 369.446 538.873C369.327 538.747 369.195 538.633 369.091 538.496C367.706 536.68 367.205 533.411 366.38 531.208C364.423 525.985 359.579 517.383 360.681 511.775C362.062 504.749 364.608 498.14 366.424 491.241C367.587 486.823 368.065 482.277 369.217 477.871Z"/>
	<path fill="#FEFEFE" d="M62.6489 760.031C64.4673 761.026 66.2189 762.313 67.9673 763.437C66.5699 772.698 64.8704 781.911 62.8715 791.061C67.4795 783.796 72.1073 776.602 77.1519 769.629L81.1988 772.706C77.7557 777.44 74.2387 782.173 71.2272 787.197C68.6026 791.575 66.4128 796.58 63.246 800.57C61.2118 799.529 59.286 798.238 57.3453 797.032C59.4351 788.175 60.833 779.034 62.5416 770.088C57.5438 777.014 53.1106 784.282 48.7351 791.609C47.134 790.495 45.6203 789.244 44.0878 788.038C50.8927 779.114 56.7015 769.533 62.6489 760.031Z"/>
	<path fill="#FEFEFE" d="M673.398 652.455C676.211 654.181 677.8 657.002 678.738 660.107C680.668 666.488 678.989 674.63 675.789 680.411C672.148 686.987 667.391 689.667 660.45 691.723L654.967 692.37C657.521 685.597 660.842 678.991 663.845 672.402C666.881 665.738 669.709 658.781 673.398 652.455Z"/>
	<path fill="#FEFEFE" d="M125.499 804.324C127.416 805.167 129.131 806.661 130.811 807.906C127.049 818.57 124.173 829.757 121.202 840.666C119.611 839.682 118.074 838.613 116.524 837.568L119.411 830.096L116.445 827.638L110.278 823.9L105.05 829.869L100.251 826.494C109.553 820.087 117.4 812.131 125.499 804.324Z"/>
	<path d="M124.398 810.948L124.921 811.739C124.867 816.218 122.433 821.088 120.808 825.234L117.019 822.999L113.898 820.613C117.46 817.469 120.905 814.17 124.398 810.948Z"/>
	<path fill="#FEFEFE" d="M442.507 878.407C443.844 878.52 444.659 878.621 445.881 879.245C447.87 882.938 455.008 907.806 454.547 911.418C453.665 912.33 453.395 912.389 452.161 912.744C449.101 911.438 449.307 907.251 447.796 904.644C447.156 903.542 446.807 903.675 445.625 903.433L439.361 903.465C438.83 905.489 438.311 907.483 437.283 909.324C436.596 910.551 435.655 912.139 434.272 912.499C433.517 911.304 433.643 909.942 433.738 908.582C434.028 904.424 439.522 882.048 441.307 879.417C441.601 878.984 442.107 878.744 442.507 878.407Z"/>
	<path d="M443.435 885.734C443.866 886.205 444.225 886.671 444.494 887.252C445.801 890.076 447.513 895.699 446.261 898.649C445.907 899.484 445.027 899.485 444.231 899.759C443.05 899.503 442.091 899.382 441.182 898.512C439.892 894.7 442.278 889.484 443.435 885.734Z"/>
	<path fill="#FEFEFE" d="M581.644 878.507L583.195 879.023C585.278 881.668 584.094 890.992 583.987 894.658C586.866 890.128 589.193 884.134 593.035 880.42C594.903 878.614 596.927 878.963 599.318 879.007C595.894 883.99 592.552 889.101 589.797 894.488L596.89 906.75L599.853 911.937L593.527 911.973C591.684 907.989 589.544 901.396 585.732 898.991L584.884 899.327C583.549 902.776 584.448 906.671 583.535 910.226C583.207 911.506 582.834 911.885 581.717 912.511C581.309 912.445 580.845 912.398 580.476 912.197C579.609 911.723 579.069 911.237 578.812 910.304C578.031 907.468 577.814 881.494 579.182 879.432C579.59 878.817 580.942 878.692 581.644 878.507Z"/>
	<path fill="#FEFEFE" d="M142.301 817.49C145.001 817.461 147.306 817.901 149.51 819.543C151.274 820.857 153.065 822.846 153.185 825.164C153.274 826.872 152.576 828.711 151.345 829.914C150.747 830.499 150.59 830.29 149.833 830.234C148.264 828.692 148.695 826.51 148.024 824.569C147.606 823.359 146.716 822.46 145.486 822.044C144.002 821.542 142.376 822.173 141.13 822.97C136.56 825.895 131.547 833.817 130.63 839.169C130.272 841.262 130.639 843.341 131.819 845.094C133.055 845.735 133.677 845.974 135.073 845.627C138.44 844.788 139.958 842.465 141.744 839.769C140.847 839.181 139.855 838.596 139.051 837.887C137.953 836.917 138.03 836.167 138.016 834.788C138.838 834.21 139.595 833.886 140.536 833.539C144.081 833.884 146.236 836.589 148.681 838.922C145.007 843.73 141.408 848.562 136.928 852.656C133.897 849.246 128.587 847.59 126.434 843.593C124.971 840.877 125.33 837.798 126.316 834.985C129.047 827.185 134.987 821.067 142.301 817.49Z"/>
	<path fill="#FEFEFE" d="M85.1099 778.5C88.4706 778.445 91.7516 779.11 94.4132 781.298C96.0967 782.682 97.2198 784.819 97.3143 787.014C97.3856 788.672 96.761 790.638 95.6138 791.829L94.7242 791.776C92.4047 789.704 92.1896 786.619 90.3884 784.209C89.553 783.091 88.8964 782.872 87.5793 782.605C86.2284 782.989 84.7522 783.896 84.1678 785.25C82.3717 789.412 88.5462 795.806 89.8853 799.828C90.6119 802.011 90.6646 804.24 89.4787 806.274C87.7506 809.239 84.7783 811.076 81.5342 811.895C78.206 811.252 74.7451 809.744 72.5059 807.101C71.0233 805.352 70.1637 803.06 70.3955 800.759C70.5314 799.41 70.9802 798.173 72.0924 797.325C72.8022 796.785 72.9918 797.04 73.793 797.191C75.3852 799.242 75.019 801.843 76.0271 804.128C76.6333 805.501 78.011 806.357 79.3956 806.761C80.6343 807.122 82.2977 807.038 83.4 806.365C89.0994 802.884 76.9577 790.075 78.6026 784.718C79.5938 781.49 82.2761 779.931 85.1099 778.5Z"/>
	<path fill="#FEFEFE" d="M483.365 878.755C486.942 878.561 490.739 878.166 494.219 879.145C495.627 879.541 496.632 879.937 497.385 881.211C497.192 881.417 497.027 881.652 496.808 881.828C494.402 883.753 488.399 883.115 485.491 883.005L485.458 892.471C488.667 892.423 491.808 891.98 494.487 894.07L494.573 894.926C494.427 895.068 494.296 895.225 494.137 895.352C491.884 897.138 488.223 896.654 485.51 896.608L485.46 906.929C487.272 908.84 493.732 906.465 496.635 908.525C497.065 909.594 497.003 909.583 496.627 910.685C492.7 913.488 485.215 912.261 480.549 911.968C480.528 906.292 478.987 883.323 481.256 879.529C481.707 878.775 482.569 878.901 483.365 878.755Z"/>
	<path fill="#FEFEFE" d="M689.651 616.322C690.429 617.094 690.95 618.136 691.421 619.112C693.981 624.417 694.613 629.725 692.487 635.347C689.802 642.449 684.22 646.224 677.651 649.278C676.499 649.468 675.904 649.789 674.83 649.242C676.453 640.504 685.49 624.828 689.651 616.322Z"/>
	<path fill="#FEFEFE" d="M422.714 878.722C425.422 878.646 428.71 878.255 431.27 879.251C432.467 879.716 432.927 879.831 433.446 881.088C433.26 881.344 433.121 881.643 432.886 881.856C430.302 884.208 424.568 883.498 421.392 883.441C421.054 886.927 421.11 890.388 421.147 893.887C423.684 893.729 427.039 893.226 429.38 894.329C430.548 894.879 431.092 895.196 431.456 896.436C431.355 896.576 431.271 896.73 431.152 896.855C429.339 898.747 425.274 898.089 422.875 897.992C422.436 898.061 421.949 897.987 421.559 898.2C420.442 898.809 422.422 909.248 419.834 912.068C418.602 912.392 418.4 912.398 417.176 912.049C414.362 907.385 416.162 885.336 416.47 879.073L422.714 878.722Z"/>
	<path fill="#FEFEFE" d="M467.146 878.504C470.186 878.434 472.305 878.642 475.06 880.164C476.263 880.829 476.747 881.214 477.156 882.519C476.945 882.968 476.892 883.155 476.511 883.554C474.127 886.051 471.85 882.898 468.991 882.919C467.541 882.93 466.195 883.912 465.308 885.007C462.206 888.838 461.906 895.702 462.635 900.426C463.094 903.4 464.45 906.096 466.922 907.878C470.014 908.766 471.94 906.856 474.621 905.728C474.789 905.657 474.96 905.596 475.13 905.53C475.904 906.816 476.698 907.864 476.668 909.426C476.304 910.076 475.969 910.501 475.317 910.886C472.511 912.542 468.766 913.359 465.616 912.308C462.742 911.348 460.594 908.985 459.293 906.314C456.642 900.872 456.332 893.603 458.361 887.913C460.056 883.163 462.713 880.685 467.146 878.504Z"/>
	<path fill="#FEFEFE" d="M103.367 787.406C108.586 790.475 117.171 795.615 120.109 800.954L119.724 801.633C116.34 801.853 113.912 800.083 111.211 798.322C107.425 804.43 103.671 810.557 99.9498 816.704C98.5177 818.927 97.2029 821.251 95.8413 823.52C94.3113 822.569 92.8534 821.489 91.3813 820.451C96.8404 812.291 102.093 803.996 107.133 795.571C105.221 794.404 103.02 793.402 102.071 791.278C101.915 789.688 102.612 788.727 103.367 787.406Z"/>
	<path fill="#FEFEFE" d="M53.316 753.755C54.9216 754.515 56.4577 755.503 57.9965 756.393C51.7448 765.684 45.554 774.663 40.5105 784.692L35.0548 781.721C40.848 772.232 47.1933 763.035 53.316 753.755Z"/>
	<path d="M797.658 816.556C812.285 806.694 826.617 796.273 841.026 786.089C853.124 777.537 865.581 766.831 879.717 761.98C893.207 757.351 909.658 758.248 922.488 764.473C937.933 773.884 949.671 784.403 954.106 802.659C957.594 816.757 955.23 831.667 947.552 843.995C944.535 848.852 940.726 853.015 936.425 856.762C930.507 861.917 923.964 866.377 917.572 870.916L885.753 893.05C875.762 899.966 866.131 907.92 855.619 914.002C850.757 916.815 845.742 919.059 840.252 920.313C826.936 923.354 815.165 922.192 802.526 917.352C800.886 916.532 799.262 915.683 797.653 914.805C785.267 907.926 776.856 895.745 773.13 882.223C768.079 863.895 773.766 847.808 782.866 831.938C777.185 830.217 769.613 828.506 765.761 823.668C764.366 821.916 762.761 818.815 763.286 816.488C763.529 815.413 764.308 814.553 765.235 814.004C772.392 809.773 790.028 814.844 797.658 816.556Z"/>
	<path fill="#FEFEFE" d="M835.853 837.592C836.385 837.697 836.681 837.73 837.162 837.901C842.305 839.73 851.207 863.242 853.376 868.475L848.607 871.799C843.424 867.93 838.983 862.796 834.491 858.167C837.182 864.098 839.762 870.079 842.229 876.108C840.411 877.188 838.514 878.162 836.659 879.179C829.556 871.305 822.289 864.009 814.473 856.839C813.956 856.429 813.782 856.055 813.459 855.491C813.95 853.924 815.382 853.129 816.632 852.175C822.955 857.718 828.484 863.544 833.832 870.026C831.367 861.943 827.686 854.707 823.801 847.243C825.241 846.181 826.774 845.221 828.26 844.224C834.186 851.286 840.604 857.854 847.119 864.368C844.257 858.201 834.356 843.675 835.853 837.592Z"/>
	<path fill="#FEFEFE" d="M910.817 786.467C913.246 786.857 915.964 787.257 917.952 788.84C921.496 791.661 921.227 797.186 921.505 801.254C925.3 805.402 930.433 808.428 935.098 811.508L929.958 814.969C926.227 811.472 922.079 808.532 917.835 805.698L913.256 808.474L915.93 812.989C917.915 815.54 920.027 818.008 922.082 820.504L916.833 823.927C910.455 814.128 903.675 804.729 896.573 795.442C901.193 791.819 905.412 788.791 910.817 786.467Z"/>
	<path d="M908.492 791.946C908.944 791.953 909.395 791.968 909.846 791.992C911.859 792.103 914.157 792.647 915.445 794.365C916.321 795.533 916.657 796.764 916.51 798.204C916.176 801.488 914.256 803.112 911.906 805.147L911.578 805.237C909.938 804.778 908.338 802.789 907.322 801.401C906.031 799.639 904.986 797.148 905.47 794.93C905.785 793.481 907.343 792.697 908.492 791.946Z"/>
	<path fill="#FEFEFE" d="M891.672 797.895C893.576 798.597 894.481 800.064 895.655 801.633C892.124 803.699 888.731 806.002 885.316 808.252L891.291 817.42C893.41 815.653 895.971 812.986 898.714 812.364C899.966 812.08 900.211 811.994 901.242 812.658C901.264 813.231 901.303 813.302 901.122 813.942C900.2 817.205 896.143 819.411 893.529 821.154C895.81 823.946 897.834 826.837 899.832 829.836C903.651 827.401 907.454 824.943 911.242 822.462C912.217 822.642 912.664 823.133 913.433 823.728L913.563 824.841C911.118 829.97 903.141 833.919 898.387 836.861C891.355 827.543 884.541 818.096 878.523 808.086L891.672 797.895Z"/>
	<path fill="#FEFEFE" d="M810.287 856.889C811.537 857.972 812.329 859.605 813.173 861.019C810.772 862.237 808.491 863.597 806.191 864.994C812.303 872.604 817.222 880.816 822.291 889.134L818.266 893.488L814.944 888.229L801.681 868.005C800.531 868.941 799.024 870.296 797.601 870.755C796.225 871.199 795.404 870.969 794.113 870.441C793.789 869.997 793.334 869.708 793.506 869.124C794.489 865.793 807.056 858.899 810.287 856.889Z"/>
	<path fill="#FEFEFE" d="M875.335 810.909C876.869 812.03 877.931 813.677 879.061 815.186C876.328 816.373 873.738 817.746 871.121 819.164C877.505 827.135 883.3 835.597 889.224 843.914L884.098 847.09L881.613 843.594C876.878 836.194 871.737 829.187 866.355 822.248C864.825 823.451 863.581 824.39 861.734 825.037C860.493 824.843 860.41 824.764 859.487 823.902L859.532 822.723C862.507 817.439 870.193 813.862 875.335 810.909Z"/>
	<path fill="#FEFEFE" d="M855.835 824.415C857.499 824.974 858.265 826.417 859.346 827.764C857.037 829.448 854.64 831.032 852.284 832.651C858.049 840.989 863.925 849.194 869.457 857.696C867.907 858.492 866.444 859.362 864.706 859.656C863.036 858.899 862.703 857.915 861.718 856.4C856.958 849.444 852.106 842.533 847.736 835.322C846.372 836.142 844.698 837.388 843.157 837.782C842.218 838.022 842.058 837.948 841.21 837.468L841.253 836.333C844.221 831.005 850.808 827.595 855.835 824.415Z"/>
	<path d="M124.522 279.401C136.594 271.744 148.066 263.052 159.605 254.626C164.997 250.688 170.598 245.916 176.521 242.839C179.06 241.521 183.002 239.773 185.938 240.614C188.253 241.276 191.467 245.114 192.999 246.987C199.162 254.525 204.109 263.198 209.783 271.135L228.559 297.283C233.176 303.759 238.146 310.229 241.64 317.398C241.091 319.344 240.592 321.427 239.452 323.123C233.844 331.464 216.344 340.733 207.58 346.156C211.186 350.659 226.131 367.979 225.66 372.395C225.606 372.902 225.52 372.903 225.021 373.147C219.977 375.609 182.23 369.467 174.603 368.77C161.51 376.287 132.479 401.513 120.579 404.677C118.426 404.093 116.538 403.552 114.79 402.114C110.458 398.549 107.573 393.597 104.53 388.968C98.8779 380.372 89.7347 364.839 83.1763 357.924C78.1676 350.345 63.5648 333.531 65.2145 324.252C65.5833 322.178 66.7132 320.772 68.2313 319.385C74.7974 313.389 83.1901 308.515 90.5102 303.409C101.887 295.473 113.098 287.251 124.522 279.401Z"/>
	<path fill="#FE766A" d="M181.186 243.468C182.706 243.349 183.984 243.147 185.427 243.776C192.719 250.798 199.846 262.239 205.876 270.585C215.266 283.583 227.497 299.4 235.369 313.092C236.465 314.998 237.823 317.485 237.936 319.719C238.159 324.158 209.247 340.359 204.229 345.304L203.675 345.854C208.354 354.226 216.094 362.309 221.952 370.049C205.731 369.899 189.867 366.048 173.731 365.364C161.608 373.625 149.583 382.031 137.661 390.579C133.522 393.831 125.44 401.372 119.838 400.708C116.939 400.365 114.792 397.894 113.177 395.674C104.563 383.836 96.6057 371.303 88.3081 359.225C82.3448 350.544 75.2507 341.698 70.208 332.48C69.1067 330.467 67.4923 327.625 68.1156 325.265C68.6383 323.285 70.3069 321.814 71.8376 320.583C84.5781 310.339 98.9987 301.659 112.324 292.132C135.172 275.798 157.541 258.642 181.186 243.468Z"/>
	<path fill="#FEFEFE" d="M183.435 254.319C185.191 254.509 186.293 254.78 187.839 255.647C188.705 256.726 189.144 257.339 189.028 258.771C188.53 264.946 180.326 283.347 177.745 290.263C172.954 303.099 168.912 316.349 163.307 328.86C162.535 330.585 161.797 332.188 160.345 333.453C158.592 334.978 156.624 335.398 154.367 335.632C145.799 336.52 136.76 335.242 128.15 334.846C112.05 334.233 95.9583 333.427 79.8778 332.429C78.7677 332.394 77.6868 332.171 76.7357 331.553C75.7562 330.915 75.0064 329.679 74.9896 328.496C74.9683 326.996 75.5629 326.404 76.4371 325.318C78.5254 324.215 81.0316 324.371 83.34 324.378C92.1555 324.405 101.015 325.443 109.819 325.953C124.876 326.761 139.938 327.46 155.005 328.049C161.293 312.78 166.349 296.932 172.004 281.413C175.335 272.272 178.593 262.786 183.435 254.319Z"/>
	<path fill="#FEFEFE" d="M125.971 543.921C110.48 548.79 93.928 540.44 88.6387 525.088C83.3494 509.735 91.246 492.962 106.449 487.257C121.652 481.552 138.634 488.989 144.751 504.032C150.867 519.074 143.894 536.252 129.024 542.775C128.028 543.212 127.009 543.594 125.971 543.921Z"/>
	<path d="M115.659 510.786C118.391 510.265 121.037 512.028 121.607 514.75C122.177 517.472 120.461 520.148 117.75 520.767C115.953 521.177 114.074 520.585 112.837 519.219C111.599 517.852 111.195 515.925 111.78 514.176C112.366 512.428 113.849 511.132 115.659 510.786Z"/>
	<path d="M753.08 142.952C762.302 140.826 771.296 140.524 779.637 145.704C783.364 148.019 786.539 151.189 789.098 154.741C797.062 152.45 804.707 152.381 812.203 156.521C822.245 162.067 830.203 172.412 833.254 183.436C834.964 189.614 835.248 196.031 833.597 202.259C833.07 204.246 832.212 206.13 831.809 208.146C830.473 210.791 828.241 213.433 826.115 215.497C824.241 217.316 821.655 218.49 819.018 218.377C816.603 218.273 814.258 217.123 812.647 215.331C810.896 213.385 810.111 210.79 810.317 208.196C810.533 205.484 811.691 202.931 813.834 201.21C817.183 198.518 822.133 198.47 826.186 198.986C821.276 192.15 799.769 173.129 792.504 167.63C789.462 165.327 786.101 163.523 782.987 161.314C780.35 163.911 777.67 166.817 774.508 168.775C773.618 169.327 773.074 169.891 772.037 169.652C772.732 165.543 776.612 162.532 779.67 160.078C773.717 156.852 759.995 150.892 757.021 145.31C752.006 146.695 747.085 148.258 742.844 151.4C739.622 153.787 736.334 160.211 732.499 160.898L732.033 160.186C732.115 159.512 732.094 159.409 732.375 158.674C735.448 150.615 745.599 145.678 753.08 142.952Z"/>
	<path fill="#FEFEFE" d="M782.987 161.314C789.779 157.373 796.56 154.67 804.587 156.651C814.1 158.997 821.711 166.728 826.445 174.999C831.122 183.17 832.792 191.674 831.318 200.983L826.186 198.986C821.276 192.15 799.769 173.129 792.504 167.63C789.462 165.327 786.101 163.523 782.987 161.314Z"/>
	<path fill="#FEFEFE" d="M757.021 145.31C765.373 144.117 772.682 143.981 779.786 149.409C782.225 151.272 784.351 153.606 786.248 156.005L779.67 160.078C773.717 156.852 759.995 150.892 757.021 145.31Z"/>
	<path fill="#E9EBFC" d="M820.244 201.507C821.093 201.482 821.925 201.49 822.773 201.543C825.319 201.703 826.991 201.965 828.696 203.939C829.047 204.893 829.194 205.424 829.024 206.457C828.439 210.019 824.609 212.576 821.889 214.507C820.312 214.991 818.643 215.098 817.018 214.818C815.618 214.588 814.249 213.918 813.565 212.609C812.783 211.114 813.062 209.298 813.579 207.776C814.726 204.395 817.216 203.005 820.244 201.507Z"/>
	<path d="M226.229 169.453L225.78 168.874C221.629 163.416 219.757 157.614 220.902 150.743C222.141 143.311 226.955 136.429 233.133 132.227C239.085 128.177 246.881 126.166 253.99 127.616C260.581 128.959 265.145 132.832 268.814 138.246C271.101 146.063 270.177 153.564 266.32 160.67C262.679 167.377 256.679 172.839 249.291 175.052C243.337 176.835 236.733 176.447 231.264 173.384C229.402 172.327 227.706 171.003 226.229 169.453ZM266.323 140.559C265.025 136.896 261.438 134.043 258.055 132.367C252.737 129.734 246.71 129.749 241.161 131.656C234.058 134.118 228.289 139.411 225.226 146.277C223.037 151.162 222.477 156.636 224.582 161.66C225.501 163.854 226.911 165.847 228.498 167.604C239.109 156.416 252.976 148.004 266.323 140.559Z"/>
	<path fill="#E9EBFC" d="M266.323 140.559C267.797 148.023 266.337 155.378 262.142 161.74C258.501 167.262 252.962 171.534 246.394 172.819C241.418 173.792 235.719 172.913 231.526 169.955C230.488 169.209 229.478 168.424 228.498 167.604C239.109 156.416 252.976 148.004 266.323 140.559Z"/>
	<path d="M45.6048 537.671C49.412 549.097 50.5822 555.608 59.784 564.035C60.3543 559.525 60.6315 554.262 64.5419 551.233C66.259 549.904 68.5266 549.508 70.6348 549.915C73.5481 550.478 76.1839 552.4 77.7073 554.933C78.8448 556.824 79.3963 559.143 78.8646 561.318C78.327 563.517 76.7611 565.1 74.8309 566.177C71.6528 567.951 67.9585 568.102 64.4136 568.501C68.4451 576.153 73.605 582.653 82.2454 585.341C90.116 587.79 99.1493 586.241 106.273 582.287C115.23 577.315 121.535 568.336 124.19 558.54C125.48 553.781 125.861 548.836 125.971 543.921C127.009 543.594 128.028 543.212 129.024 542.775C130.678 553.644 127.123 565.701 120.608 574.48C114.563 582.679 105.498 588.129 95.4219 589.623C87.1792 590.78 78.805 589.053 72.1219 583.91C66.4818 579.57 62.9994 573.672 60.073 567.303C54.3641 564.499 51.2672 560.679 48.0685 555.285C47.5563 554.421 47.072 553.103 46.2849 552.531C45.6033 550.096 44.8399 547.63 44.3488 545.15C43.776 542.257 43.9688 540.139 45.6048 537.671Z"/>
	<path fill="#E9EBFC" d="M67.7915 552.935C68.3457 552.987 68.9018 553.031 69.4517 553.118C71.6009 553.459 73.7529 554.488 74.9735 556.352C75.6973 557.457 75.9897 558.798 75.6199 560.091C75.0021 562.252 73.1446 563.265 71.3286 564.311C68.4927 564.923 65.8246 564.991 62.9376 565.026C63.0662 563.18 63.1428 561.273 63.4328 559.446C63.9152 556.408 65.4166 554.748 67.7915 552.935Z"/>
	<path d="M477.49 74.1872C484.194 72.6235 490.141 72.1774 496.983 73.0821C504.053 76.54 509.655 80.6341 512.291 88.4566C514.243 94.1033 513.811 100.301 511.095 105.623C508.594 110.535 504.941 113.783 499.66 115.469C496.187 116.579 491.046 117.346 487.669 115.562C486.637 115.017 485.713 114.173 485.469 112.994C485.039 110.918 486.192 109.034 487.397 107.435C490.319 103.561 495.644 97.9423 500.251 96.2485L501.009 96.6391C501.018 99.175 498.991 100.939 497.321 102.628C494.143 105.844 490.601 108.67 487.79 112.234C493.465 113.172 498.4 113.462 503.288 109.787C507.052 106.956 509.447 102.527 509.966 97.8659C510.557 92.4593 508.982 87.0386 505.585 82.7909C501.951 78.327 496.641 76.0065 490.969 75.6043C478.457 74.7169 467.933 82.2325 458.555 89.484C458.277 96.4245 458.561 108.059 452.935 113.131C452.49 113.531 452.625 113.412 452.007 113.621C449.145 108.216 459.776 94.3887 453.805 88.6011C451.388 87.8641 448.853 88.5764 446.682 89.7716C438.387 94.339 434.939 104.064 430.442 106.733L429.374 106.418C428.892 104.386 429.804 102.994 430.872 101.278C434.802 94.9617 441.998 86.9716 449.558 85.3709C452.144 84.8234 453.864 85.0293 456.126 86.3567C456.323 86.472 456.522 86.5825 456.717 86.6998C456.835 86.7702 456.949 86.8464 457.064 86.9198C463.572 81.8941 469.955 77.5768 477.49 74.1872Z"/>
	<path fill="#545ED7" d="M761.404 286.216C799.261 281.569 833.719 308.487 838.371 346.344C843.023 384.2 816.108 418.661 778.252 423.318C740.39 427.975 705.922 401.055 701.27 363.192C696.617 325.33 723.541 290.865 761.404 286.216Z"/>
	<path fill="#FEFEFE" d="M779.935 308.62C780.283 308.634 780.719 308.846 781.051 308.961C783.792 312.917 784.72 319.027 785.875 323.685C783.37 324.153 780.705 324.537 778.321 325.453C776.195 326.27 774.468 327.56 773.69 329.759C772.363 333.508 775.496 338.691 777.117 341.926C782.641 340.482 788.137 338.932 793.602 337.278C795.325 342.714 796.928 348.187 798.409 353.694C793.013 355.478 787.598 357.039 782.111 358.515C786.928 372.178 791.553 385.907 795.984 399.7L785.11 402.739L779.515 404.077C774.572 390.664 770.39 377.02 765.74 363.509L750.393 367.725C748.835 362.024 746.824 356.406 744.982 350.789C749.928 349.331 754.954 348.07 759.935 346.731C758.682 342.839 757.381 338.921 756.43 334.941C755.175 329.685 754.779 323.957 757.838 319.215C762.441 312.081 772.268 310.4 779.935 308.62Z"/>
	<path d="M890.567 564.78C925.549 561.741 956.381 587.609 959.467 622.586C962.554 657.564 936.727 688.431 901.753 691.564C866.714 694.703 835.775 668.816 832.683 633.773C829.591 598.729 855.519 567.825 890.567 564.78Z"/>
	<path fill="#FE766A" d="M888.966 568.208C922.096 564.234 952.168 587.884 956.116 621.016C960.064 654.149 936.391 684.203 903.256 688.125C870.157 692.044 840.142 668.402 836.199 635.306C832.255 602.209 855.873 572.177 888.966 568.208Z"/>
	<path d="M890.726 585.738C914.267 582.798 935.727 599.516 938.636 623.061C941.544 646.606 924.797 668.044 901.248 670.921C877.744 673.793 856.355 657.084 853.452 633.584C850.549 610.083 867.229 588.672 890.726 585.738Z"/>
	<path fill="#FEFEFE" d="M892.675 587.664C893.373 587.646 894.072 587.642 894.77 587.653C906.085 587.848 916.524 592.258 924.313 600.529C933.816 610.622 935.748 621.48 935.42 634.861C927.358 644.567 918.871 649.145 906.418 650.967C896.878 651.228 887.949 649.649 880.008 644.05C871.533 638.074 865.165 628.335 863.465 618.069C862.418 611.751 863.447 605.691 867.295 600.47C873.361 592.24 882.969 589.028 892.675 587.664Z"/>
	<path d="M918.781 614.492C919.968 614.387 921 614.404 922.15 614.712C923.692 615.125 925.391 615.95 926.108 617.456C926.942 619.208 926.472 621.323 925.941 623.089C923.467 631.308 918.241 637.352 910.785 641.469C909.675 641.527 908.542 641.534 907.439 641.373C905.94 641.154 904.383 640.389 903.613 639.031C902.905 637.783 902.96 636.287 903.246 634.928C904.995 626.605 911.907 619.049 918.781 614.492Z"/>
	<path d="M887.017 592.451C887.606 592.442 888.16 592.41 888.749 592.513C890.279 592.781 891.952 593.795 892.604 595.261C893.904 598.184 892.126 602.525 890.935 605.26C888.18 611.586 883.706 617.343 877.184 619.913C875.223 619.817 872.752 618.981 871.49 617.382C870.389 615.987 870.503 614.025 870.916 612.402C873.004 604.202 880.02 596.844 887.017 592.451Z"/>
	<path d="M884.969 623.036C888.533 622.947 891.986 623.128 895.035 625.259C896.214 626.083 897.101 627.305 897.13 628.787C897.171 630.92 895.78 632.363 894.433 633.813C891.914 634.484 889.744 634.711 887.286 633.646C885.562 632.9 884.233 631.592 883.663 629.768C882.846 627.155 883.755 625.34 884.969 623.036Z"/>
	<path fill="#FEFEFE" d="M886.378 624.265C888.915 624.562 892.154 625.256 893.703 627.503C894.893 629.228 894.512 630.836 894.043 632.695C893.369 632.664 892.695 632.612 892.024 632.541C889.993 632.307 887.557 631.479 886.416 629.654C885.232 627.76 885.72 626.203 886.378 624.265Z"/>
	<path fill="#FEFEFE" d="M859.89 615.461C860.804 616.807 861.136 619.555 861.629 621.175C863.499 627.324 865.652 632.935 869.609 638.059C876.157 646.712 885.969 652.299 896.752 653.515C910.948 655.208 922.302 650.547 933.327 641.957C931.642 645.812 929.364 649.226 926.996 652.687C923.158 657.279 918.646 661.337 913.401 664.263C904.83 669.091 894.695 670.327 885.215 667.7C875.229 664.848 867.246 658.022 862.347 648.933C856.559 638.195 856.517 626.964 859.89 615.461Z"/>
	<path d="M606.318 149.23C618.051 149.331 628.899 151.509 638.335 158.881C650.233 168.177 656.786 182.204 658.622 196.976C660.828 214.715 657.908 234.412 646.626 248.781C637.35 260.594 624.843 265.282 610.317 266.97C597.137 267.323 584.789 264.387 574.601 255.64C562.688 245.414 556.648 230.13 555.547 214.714C554.312 197.41 557.71 179.138 569.448 165.78C579.164 154.722 591.954 150.235 606.318 149.23Z"/>
	<path fill="#E9EBFC" d="M603.207 159.16C611.987 158.097 621.498 160.43 628.684 165.607C638.324 172.551 643.438 184.105 645.254 195.557C647.749 211.295 645.973 229.802 636.215 242.937C629.794 251.58 621.088 255.826 610.619 257.358C602.088 258.054 593.459 256.147 586.436 251.149C576.158 243.833 570.629 231.627 568.673 219.454C566.228 204.237 568.142 186.414 577.547 173.723C584.076 164.911 592.537 160.719 603.207 159.16Z"/>
	<path d="M506.987 310.772C533.359 309.518 555.77 329.848 557.083 356.218C558.396 382.588 538.116 405.044 511.749 406.415C485.3 407.791 462.757 387.433 461.44 360.98C460.123 334.528 480.531 312.031 506.987 310.772ZM512.251 402.827C536.755 401.218 555.3 380.026 553.644 355.525C551.988 331.024 530.759 312.52 506.262 314.223C481.831 315.922 463.389 337.08 465.04 361.514C466.692 385.947 487.814 404.431 512.251 402.827Z"/>
	<path fill="#FE766A" d="M506.262 314.223C530.759 312.52 551.988 331.024 553.644 355.525C555.3 380.026 536.755 401.218 512.251 402.827C487.814 404.431 466.692 385.947 465.04 361.514C463.389 337.08 481.831 315.922 506.262 314.223ZM534.888 342.542C540.255 351.316 540.822 362.208 536.397 371.493C536.946 372.075 536.61 371.883 537.416 372.052L538.583 369.976L538.856 370.846C540.084 368.369 540.82 365.763 541.223 363.036C542.438 354.713 540.341 346.245 535.383 339.45L534.888 342.542ZM478.128 368.636C478.882 367.809 479.141 367.063 479.507 366.016C477.696 359.004 478.446 351.576 481.623 345.068L480.143 343.413C476.152 351.478 475.287 360.03 478.128 368.636Z"/>
	<path fill="#FEFEFE" d="M480.143 343.413C482.521 338.759 486.012 334.764 490.305 331.783C497.484 326.776 506.37 324.852 514.978 326.44C523.25 327.862 530.604 332.55 535.383 339.45L534.888 342.542C540.255 351.316 540.822 362.208 536.397 371.493C536.946 372.075 536.61 371.883 537.416 372.052L538.583 369.976L538.856 370.846C538.684 371.502 538.521 372.106 538.232 372.724C534.627 380.317 528.145 386.161 520.219 388.962C512.002 391.961 502.926 391.547 495.016 387.813C486.711 383.894 481.178 377.199 478.128 368.636C478.882 367.809 479.141 367.063 479.507 366.016C477.696 359.004 478.446 351.576 481.623 345.068L480.143 343.413Z"/>
	<path d="M479.507 366.016C482.706 378.395 493.307 387.451 506.034 388.677C518.761 389.902 530.895 383.035 536.397 371.493C536.946 372.075 536.61 371.883 537.416 372.052L538.583 369.976L538.856 370.846C538.684 371.502 538.521 372.106 538.232 372.724C534.627 380.317 528.145 386.161 520.219 388.962C512.002 391.961 502.926 391.547 495.016 387.813C486.711 383.894 481.178 377.199 478.128 368.636C478.882 367.809 479.141 367.063 479.507 366.016Z"/>
	<path d="M480.143 343.413C482.521 338.759 486.012 334.764 490.305 331.783C497.484 326.776 506.37 324.852 514.978 326.44C523.25 327.862 530.604 332.55 535.383 339.45L534.888 342.542C529.094 333.07 518.598 327.509 507.508 328.035C496.417 328.561 486.495 335.091 481.623 345.068L480.143 343.413Z"/>
	<path d="M490.31 350.012C494.198 348.511 498.573 350.394 500.156 354.249C501.74 358.105 499.951 362.518 496.13 364.183C493.585 365.292 490.639 364.937 488.43 363.257C486.221 361.576 485.094 358.831 485.484 356.083C485.874 353.335 487.721 351.012 490.31 350.012Z"/>
	<path d="M514.767 338.785C518.652 337.664 522.708 339.92 523.805 343.813C524.901 347.706 522.619 351.747 518.719 352.818C514.855 353.88 510.858 351.623 509.771 347.765C508.685 343.907 510.916 339.896 514.767 338.785Z"/>
	<path d="M519.672 354.208C519.938 354.415 520.238 354.585 520.469 354.83C521.038 355.432 521.131 356.402 521.135 357.173C521.153 360.667 517.849 364.16 515.579 366.536C516.291 368.846 517.165 371.272 517.527 373.66C517.785 375.366 518.176 378.431 517.145 379.871L516.303 379.76C515.242 378.48 514.625 377.204 513.94 375.696L511.738 367.97C510.843 367.775 509.919 367.734 509.029 367.504C508.052 367.251 506.943 367.004 506.386 366.154C508.347 364.706 511.864 365.14 514.138 365.459C515.831 361.645 517.798 357.936 519.672 354.208Z"/>
	<path d="M533.551 343.739C534.328 344.035 534.572 344.246 535.166 344.797C535.75 346.602 535.508 347.974 534.958 349.749C534.105 352.503 532.238 355.72 529.434 356.903C527.297 357.805 525.598 357.016 523.531 356.335C522.896 355.717 522.244 354.982 521.977 354.115C521.753 353.387 521.615 352.591 521.931 351.899C523.455 351.385 525.636 352.37 527.212 352.789C530.428 350.793 531.871 346.983 533.551 343.739Z"/>
	<path d="M499.568 364.672C500.745 365.359 501.814 366.041 502.152 367.448C502.519 368.975 501.633 370.668 500.752 371.86C498.135 375.401 494.234 377.387 490.014 378.141C489.41 377.375 488.888 376.544 488.616 375.603C488.223 374.244 488.183 374.164 488.855 373.004C490.446 372.39 491.827 372.637 493.481 372.81L494.25 372.896C497.011 371.262 498.275 367.463 499.568 364.672Z"/>
	<path d="M535.383 339.45C540.341 346.245 542.438 354.713 541.223 363.036C540.82 365.763 540.084 368.369 538.856 370.846L538.583 369.976L537.416 372.052C536.61 371.883 536.946 372.075 536.397 371.493C540.822 362.208 540.255 351.316 534.888 342.542L535.383 339.45Z"/>
	<path d="M480.143 343.413L481.623 345.068C478.446 351.576 477.696 359.004 479.507 366.016C479.141 367.063 478.882 367.809 478.128 368.636C475.287 360.03 476.152 351.478 480.143 343.413Z"/>
	<path d="M514.481 150.099C519.015 149.727 525.173 148.559 529.032 151.464C530.142 153.36 530.239 155.911 530.45 158.068C531.625 170.14 531.841 182.385 532.401 194.499C533.306 217.524 534.693 240.527 536.562 263.494L524.679 263.442C524.087 250.316 522.987 237.191 522.26 224.067C521.271 205.514 520.523 186.948 520.015 168.375C519.992 167.383 519.856 166.411 519.74 165.426C517.556 167.449 488.298 249.83 483.759 261.465L475.425 261.457C471.107 251.392 467.597 240.975 463.943 230.656L449.488 189.456C446.277 180.141 443.525 170.236 439.502 161.264C439.257 180.377 438.178 199.481 437.642 218.588C437.223 233.523 437.567 248.581 435.941 263.456L425.524 263.44C425.789 237.496 427.012 211.478 428.108 185.558C428.497 176.36 428.253 159.38 430.221 151.3C431.517 150.148 433.075 150.003 434.717 149.668C438.702 149.523 442.731 149.863 446.712 150.068C451.273 161.022 454.614 172.41 458.566 183.588C465.969 204.527 473.554 225.345 480.51 246.442C483.951 237.997 486.047 228.778 488.877 220.092C493.096 207.137 498.065 194.409 502.67 181.587C506.459 171.037 509.75 160.277 514.481 150.099Z"/>
	<path d="M372.593 148.66C382.962 147.858 392.309 149.818 401.706 154.157C400.165 157.836 398.56 161.488 396.891 165.11C390.785 161.495 383.332 159.092 376.196 159.16C370.125 159.218 363.912 161.147 359.646 165.639C356.45 169.004 354.794 174.425 355.084 179.014C356.249 197.41 386.176 201.138 397.546 211.678C403.244 216.96 406.353 224.033 406.532 231.788C406.738 240.701 404.595 248.888 398.159 255.415C390.362 263.322 379.521 265.46 368.823 265.512C359.458 265.203 351.215 262.829 343.499 257.559C344.604 253.772 345.422 249.859 346.359 246.025C355.341 252.226 364.304 256.828 375.563 255.273C381.775 254.416 387.737 251.766 391.463 246.544C394.754 241.932 395.457 235.685 394.338 230.227C390.846 213.192 367.832 210.16 355.456 201.693C349.351 197.516 344.601 191.493 343.415 184.026C342.216 176.48 343.907 167.012 348.536 160.863C354.28 153.232 363.515 150.074 372.593 148.66Z"/>
	<path d="M937.173 442.231C950.148 441.065 961.603 450.658 962.733 463.637C963.862 476.615 954.237 488.043 941.256 489.136C928.326 490.225 916.952 480.646 915.827 467.719C914.702 454.792 924.249 443.392 937.173 442.231Z"/>
	<path fill="#E9EBFC" d="M938.147 445.266C949.299 444.618 958.913 453.023 959.761 464.162C960.608 475.3 952.375 485.063 941.254 486.11C933.881 486.804 926.708 483.464 922.492 477.374C918.277 471.285 917.677 463.395 920.923 456.739C924.168 450.082 930.754 445.695 938.147 445.266Z"/>
	<path fill="#FEFEFE" d="M779.616 171.112C783.769 170.816 787.681 171.13 791.519 172.864C797.218 175.44 801.572 180.488 803.686 186.333C805.633 191.717 805.711 197.995 803.107 203.18C800.518 208.333 796.176 211.117 790.905 212.934C786.063 213.656 781.615 213.83 777.018 211.772C772.049 209.547 768.383 205.346 766.568 200.243C764.366 194.047 764.925 186.822 767.931 180.988C770.468 176.066 774.391 172.822 779.616 171.112Z"/>
	<path d="M783.018 186.769C784.819 186.226 786.774 186.703 788.122 188.015C789.471 189.327 790.003 191.267 789.511 193.083C789.018 194.899 787.58 196.305 785.753 196.756C783.026 197.43 780.258 195.806 779.516 193.096C778.774 190.387 780.328 187.579 783.018 186.769Z"/>
</svg>
