<svg xmlns="http://www.w3.org/2000/svg" viewBox="0 0 211.85 111.82"><defs><style>.cls-1{fill:#d86812;}.cls-2{fill:#904115;opacity:0.53;}</style></defs><g id="Calque_2" data-name="Calque 2"><g id="Calque_1-2" data-name="Calque 1"><path class="cls-1" d="M95.76,42.08H107.2c12.36,0,20.32,6.15,20.32,20.05s-8,20.41-19.81,20.41H95.76Zm10.88,33.09c6.87,0,11.5-3.36,11.5-13s-4.63-12.69-11.5-12.69h-1.73V75.17Z"/><path class="cls-1" d="M130.46,67.15c0-10,7.13-16.15,14.53-16.15,8.77,0,13.11,6.37,13.11,14.78a20.3,20.3,0,0,1-.38,4H139.3c.82,4.47,3.88,6.52,8,6.52a12.84,12.84,0,0,0,6.66-2l3,5.5A20,20,0,0,1,146,83.28C137.26,83.28,130.46,77.35,130.46,67.15Zm19.85-3.37c0-3.39-1.48-5.83-5.12-5.83-2.88,0-5.37,1.93-6,5.83Z"/><path class="cls-1" d="M159.51,74c0-6.49,5.17-10,17.35-11.29-.19-2.69-1.53-4.45-4.87-4.45-2.59,0-5.16,1.09-8.15,2.78l-3.25-6a25.18,25.18,0,0,1,13.16-4C181.62,51,186,55.49,186,64.93V82.54h-7.44l-.66-3.16h-.23c-2.59,2.28-5.49,3.9-9,3.9C163.08,83.28,159.51,79.18,159.51,74Zm17.35-.41V68.21c-6.49.88-8.61,2.73-8.61,5.06,0,2,1.37,3,3.53,3S175.24,75.2,176.86,73.59Z"/><path class="cls-1" d="M191.1,51.74h7.44l.66,5.38h.23C201.67,53,205,51,208.18,51a8.45,8.45,0,0,1,3.67.62l-1.52,7.87A12.52,12.52,0,0,0,207,59c-2.32,0-5.14,1.49-6.79,5.69V82.54H191.1Z"/><path class="cls-1" d="M96,94.86h2.31l.24,2.4h.09c1.45-1.57,3.18-2.81,5.15-2.81a4.37,4.37,0,0,1,4.57,3.15c1.72-1.86,3.45-3.15,5.46-3.15,3.4,0,5,2.25,5,6.47v10.49H116V101.28c0-3.08-1-4.4-3.08-4.4-1.29,0-2.62.84-4.15,2.54v12H106V101.28c0-3.08-1-4.4-3.08-4.4-1.24,0-2.62.84-4.15,2.54v12H96Z"/><path class="cls-1" d="M123.19,105.34V94.86H126V105c0,3.08.93,4.4,3.12,4.4,1.69,0,2.86-.83,4.43-2.79V94.86h2.8v16.55H134l-.24-2.59h-.09c-1.54,1.8-3.19,3-5.46,3C124.75,111.82,123.19,109.57,123.19,105.34Z"/><path class="cls-1" d="M139.42,109.52l1.38-1.85a7.45,7.45,0,0,0,4.88,2c2.18,0,3.26-1.15,3.26-2.57,0-1.7-2-2.45-3.79-3.13-2.32-.85-4.93-2-4.93-4.78s2.12-4.7,5.7-4.7a8.35,8.35,0,0,1,5.15,1.86l-1.34,1.79A6.24,6.24,0,0,0,146,96.63c-2.09,0-3.05,1.11-3.05,2.37,0,1.58,1.8,2.18,3.67,2.87,2.39.9,5,1.88,5,5,0,2.68-2.13,4.92-6,4.92A9.92,9.92,0,0,1,139.42,109.52Z"/><path class="cls-1" d="M156.38,109.94a8.78,8.78,0,0,1-2.74-6.79c0-5.38,3.63-8.7,7.44-8.7,4.22,0,6.61,3,6.61,7.76a9,9,0,0,1-.13,1.6H156.41c.2,3.5,2.35,5.77,5.5,5.77a7.24,7.24,0,0,0,4.12-1.32l1,1.84a9.71,9.71,0,0,1-5.46,1.72,7.77,7.77,0,0,1-5.19-1.88m8.83-8.14c0-3.32-1.49-5.12-4.08-5.12-2.32,0-4.4,1.87-4.74,5.12Z"/><path class="cls-1" d="M170.93,105.34V94.86h2.8V105c0,3.08.93,4.4,3.12,4.4,1.69,0,2.87-.83,4.43-2.79V94.86h2.8v16.55h-2.31l-.24-2.59h-.09c-1.53,1.8-3.19,3-5.46,3C172.5,111.82,170.93,109.57,170.93,105.34Z"/><path class="cls-1" d="M189,94.86h2.32l.24,2.4h.09c1.45-1.57,3.18-2.81,5.15-2.81a4.37,4.37,0,0,1,4.57,3.15c1.72-1.86,3.44-3.15,5.46-3.15,3.4,0,5,2.25,5,6.47v10.49h-2.8V101.28c0-3.08-1-4.4-3.08-4.4-1.28,0-2.62.84-4.15,2.54v12H199V101.28c0-3.08-1-4.4-3.08-4.4-1.24,0-2.61.84-4.14,2.54v12H189Z"/><path class="cls-1" d="M58.5,43.09h0a30.48,30.48,0,0,1,5.43,3.77,15.43,15.43,0,0,1,1.9,2,9.77,9.77,0,0,1,.9,1.3h0C69.91,48.81,80.6,44,83.12,23.67c0,0,.73-2.59-4.59,6.45s-9.83,9-9.84,9a.72.72,0,0,1-.48-.66,1.24,1.24,0,0,1,.2-.61c.57-1,3.91-5,3.81-7.63-.08-2.29-4,3.11-4.09,3.25a20.08,20.08,0,0,1-3.92,3s0,0,0,0c.35-.52,4.06-6.15,4.35-17.49a14,14,0,0,1,1-4.9A22.94,22.94,0,0,0,71.38,0h0c-.1,0-1.3.18-1.27,3a9.52,9.52,0,0,1-3.87,7.79,8.8,8.8,0,0,1-2.06-6.24c.14-4.46-2.62,4.3.73,8.06a.52.52,0,0,1,.12.31c0,1.37-.21,10-2.67,14.35,0,0,0,0,0,0-.11-.5-1.32-9.45-3.37-7.75a0,0,0,0,0,0,0c.08.24,2.3,4.67,1,8.75C57,37.47,60.6,38,58.5,43.09Z"/><path class="cls-1" d="M76.11,71.7C74.7,70,68.06,58.57,65.8,53.48a10.89,10.89,0,0,0-.72-1.35l-.18-.27-.08-.13-.08-.1-.28-.38,0,0-.08-.09.06.06a17.39,17.39,0,0,0-2.61-2.66l-.25-.2-.14-.11a23,23,0,0,0-2.5-1.65l-.2-.11-.43-.22L58,46.09,57.84,46l-.21-.09-.12-.06h0A13.72,13.72,0,0,0,53.25,45a.79.79,0,0,1-.78-1,65.27,65.27,0,0,0,1.19-11.27c0-.42-1.13-4.66-1.7.14S45.75,44,44.05,44.73s-15.71-9.85-17-10.81c-.06-.05-.1-.11-.16-.17C22,29,20.94,26,20.61,24.92h0l-.16-.41c-.14-.37-2.29-7.79-1.82-1.81A10.38,10.38,0,0,1,18,26.4a1.67,1.67,0,0,1-2.74.69c-3.73-3.61-7.06-15-7.5-18C7.5,7.69,7.23,6.19,7,4.92a.7.7,0,0,0-1.38,0C4.72,11.5,4.6,15.6,5.12,19c.42,2.78-.41,2.95-2.05,1-.8-1-1.19-2-1.78-2.65C1,17,.45,16.44.15,17-1.62,20.48,13,32.46,14.3,33.49a.69.69,0,0,1,.16.18,17.22,17.22,0,0,1,2.62,6.11,17.78,17.78,0,0,0,.47,2.37.79.79,0,0,0,1.4.25,7.93,7.93,0,0,0,1.4-5.19.78.78,0,0,1,1-.82c6.68,2,15.34,10.82,18,13.67a.73.73,0,0,1,.2.51.78.78,0,0,1-.54.74A.79.79,0,0,1,38.1,51c-2.79-4.57-8.27-4.52-10.18-4.35a.79.79,0,0,0-.72.75c-.43,8.46,6.73,9.09,8.81,9.09a.8.8,0,0,1,.75.55,10.13,10.13,0,0,1,.41,4.65v0a2.86,2.86,0,0,1-.07.28v0c-.83,3.5-7.64,33.4-1.61,49.31a.78.78,0,0,0,.74.51H71.64a.8.8,0,0,0,.8-.8V83.83a.8.8,0,0,0-.93-.78c-5.32.8-11.45-2.71-13.05-4.75a4.58,4.58,0,0,1-1.14-2.67.8.8,0,0,1,.87-.81c3,.31,14,2.71,15,3m-22.62-18s0,0,0-.06,0,0,0,0,0-.09,0-.13a2.87,2.87,0,0,1,.66-.9s0,0,0-.05.18-.17.27-.24l.13-.1.2-.16L52,58,52.1,58l.06,0,.07-.05,0,0,0,0c.16.05.31.12.47.18l.42.18.24.11.51.25.29.15.19.1.38.21c.41.23.79.47,1.15.71l.24.16.65.45.31.22.25.2.17.12.14.11.23.18.16.14,0,0,.15.13h0l.2.17H58l-.42,0-1.05-.1c-.4,0-.78-.11-1.13-.17L55,61.28q-.69-.12-1.26-.27l-.42-.11L53,60.79l-.68-.23-.2-.07a10.18,10.18,0,0,1-1-.41L51,60l-.31-.17-.09-.05h0Z"/><path class="cls-2" d="M58.25,74.9s-9.23.56-7.17,13.29C51.08,88.19,56,74.57,58.25,74.9Z"/></g></g></svg>