<svg xmlns="http://www.w3.org/2000/svg" xmlns:xlink="http://www.w3.org/1999/xlink" viewBox="0 0 159.06 147.06"><defs><style>.cls-1{fill:url(#Dégradé_sans_nom_59);}.cls-2{fill:#4c267e;}.cls-14,.cls-2{opacity:0.14;}.cls-3{fill:url(#Dégradé_sans_nom_59-2);}.cls-4{fill:url(#Dégradé_sans_nom_50);}.cls-5{fill:url(#Dégradé_sans_nom_5);}.cls-6{fill:url(#Dégradé_sans_nom_5-2);}.cls-7{fill:url(#Dégradé_sans_nom_5-3);}.cls-8{fill:url(#Dégradé_sans_nom_5-4);}.cls-9{fill:#a02b50;opacity:0.21;}.cls-10{fill:url(#Dégradé_sans_nom_5-5);}.cls-11{fill:#6cc3d2;opacity:0.29;}.cls-12{opacity:0.1;}.cls-13{fill:#ffeb9e;}.cls-14{fill:#50bed1;}.cls-15{fill:url(#Dégradé_sans_nom_15);}.cls-16{fill:url(#Dégradé_sans_nom_15-2);}.cls-17{fill:url(#Dégradé_sans_nom_15-3);}.cls-18{fill:url(#Dégradé_sans_nom_19);}.cls-19{fill:url(#Dégradé_sans_nom_19-2);}</style><linearGradient id="Dégradé_sans_nom_59" x1="48.33" y1="-106.42" x2="73.68" y2="100.65" gradientUnits="userSpaceOnUse"><stop offset="0" stop-color="#4bbbce"/><stop offset="0.18" stop-color="#4abcdf"/><stop offset="0.33" stop-color="#4abde6"/><stop offset="0.37" stop-color="#47b0de"/><stop offset="0.53" stop-color="#3c81c0"/><stop offset="0.61" stop-color="#386fb4"/><stop offset="0.71" stop-color="#3a68af"/><stop offset="0.84" stop-color="#3e54a0"/><stop offset="0.94" stop-color="#434292"/></linearGradient><linearGradient id="Dégradé_sans_nom_59-2" x1="96.97" y1="-112.38" x2="122.32" y2="94.69" xlink:href="#Dégradé_sans_nom_59"/><linearGradient id="Dégradé_sans_nom_50" x1="75.95" y1="6.97" x2="74.15" y2="116.96" gradientUnits="userSpaceOnUse"><stop offset="0" stop-color="#4bbbce"/><stop offset="0.18" stop-color="#4abcdf"/><stop offset="0.33" stop-color="#4abde6"/><stop offset="0.37" stop-color="#47b0de"/><stop offset="0.57" stop-color="#3c81c0"/><stop offset="0.66" stop-color="#386fb4"/><stop offset="1" stop-color="#47368a"/></linearGradient><linearGradient id="Dégradé_sans_nom_5" x1="70.35" y1="4.12" x2="88.97" y2="59.74" gradientUnits="userSpaceOnUse"><stop offset="0" stop-color="#eadeae"/><stop offset="0.51" stop-color="#ef8d4f"/><stop offset="0.98" stop-color="#e84c49"/></linearGradient><linearGradient id="Dégradé_sans_nom_5-2" x1="87.97" y1="-1.77" x2="106.59" y2="53.84" xlink:href="#Dégradé_sans_nom_5"/><linearGradient id="Dégradé_sans_nom_5-3" x1="71.94" y1="3.51" x2="90.59" y2="59.23" gradientTransform="translate(14.53 -21.42) rotate(15.74)" xlink:href="#Dégradé_sans_nom_5"/><linearGradient id="Dégradé_sans_nom_5-4" x1="69.69" y1="4.34" x2="88.31" y2="59.96" xlink:href="#Dégradé_sans_nom_5"/><linearGradient id="Dégradé_sans_nom_5-5" x1="59" y1="7.9" x2="77.62" y2="63.55" xlink:href="#Dégradé_sans_nom_5"/><linearGradient id="Dégradé_sans_nom_15" x1="208.15" y1="134.76" x2="-28.98" y2="134.76" gradientUnits="userSpaceOnUse"><stop offset="0" stop-color="#386fb4"/><stop offset="0.27" stop-color="#3a68af"/><stop offset="0.66" stop-color="#3e54a0"/><stop offset="0.94" stop-color="#434292"/></linearGradient><linearGradient id="Dégradé_sans_nom_15-2" x1="208.15" y1="137.46" x2="-28.98" y2="137.46" xlink:href="#Dégradé_sans_nom_15"/><linearGradient id="Dégradé_sans_nom_15-3" x1="208.15" y1="137.29" x2="-28.98" y2="137.29" xlink:href="#Dégradé_sans_nom_15"/><linearGradient id="Dégradé_sans_nom_19" x1="155.27" y1="134.76" x2="104.42" y2="134.76" gradientUnits="userSpaceOnUse"><stop offset="0" stop-color="#ef8d4f"/><stop offset="0.98" stop-color="#e84c49"/></linearGradient><linearGradient id="Dégradé_sans_nom_19-2" x1="155.27" y1="137.76" x2="104.42" y2="137.76" xlink:href="#Dégradé_sans_nom_19"/></defs><g id="Calque_2" data-name="Calque 2"><g id="Calque_1-2" data-name="Calque 1"><path class="cls-1" d="M110.07,32C104.73,18.64,92.23,9.24,77.67,9.24c-15.33,0-28.37,10.41-33.18,24.93a.18.18,0,0,1,0,0c-.68,2.48-2.57,12.63-.12,20,9.44,0,18.64,8.11,21.71,19.88,3.51,13.48-2.36,26.68-13.11,29.48s-22.3-5.88-25.81-19.36c-2.49-9.64-.21-19.13,5.23-24.79L31.72,43.5l0-1v0c0-.5-.05-1-.05-1.5,0-22.65,17.78-41,39.7-41C90.27,0,106.11,13.7,110.07,32Z"/><path class="cls-2" d="M52.65,56.28A29.71,29.71,0,0,1,60,69.54C63.49,83,57.62,96.22,46.87,99a17.42,17.42,0,0,1-12.36-1.55c5.13,5.26,12,7.79,18.47,6.1,10.75-2.8,16.62-16,13.11-29.48C63.94,65.85,58.79,59.41,52.65,56.28Z"/><path class="cls-3" d="M123.77,92.31A39.42,39.42,0,0,0,126,77.47c-.61-15.5-9.52-27.9-20.34-28.93a15.63,15.63,0,0,1,3.82-.61c11.09-.43,20.53,10.5,21.08,24.41C130.83,80.29,128.18,87.51,123.77,92.31Z"/><path class="cls-4" d="M75,59.44c0,.22.1.44.16.66l-.2-.7A.12.12,0,0,1,75,59.44Z"/><path class="cls-5" d="M117.19,69.12a23.81,23.81,0,1,1-44.45-3.68,10.2,10.2,0,0,0,.6-1.19c3-6.9-2-13.92-4.67-16.94a6,6,0,0,1-1.52-4.71,10.42,10.42,0,0,1,7.5-8.7l3-.85,5.12,18.17a4.45,4.45,0,1,0,8.56-2.41L86.23,30.64l3-.85a10.38,10.38,0,0,1,10.93,3.5,5.8,5.8,0,0,1,1.26,3.34v.07h0a8.12,8.12,0,0,1-.09,1.39c-.69,4-1.31,12.57,4.86,16.89l.12.07c.33.19.64.38,1,.6l.06,0A23.61,23.61,0,0,1,117.19,69.12Z"/><path class="cls-6" d="M100.75,36.32l.26.94c-.08-.3-.18-.59-.28-.87A.31.31,0,0,1,100.75,36.32Z"/><rect class="cls-7" x="82.8" y="36.21" width="3.94" height="11.3" rx="1.24" transform="translate(-8.18 24.56) rotate(-15.74)"/><path class="cls-8" d="M102.72,88.2a4.7,4.7,0,0,1-9,2.55,4.36,4.36,0,0,1-.16-1.63A4.69,4.69,0,0,0,102,86.73,4.31,4.31,0,0,1,102.72,88.2Z"/><path class="cls-9" d="M117.19,69.12a23.65,23.65,0,0,0-6.8-11.07A23.8,23.8,0,0,1,72.85,86a23.81,23.81,0,0,0,44.34-16.85Z"/><path class="cls-10" d="M84.77,29.7C83,24.81,78,19.79,73.43,18.74c-6-1.37-12.83,1-16.22,5.58a21,21,0,0,0-4,9.06,32.59,32.59,0,0,0,2.85,20s-4-23,8.66-27.07C75.08,23,79,31.07,79,31.07Z"/><path class="cls-11" d="M31.7,42.54l0,1,0,.92C32,22,50,3.82,72.23,3.82A40.42,40.42,0,0,1,108.7,27.08C103.18,11.29,88.54,0,71.36,0,49.44,0,31.67,18.37,31.67,41c0,.51,0,1,0,1.5Z"/><g class="cls-12"><path class="cls-13" d="M84.77,29.7l-.67.16c-2.35-3.64-6.09-6.81-9.63-7.62-6-1.36-12.83,1-16.22,5.59a20.87,20.87,0,0,0-4,9.06,34.72,34.72,0,0,0,.36,13.2,33.7,33.7,0,0,1-1.4-16.71,21,21,0,0,1,4-9.06c3.39-4.55,10.23-6.95,16.22-5.58C78,19.79,83,24.81,84.77,29.7Z"/></g><ellipse class="cls-14" cx="41.85" cy="81.46" rx="8.47" ry="12.01" transform="translate(-20.52 14.4) rotate(-15.74)"/><ellipse class="cls-14" cx="41.85" cy="81.46" rx="6.35" ry="9" transform="translate(-20.52 14.4) rotate(-15.74)"/><path class="cls-15" d="M10.5,132.72H20.83v12.9a28.44,28.44,0,0,1-9.25,1.44Q6,147.06,3,143.85T0,134.7q0-5.8,3.31-9t9.27-3.23a20,20,0,0,1,4.26.43,17.45,17.45,0,0,1,3.5,1.08L18.29,129a12.66,12.66,0,0,0-5.68-1.27,5.39,5.39,0,0,0-4.38,1.84,8,8,0,0,0-1.55,5.26A8.09,8.09,0,0,0,8.08,140a4.86,4.86,0,0,0,4,1.76,11.59,11.59,0,0,0,2.65-.28v-3.75H10.5Z"/><path class="cls-16" d="M37.44,146.73l-1.23-2.45h-.13a7.36,7.36,0,0,1-2.64,2.19,8.77,8.77,0,0,1-3.47.59,5.45,5.45,0,0,1-4.13-1.57,6.15,6.15,0,0,1-1.51-4.42,5,5,0,0,1,2.07-4.42,11.33,11.33,0,0,1,6-1.62l3.09-.1v-.27a2,2,0,0,0-2.26-2.29,13.52,13.52,0,0,0-5.16,1.38l-1.85-4.23a17.84,17.84,0,0,1,8.19-1.67,8,8,0,0,1,5.53,1.77,6.35,6.35,0,0,1,1.95,4.95v12.16Zm-4.75-4.19a2.87,2.87,0,0,0,2-.74,2.42,2.42,0,0,0,.82-1.91v-1.44l-1.47.06c-2.11.08-3.16.85-3.16,2.33C30.87,142,31.47,142.54,32.69,142.54Z"/><path class="cls-17" d="M69,146.73V136.65a6.11,6.11,0,0,0-.52-2.83,1.72,1.72,0,0,0-1.63-.94,2.3,2.3,0,0,0-2.16,1.26,8.59,8.59,0,0,0-.69,4v8.64H57.59V136.65a6.3,6.3,0,0,0-.49-2.83,1.66,1.66,0,0,0-1.59-.94,2.31,2.31,0,0,0-2.19,1.34,10.25,10.25,0,0,0-.69,4.39v8.12h-6.4V128.18h4.83l.8,2.29h.38a4.78,4.78,0,0,1,2.14-1.95,7.35,7.35,0,0,1,3.18-.67c2.67,0,4.55.82,5.63,2.44h.51a5.27,5.27,0,0,1,2.19-1.79,7.26,7.26,0,0,1,3.08-.65,6.34,6.34,0,0,1,4.87,1.69,7.27,7.27,0,0,1,1.57,5.12v12.07Z"/><path class="cls-16" d="M88.72,147.06q-4.64,0-7.19-2.46a9.3,9.3,0,0,1-2.57-7c0-3.13.79-5.54,2.38-7.21a8.86,8.86,0,0,1,6.78-2.52A9,9,0,0,1,94.59,130a8.29,8.29,0,0,1,2.29,6.29v2.85H85.43a3.13,3.13,0,0,0,1.14,2.44,4.45,4.45,0,0,0,2.92.89,14.36,14.36,0,0,0,3.11-.32,15.65,15.65,0,0,0,3.07-1.09v4.6a11.65,11.65,0,0,1-3.12,1.07A22.14,22.14,0,0,1,88.72,147.06Zm-.37-14.85a2.7,2.7,0,0,0-1.9.71,3.41,3.41,0,0,0-.89,2.24h5.5A3.17,3.17,0,0,0,90.3,133,2.5,2.5,0,0,0,88.35,132.21Z"/><path class="cls-18" d="M116.38,134.76l6.39-12h3l-8,14.66v9.28H115v-9.15l-8-14.79h3Z"/><path class="cls-19" d="M136.24,147.06a8.28,8.28,0,0,1-6.28-2.42,9.41,9.41,0,0,1-2.3-6.73,10.45,10.45,0,0,1,2.14-6.9,7.11,7.11,0,0,1,5.74-2.55,6.77,6.77,0,0,1,5.34,2.22,8.5,8.5,0,0,1,2,5.85v1.72H130.48a7.09,7.09,0,0,0,1.6,4.8,5.52,5.52,0,0,0,4.26,1.64,14.52,14.52,0,0,0,5.73-1.21v2.42a14.81,14.81,0,0,1-2.72.89A15.37,15.37,0,0,1,136.24,147.06Zm-.73-16.33a4.45,4.45,0,0,0-3.45,1.41,6.46,6.46,0,0,0-1.51,3.9h9.38a6,6,0,0,0-1.15-3.94A4,4,0,0,0,135.51,130.73Z"/><path class="cls-19" d="M159.06,141.84a4.49,4.49,0,0,1-1.87,3.86,8.76,8.76,0,0,1-5.24,1.36,11.44,11.44,0,0,1-5.57-1.13v-2.52a13.16,13.16,0,0,0,2.78,1,11.59,11.59,0,0,0,2.85.38,6.55,6.55,0,0,0,3.28-.68,2.34,2.34,0,0,0,.24-3.87,14.75,14.75,0,0,0-3.55-1.76,18.54,18.54,0,0,1-3.56-1.63,4.82,4.82,0,0,1-1.57-1.58,4.34,4.34,0,0,1,1.27-5.57,8.28,8.28,0,0,1,4.89-1.27,14.3,14.3,0,0,1,5.67,1.18l-1,2.21a13,13,0,0,0-4.89-1.12,5.7,5.7,0,0,0-2.92.61,1.88,1.88,0,0,0-1,1.67,2,2,0,0,0,.37,1.23,3.64,3.64,0,0,0,1.18,1,28.79,28.79,0,0,0,3.15,1.32,11.8,11.8,0,0,1,4.31,2.34A4.15,4.15,0,0,1,159.06,141.84Z"/></g></g></svg>