<svg xmlns="http://www.w3.org/2000/svg" viewBox="0 0 156.11 120.5"><defs><style>.cls-1{fill:#12ad9a;}</style></defs><g id="Calque_2" data-name="Calque 2"><g id="Calque_1-2" data-name="Calque 1"><path class="cls-1" d="M56.39,20.91V47.19c0,14.36,9.28,19.82,12.76,20.52.83.17,1.27-.59,1.23-1.43-.14-2.83-1.86-1-5.6-7.32a13.5,13.5,0,0,1-1.89-5c-.6-2.5-.72-5.29.61-7.5s4.48-3.41,6.61-2,2.62,4.57,5,5.15a6.8,6.8,0,0,0,2.79-.2,17.94,17.94,0,0,1,4.45-.31c2,.11,4.1.63,5.38,2.15,1.53,1.83,1.39,4.52.8,6.83a33.47,33.47,0,0,1-3.61,7.77c-1.27,1.8.46,2.39,2.56,1.72.23-.07.48-.17.75-.27,4.58-1.87,8.54-6,8.78-18.61.24-12.4,4.36-17.84,6.78-20a1.79,1.79,0,0,0-.15-2.8c-7.75-5.43-12.91,5.41-12.91,5.41V11.48a3.46,3.46,0,0,0-6.91,0v12a1.26,1.26,0,0,1-.37.89,1.25,1.25,0,0,1-.89.37,1.27,1.27,0,0,1-1.27-1.26V3.41a3.41,3.41,0,1,0-6.82,0V23.6a1.27,1.27,0,0,1-.37.9,1.25,1.25,0,0,1-.89.37,1.27,1.27,0,0,1-1.27-1.27V9.67a3.41,3.41,0,0,0-6.82,0v15.7a1.25,1.25,0,0,1-.37.89,1.27,1.27,0,0,1-2.16-.89V20.91a3.1,3.1,0,0,0-6.19,0ZM85.91,45.29a3.33,3.33,0,1,1,6.65,0,3.36,3.36,0,1,1-6.65,0ZM78.39,43a2.43,2.43,0,1,1,4.8,0,2.4,2.4,0,0,1-4.8,0ZM70.6,40.67a2.48,2.48,0,1,1,2.45,2.86A2.68,2.68,0,0,1,70.6,40.67Zm-8.27-.46A1.63,1.63,0,0,1,64.46,39a2.06,2.06,0,0,1-.86,4C62.66,42.78,62.09,41.3,62.33,40.21Z"/><path class="cls-1" d="M24.45,95.21v24.26h-4v-4.4a10.75,10.75,0,0,1-3.73,4,9.48,9.48,0,0,1-5.08,1.39,10.74,10.74,0,0,1-8.42-3.59C1.06,114.51,0,111.35,0,107.4s1-7.17,3.1-9.53a10.49,10.49,0,0,1,8.3-3.54,10,10,0,0,1,5.29,1.37,9.83,9.83,0,0,1,3.62,4.07V95.21Zm-4,12.35A9.55,9.55,0,0,0,18.18,101a7.5,7.5,0,0,0-5.85-2.51,7.46,7.46,0,0,0-5.83,2.31,9.21,9.21,0,0,0-2.1,6.44q0,4.41,2.11,6.79a7.55,7.55,0,0,0,6,2.38A7.47,7.47,0,0,0,18.31,114,9.29,9.29,0,0,0,20.42,107.56Z"/><path class="cls-1" d="M66.52,119.47V105.18q0-3.69-1.48-5.48a5.6,5.6,0,0,0-4.56-1.79,7.07,7.07,0,0,0-3.09.68,6.59,6.59,0,0,0-2.4,1.92,6.1,6.1,0,0,0-1,2.23,18.76,18.76,0,0,0-.32,4.19v12.54h-4V105.18q0-3.69-1.48-5.48a5.6,5.6,0,0,0-4.56-1.79,7.29,7.29,0,0,0-3.12.68,6.58,6.58,0,0,0-2.42,1.92,6.08,6.08,0,0,0-1,2.15,20.47,20.47,0,0,0-.3,4.27v12.54h-4V95.21H36.8V99a10,10,0,0,1,3.61-3.48,9.9,9.9,0,0,1,4.82-1.14,9.46,9.46,0,0,1,5,1.26,7.92,7.92,0,0,1,3.13,3.67,10.67,10.67,0,0,1,3.7-3.71,9.82,9.82,0,0,1,5-1.22A7.9,7.9,0,0,1,70.63,103v16.52Z"/><path class="cls-1" d="M92.8,107.41a2.66,2.66,0,0,1-.21,1,2.51,2.51,0,0,1-.6.88,2.75,2.75,0,0,1-.91.61,2.57,2.57,0,0,1-1,.22A2.8,2.8,0,0,1,89,110a3,3,0,0,1-.9-.6,3,3,0,0,1-.6-.89,2.67,2.67,0,0,1-.2-1.06,2.7,2.7,0,0,1,.2-1.06,2.8,2.8,0,0,1,.6-.89,2.92,2.92,0,0,1,.9-.59,2.72,2.72,0,0,1,1.07-.2,2.71,2.71,0,0,1,2,.8,2.73,2.73,0,0,1,.81,1.94Z"/><path class="cls-1" d="M128.3,113.71v4.83a13.37,13.37,0,0,1-3.7,1.47,18.94,18.94,0,0,1-4.44.49,12,12,0,0,1-9-3.56,13,13,0,0,1-3.44-9.38A13.19,13.19,0,0,1,111.23,98a12,12,0,0,1,9.09-3.7,17.88,17.88,0,0,1,3.94.43A16.28,16.28,0,0,1,127.88,96v4.46a13.78,13.78,0,0,0-3.29-1.58,11.3,11.3,0,0,0-3.45-.54,8.71,8.71,0,0,0-6.55,2.55,9.42,9.42,0,0,0-2.46,6.8,8.53,8.53,0,0,0,2.48,6.26,8.34,8.34,0,0,0,6.21,2.52,10.64,10.64,0,0,0,3.69-.66A16,16,0,0,0,128.3,113.71Z"/><path class="cls-1" d="M134.08,119.47V78.37h4.06V99a10.11,10.11,0,0,1,3.76-3.48A10.94,10.94,0,0,1,147,94.33a9.37,9.37,0,0,1,6.71,2.28,8.29,8.29,0,0,1,2.41,6.34v16.52h-4.24V105.18q0-3.69-1.55-5.48a6,6,0,0,0-4.79-1.79,8.3,8.3,0,0,0-3.38.68,6.71,6.71,0,0,0-2.53,1.92,5.94,5.94,0,0,0-1.1,2.17,18.63,18.63,0,0,0-.33,4.25v12.54Z"/><path class="cls-1" d="M80.39,95a13.24,13.24,0,0,0-3.84,4.33,5.8,5.8,0,0,1-1.35-5.45A5.78,5.78,0,0,1,80.39,95Z"/><path class="cls-1" d="M99.7,95a14.53,14.53,0,0,1,1.55,1.31,13,13,0,0,1,2.28,3,5.83,5.83,0,0,0,1.36-5.45A5.78,5.78,0,0,0,99.7,95Z"/><path class="cls-1" d="M102.24,102.38a12.48,12.48,0,0,0-2.87-4.2,13.55,13.55,0,0,0-4.31-2.87,13.06,13.06,0,0,0-5-1,13.82,13.82,0,0,0-2.24.18A12.68,12.68,0,0,0,85,95.3a12.26,12.26,0,0,0-2.72,1.51,13.61,13.61,0,0,0-1.55,1.31,12.75,12.75,0,0,0-2.29,3,13.35,13.35,0,0,0-.57,1.21,12.9,12.9,0,0,0-1,4.5c0,.19,0,.37,0,.55a12.65,12.65,0,0,0,1,5,13.21,13.21,0,0,0,7.14,7.1,13.21,13.21,0,0,0,5.08,1,12.84,12.84,0,0,0,5-1,13.65,13.65,0,0,0,4.33-2.91,12.6,12.6,0,0,0,2.87-4.18,12.88,12.88,0,0,0,1-5A13.09,13.09,0,0,0,102.24,102.38Zm-6,11.53A8.23,8.23,0,0,1,90,116.58a8.34,8.34,0,0,1-6.23-2.67,9,9,0,0,1-2.57-6.51c0-.33,0-.66,0-1a9,9,0,0,1,1-3.43,9.19,9.19,0,0,1,1.52-2.1c.15-.16.32-.32.49-.47a8.23,8.23,0,0,1,4-2,9.35,9.35,0,0,1,1.7-.15,8.26,8.26,0,0,1,6.18,2.66,9.61,9.61,0,0,1,0,13Z"/></g></g></svg>