<svg xmlns="http://www.w3.org/2000/svg" xmlns:xlink="http://www.w3.org/1999/xlink" viewBox="0 0 232.01 47.17"><defs><style>.cls-1{fill:url(#Dégradé_sans_nom_27);}.cls-2{fill:url(#Dégradé_sans_nom_27-2);}.cls-3{fill:url(#Dégradé_sans_nom_27-3);}.cls-4{fill:url(#Dégradé_sans_nom_27-4);}.cls-5{fill:url(#Dégradé_sans_nom_27-5);}.cls-6{fill:url(#Dégradé_sans_nom_27-6);}.cls-7{fill:url(#Dégradé_sans_nom_27-7);}.cls-8{fill:url(#Dégradé_sans_nom_27-8);}</style><linearGradient id="Dégradé_sans_nom_27" x1="15.08" y1="18.1" x2="221.39" y2="20.6" gradientUnits="userSpaceOnUse"><stop offset="0" stop-color="#632aff"/><stop offset="1" stop-color="#8627a0"/></linearGradient><linearGradient id="Dégradé_sans_nom_27-2" x1="15.08" y1="17.85" x2="221.39" y2="20.36" xlink:href="#Dégradé_sans_nom_27"/><linearGradient id="Dégradé_sans_nom_27-3" x1="15.08" y1="17.49" x2="221.39" y2="19.99" xlink:href="#Dégradé_sans_nom_27"/><linearGradient id="Dégradé_sans_nom_27-4" x1="15.09" y1="17.15" x2="221.4" y2="19.65" xlink:href="#Dégradé_sans_nom_27"/><linearGradient id="Dégradé_sans_nom_27-5" x1="15.09" y1="16.76" x2="221.4" y2="19.26" xlink:href="#Dégradé_sans_nom_27"/><linearGradient id="Dégradé_sans_nom_27-6" x1="15.1" y1="16.44" x2="221.41" y2="18.94" xlink:href="#Dégradé_sans_nom_27"/><linearGradient id="Dégradé_sans_nom_27-7" x1="15.1" y1="16.07" x2="221.41" y2="18.57" xlink:href="#Dégradé_sans_nom_27"/><linearGradient id="Dégradé_sans_nom_27-8" x1="-50.03" y1="6.2" x2="136.05" y2="49.32" xlink:href="#Dégradé_sans_nom_27"/></defs><g id="Calque_2" data-name="Calque 2"><g id="Calque_1-2" data-name="Calque 1"><path class="cls-1" d="M55.75,37.13H42.45a8.62,8.62,0,0,1-6.86-3.34,8.88,8.88,0,0,1-1.88-5.43,9.08,9.08,0,0,1,.23-2.05L39.42,3.73,40.3,0H64.83L63.05,7.22H44.65l.75,2.51-.67,2.85h17L60,19.79H43L41,28l0,.36A1.21,1.21,0,0,0,41,29a2.25,2.25,0,0,0,.22.37,1.66,1.66,0,0,0,.43.37,1.36,1.36,0,0,0,.76.2H57.51Z"/><path class="cls-2" d="M84.29,37.13H69.93a8.3,8.3,0,0,1-4.42-1.2,9.08,9.08,0,0,1-3.14-3.2,8.53,8.53,0,0,1-1.16-4.35,9.59,9.59,0,0,1,.23-2L66.9,3.86,67.78.05H82.19a8.32,8.32,0,0,1,4.44,1.21,8.78,8.78,0,0,1,3.13,3.19,8.47,8.47,0,0,1,1.15,4.32,8.89,8.89,0,0,1-.23,2.05ZM78.6,29.89l5-20.76a2.19,2.19,0,0,0,0-.36,1.54,1.54,0,0,0-.1-.55,1.61,1.61,0,0,0-.21-.38,1.12,1.12,0,0,0-.4-.37,1.37,1.37,0,0,0-.77-.2h-10l.75,2.46L68.48,28.05l0,.36a1.34,1.34,0,0,0,.1.56,3,3,0,0,0,.21.37,1.77,1.77,0,0,0,.45.36,1.43,1.43,0,0,0,.74.19Z"/><path class="cls-3" d="M107.89,37.1l-7.58-21-5.07,21H87.81L95.88,3.78,96.74.05h5.43l7.56,20.88L114.8.05h7.37l-9,37.05Z"/><path class="cls-4" d="M142.17,37.13H127.78A8.59,8.59,0,0,1,121,33.79a8.85,8.85,0,0,1-1.88-5.41,8.74,8.74,0,0,1,.23-2l1-4.17,4.45-18.34.83-3.8h12.65a8.62,8.62,0,0,1,6.84,3.31A8.85,8.85,0,0,1,147,8.75a9.12,9.12,0,0,1-.23,2.07l-1.63,6.65a5.8,5.8,0,0,1-1,2.12,8.81,8.81,0,0,1,1,4.16,8.65,8.65,0,0,1-.23,2Zm-5.69-7.24L137.9,24a2.14,2.14,0,0,0,0-.34,1.68,1.68,0,0,0-.09-.58,1.48,1.48,0,0,0-.2-.38,2.18,2.18,0,0,0-.44-.37,1.3,1.3,0,0,0-.75-.2h-8.69L126.34,28a2.6,2.6,0,0,0,0,.36,1.6,1.6,0,0,0,.09.56,1.06,1.06,0,0,0,.22.38,1.37,1.37,0,0,0,.43.38,1.39,1.39,0,0,0,.73.19ZM138.29,15l1.42-5.85,0-.39a1.27,1.27,0,0,0-.1-.54,1.39,1.39,0,0,0-.23-.37,1.66,1.66,0,0,0-.43-.37,1.32,1.32,0,0,0-.74-.2H130l.75,2.49L129.49,15Z"/><path class="cls-5" d="M154.88,0l4.21,11.75L169.06,0h9.49L161.11,20.57l-4,16.56h-7.45l4.37-18.06L148.59,3.78,147.24,0Z"/><path class="cls-6" d="M179.09,37.13l7.2-29.68h-7.74l.85-3.59L180.23,0H204l-1.76,7.42h-9.68L193.3,10l-6.57,27.14Z"/><path class="cls-7" d="M222.93,37.13h-13.3a8.61,8.61,0,0,1-6.86-3.34,8.83,8.83,0,0,1-1.89-5.43,9.69,9.69,0,0,1,.23-2.05L206.6,3.73,207.48,0H232l-1.79,7.22H211.83l.75,2.51-.68,2.85h17l-1.79,7.21h-17l-2,8.23-.05.36a1.2,1.2,0,0,0,.12.57,1.71,1.71,0,0,0,.22.37,1.44,1.44,0,0,0,.42.37,1.4,1.4,0,0,0,.77.2h15.06Z"/><polygon class="cls-8" points="9.18 39.95 14.95 16.12 22.53 37.1 27.86 37.1 36.81 0.05 29.44 0.05 24.37 20.93 16.81 0.05 11.38 0.05 10.52 3.78 0 47.17 4.42 47.17 7.43 47.17 220.25 47.17 222.36 39.95 9.18 39.95"/></g></g></svg>