<svg xmlns="http://www.w3.org/2000/svg" xmlns:xlink="http://www.w3.org/1999/xlink" viewBox="0 0 180.03 113.86"><defs><style>.cls-1{fill:url(#Dégradé_sans_nom_133);}.cls-2{fill:url(#Dégradé_sans_nom_133-2);}.cls-3{fill:url(#Dégradé_sans_nom_133-3);}.cls-4{fill:url(#Dégradé_sans_nom_133-4);}.cls-5{fill:url(#Dégradé_sans_nom_133-5);}.cls-6{fill:url(#Dégradé_sans_nom_133-6);}.cls-7{fill:url(#Dégradé_sans_nom_133-7);}.cls-8{fill:url(#Dégradé_sans_nom_133-8);}</style><linearGradient id="Dégradé_sans_nom_133" y1="90.99" x2="36.17" y2="90.99" gradientUnits="userSpaceOnUse"><stop offset="0" stop-color="#2b52b5"/><stop offset="1" stop-color="#2b75b5"/></linearGradient><linearGradient id="Dégradé_sans_nom_133-2" x1="35.11" y1="90.99" x2="68.79" y2="90.99" xlink:href="#Dégradé_sans_nom_133"/><linearGradient id="Dégradé_sans_nom_133-3" x1="65.01" y1="90.99" x2="107.06" y2="90.99" xlink:href="#Dégradé_sans_nom_133"/><linearGradient id="Dégradé_sans_nom_133-4" x1="106.03" y1="91.14" x2="144.67" y2="91.14" xlink:href="#Dégradé_sans_nom_133"/><linearGradient id="Dégradé_sans_nom_133-5" x1="144.45" y1="90.99" x2="180.03" y2="90.99" xlink:href="#Dégradé_sans_nom_133"/><linearGradient id="Dégradé_sans_nom_133-6" x1="18.51" y1="23.67" x2="98.66" y2="23.67" xlink:href="#Dégradé_sans_nom_133"/><linearGradient id="Dégradé_sans_nom_133-7" x1="91.45" y1="24.47" x2="134.24" y2="24.47" xlink:href="#Dégradé_sans_nom_133"/><linearGradient id="Dégradé_sans_nom_133-8" x1="120.6" y1="24.47" x2="161.52" y2="24.47" xlink:href="#Dégradé_sans_nom_133"/></defs><g id="Calque_2" data-name="Calque 2"><g id="Calque_1-2" data-name="Calque 1"><path class="cls-1" d="M21.1,113.86a20.3,20.3,0,0,1-9.22-2,19.54,19.54,0,0,1-6.59-5.27,23.09,23.09,0,0,1-4-7.38A26.93,26.93,0,0,1,0,90.83a27.21,27.21,0,0,1,1.28-8.27,22.87,22.87,0,0,1,3.85-7.29,19.05,19.05,0,0,1,6.45-5.21,19.81,19.81,0,0,1,9-2,28,28,0,0,1,7.85,1.11A28.61,28.61,0,0,1,35,71.92L34.4,81.5h-.69q-.66-7.62-5.37-10.58a14.19,14.19,0,0,0-7.74-2.13,14.55,14.55,0,0,0-7.48,1.88,16.05,16.05,0,0,0-5.3,5,23,23,0,0,0-3.15,7,30.65,30.65,0,0,0-1,8A31.22,31.22,0,0,0,4.7,98.84,23.11,23.11,0,0,0,8,106.08a17.09,17.09,0,0,0,5.67,5.16,16.13,16.13,0,0,0,8.1,1.94,14.49,14.49,0,0,0,7.38-2.05,17.41,17.41,0,0,0,6.13-6.41h.87a18.56,18.56,0,0,1-6.77,6.93A16.73,16.73,0,0,1,21.1,113.86Z"/><path class="cls-2" d="M65.48,113.55H35.11v-.69a6.22,6.22,0,0,0,3.58-2c.76-.92,1.14-2.47,1.14-4.63V75.72a8.25,8.25,0,0,0-1-4.37,6,6,0,0,0-3.75-2.24v-.69H47.79v.69a6.46,6.46,0,0,0-3.58,2q-1.14,1.38-1.14,4.65v37.14H53.15q6.06-.15,9.52-2.12a13.35,13.35,0,0,0,5.25-5.21h.87Z"/><path class="cls-3" d="M86.05,113.86a18.93,18.93,0,0,1-10.58-3.12,22.89,22.89,0,0,1-7.62-8.32,24.42,24.42,0,0,1,0-22.86,22.92,22.92,0,0,1,7.62-8.33,19.45,19.45,0,0,1,21.13,0,22.8,22.8,0,0,1,7.61,8.33,24.35,24.35,0,0,1,0,22.86,22.77,22.77,0,0,1-7.61,8.32A18.88,18.88,0,0,1,86.05,113.86Zm3-2.56a14.27,14.27,0,0,0,5.52-1.17,17.06,17.06,0,0,0,5.12-3.32,15,15,0,0,0,3.87-6.15,23.26,23.26,0,0,0,1.19-7.4A21.6,21.6,0,0,0,103.08,85a24.42,24.42,0,0,0-4.62-7.24,23.08,23.08,0,0,0-6.81-5.11,18.37,18.37,0,0,0-8.25-1.9,14.9,14.9,0,0,0-11.89,5.51,17.91,17.91,0,0,0-3.14,5.68,20.11,20.11,0,0,0-1.08,6.54A21.15,21.15,0,0,0,69.1,97,25.28,25.28,0,0,0,74,104.37a23.43,23.43,0,0,0,7,5.08A18.65,18.65,0,0,0,89.05,111.3Z"/><path class="cls-4" d="M125.19,113.86a17.86,17.86,0,0,1-5.2-.78,15.19,15.19,0,0,1-4.66-2.32,11.22,11.22,0,0,1-4.59-9.38V75.72q0-3.27-1.14-4.65a6.47,6.47,0,0,0-3.57-2v-.69H118.7v.69a6.46,6.46,0,0,0-3.58,2Q114,72.45,114,75.72v25.53a11.48,11.48,0,0,0,1.1,5.17,10.75,10.75,0,0,0,2.91,3.67,12.8,12.8,0,0,0,4.08,2.2,14.35,14.35,0,0,0,4.49.73,14.59,14.59,0,0,0,4.56-.73,13.13,13.13,0,0,0,4.09-2.19,10.69,10.69,0,0,0,2.95-3.65,11.42,11.42,0,0,0,1.11-5.2V75.72q0-3.27-1.14-4.65a6.46,6.46,0,0,0-3.58-2v-.69h10.12v.69a6.46,6.46,0,0,0-3.58,2Q140,72.45,140,75.72v25.66a11.26,11.26,0,0,1-1.29,5.52,12,12,0,0,1-3.42,3.89,15.37,15.37,0,0,1-4.74,2.31A18.88,18.88,0,0,1,125.19,113.86Z"/><path class="cls-5" d="M163.27,113.55H144.45v-.69a6.23,6.23,0,0,0,3.57-2c.76-.92,1.14-2.47,1.14-4.63V75.72q0-3.27-1.14-4.65a6.47,6.47,0,0,0-3.57-2v-.69h18.82a13.08,13.08,0,0,1,8.39,3.06,21.43,21.43,0,0,1,6.09,8.19,29.34,29.34,0,0,1,0,22.68,21.32,21.32,0,0,1-6.09,8.16A13.11,13.11,0,0,1,163.27,113.55Zm-2.72-.65a13.43,13.43,0,0,0,8.12-2.7,18.66,18.66,0,0,0,5.88-7.64,28.28,28.28,0,0,0,2.2-11.64,29.14,29.14,0,0,0-2.25-11.76,17.61,17.61,0,0,0-5.86-7.46,13.74,13.74,0,0,0-8.09-2.59h-8.14V112.9Z"/><path class="cls-6" d="M77.65,47.35a18.84,18.84,0,0,1-10.56-3.12,22.91,22.91,0,0,1-7.6-8.32,23.52,23.52,0,0,1-2.84-11.44,23.83,23.83,0,0,1,1.53-8.55,23.43,23.43,0,0,1,4.24-7.15q-1.74-2.08-3.54-3.89A18,18,0,0,0,55.14,2,8.38,8.38,0,0,0,50.94.87a6,6,0,0,0-4,1.41,4.87,4.87,0,0,0-1.56,3.87,10.19,10.19,0,0,0,.75,3.79c.5,1.26,1.07,2.53,1.72,3.82a41,41,0,0,1,1.93,4.33,14.35,14.35,0,0,1,.91,4.66l0,8.09,0,16.2h-1L23.91,6.9V39.76q0,3.26,1.14,4.62a6.48,6.48,0,0,0,3.57,2V47H18.51v-.69a6.48,6.48,0,0,0,3.57-2q1.14-1.37,1.14-4.62V9.21c0-2.19-.38-3.74-1.14-4.67a6.28,6.28,0,0,0-3.57-1.95V1.9h6.33L50,41.1V22.75a13.27,13.27,0,0,0-.87-4.85,41.93,41.93,0,0,0-2-4.29A34.63,34.63,0,0,1,45.4,9.94a10.07,10.07,0,0,1-.74-3.79,6,6,0,0,1,.92-3.39A5.93,5.93,0,0,1,48.05.7,8.29,8.29,0,0,1,51.53,0,9.49,9.49,0,0,1,55.9,1.06a18.18,18.18,0,0,1,4,2.78,37.16,37.16,0,0,1,3.63,3.77A21.12,21.12,0,0,1,70,3.18,19.47,19.47,0,0,1,88.24,4.71,22.83,22.83,0,0,1,95.84,13a23.59,23.59,0,0,1,2.82,11.44,23.62,23.62,0,0,1-2.82,11.44,22.83,22.83,0,0,1-7.6,8.32A19,19,0,0,1,77.65,47.35Zm2.63-2.28a16.09,16.09,0,0,0,7.13-1.5,14.82,14.82,0,0,0,5.13-4,17.73,17.73,0,0,0,3.11-5.78,21.76,21.76,0,0,0,1-6.69,22.74,22.74,0,0,0-3.4-11.66,25.31,25.31,0,0,0-8.58-8.57,8.92,8.92,0,0,1,1.87,5.28,7.52,7.52,0,0,1-1.09,4.14,7.13,7.13,0,0,1-2.95,2.59,9.59,9.59,0,0,1-4.17.89,12.76,12.76,0,0,1-5.93-1.52,21.24,21.24,0,0,1-4.88-3.7q-2.24-2.25-4.23-4.68l-.53-.59a16.4,16.4,0,0,0-3.2,6,24.58,24.58,0,0,0-1,6.9,21.75,21.75,0,0,0,3,11,25,25,0,0,0,7.86,8.49A20,20,0,0,0,80.28,45.07ZM79,19a6.79,6.79,0,0,0,5-1.91,6.64,6.64,0,0,0,1.93-5A6.84,6.84,0,0,0,84,7.35a10.69,10.69,0,0,0-4.33-2.67A14.79,14.79,0,0,0,75,3.84a17.38,17.38,0,0,0-5.93,1,15.54,15.54,0,0,0-5.18,3.17l.75.91c.92,1.12,1.89,2.26,2.93,3.42a35.12,35.12,0,0,0,3.34,3.23A17.12,17.12,0,0,0,74.74,18,10,10,0,0,0,79,19Z"/><path class="cls-7" d="M113.39,47h-.72q-2.83-8-7.11-18.92T98.44,9.21a10.63,10.63,0,0,0-2.71-4.64,9.35,9.35,0,0,0-4.28-2V1.9h12.89v.69A6,6,0,0,0,102,3.78a2.72,2.72,0,0,0-.84,2.15,9.51,9.51,0,0,0,.78,3.28l12.54,32.86q2.44-6.74,5.37-14.54,4-10.62,6.71-18.32a10.88,10.88,0,0,0,.69-3.31,2.77,2.77,0,0,0-.8-2.14,5.66,5.66,0,0,0-2.32-1.17V1.9h10.14v.69a9.37,9.37,0,0,0-4.26,2,10.54,10.54,0,0,0-2.73,4.64q-2.91,8.24-7.15,19.5Q116.11,39.33,113.39,47Z"/><path class="cls-8" d="M161.52,47H148.66v-.69A5.7,5.7,0,0,0,151,45.18a2.72,2.72,0,0,0,.79-2.11,10.49,10.49,0,0,0-.72-3.31l-3.18-9.24H131.53l-3.19,9.24a10.49,10.49,0,0,0-.72,3.31,2.73,2.73,0,0,0,.8,2.11,5.66,5.66,0,0,0,2.32,1.17V47H120.6v-.69a9.71,9.71,0,0,0,4.26-2,10.39,10.39,0,0,0,2.73-4.59L140.7,1.9h.72l13.11,37.86a10.39,10.39,0,0,0,2.73,4.59,9.71,9.71,0,0,0,4.26,2Zm-13.89-17.2L139.7,6.9l-7.93,22.94Z"/></g></g></svg>