<svg xmlns="http://www.w3.org/2000/svg" viewBox="0 0 294.66 129.34"><defs><style>.cls-1{fill:#325aa5;}.cls-2{fill:#ed8507;}</style></defs><g id="Calque_2" data-name="Calque 2"><g id="Calque_1-2" data-name="Calque 1"><path class="cls-1" d="M179.66,12.08a22.58,22.58,0,0,0-8.56-8.15,24.3,24.3,0,0,0-11.9-3H142.9v9.88a13.49,13.49,0,0,1,5,5.07,13.93,13.93,0,0,1,1.64,4.66h2.12V9.22h7.87a14.78,14.78,0,0,1,7.37,1.86,13.71,13.71,0,0,1,5.21,5.15A14.4,14.4,0,0,1,174,23.56a14.35,14.35,0,0,1-1.88,7.32l-.1.17A13.61,13.61,0,0,1,166.91,36a14.08,14.08,0,0,1-4.67,1.65,15.29,15.29,0,0,1-2.65.22H142.9v8.26h16.4a24.13,24.13,0,0,0,11.85-3,23.85,23.85,0,0,0,2.43-1.54,22.21,22.21,0,0,0,6.09-6.6,21.2,21.2,0,0,0,1.89-4,22.3,22.3,0,0,0,1.25-7.49A21.66,21.66,0,0,0,179.66,12.08Z"/><path class="cls-1" d="M122.68,39.91a13.54,13.54,0,0,1,5.08-5,14.1,14.1,0,0,1,4.65-1.64,15.49,15.49,0,0,1,2.66-.22h16.69V24.81h-16.4a24.14,24.14,0,0,0-11.85,3A22.68,22.68,0,0,0,115,35.92a21.37,21.37,0,0,0-1.89,4,22.24,22.24,0,0,0-1.25,7.48A21.58,21.58,0,0,0,115,58.87,22.55,22.55,0,0,0,123.56,67a24.29,24.29,0,0,0,11.9,3h16.3V60.13a13.59,13.59,0,0,1-5-5.08,14.26,14.26,0,0,1-1.65-4.66h-2.1V61.73h-7.88a14.71,14.71,0,0,1-7.37-1.87,13.68,13.68,0,0,1-5.21-5.14,15.17,15.17,0,0,1,0-14.65A1.4,1.4,0,0,1,122.68,39.91Z"/><path class="cls-1" d="M172,31.05A13.61,13.61,0,0,1,166.91,36a14.08,14.08,0,0,1-4.67,1.65v2.11h11.34v7.88A14.74,14.74,0,0,1,171.72,55a13.57,13.57,0,0,1-5.15,5.21,15.12,15.12,0,0,1-14.64,0l-.17-.1a13.59,13.59,0,0,1-5-5.08,14.26,14.26,0,0,1-1.65-4.66,15.37,15.37,0,0,1-.22-2.65V31.05h-8.26v16.4a24.13,24.13,0,0,0,3,11.85,25,25,0,0,0,1.54,2.43,22.34,22.34,0,0,0,6.6,6.09,21.62,21.62,0,0,0,4,1.89A22.24,22.24,0,0,0,159.24,71a21.66,21.66,0,0,0,11.48-3.15,22.55,22.55,0,0,0,8.15-8.55,24.19,24.19,0,0,0,3-11.9V31.05Z"/><path class="cls-1" d="M155,11.66a21.45,21.45,0,0,0-1.54-2.44,22.14,22.14,0,0,0-6.59-6.08,20.67,20.67,0,0,0-4-1.89A22.05,22.05,0,0,0,135.41,0a21.68,21.68,0,0,0-11.48,3.15,22.63,22.63,0,0,0-8.15,8.55,24.32,24.32,0,0,0-3,11.9V39.91h9.87a13.54,13.54,0,0,1,5.08-5,14.1,14.1,0,0,1,4.65-1.64V31.19H121.07V23.31A14.68,14.68,0,0,1,122.94,16a13.68,13.68,0,0,1,5.14-5.21,15.14,15.14,0,0,1,14.65,0l.17.11a13.49,13.49,0,0,1,5,5.07,13.93,13.93,0,0,1,1.64,4.66,15.49,15.49,0,0,1,.22,2.66V39.91H158V23.51A24,24,0,0,0,155,11.66Z"/><path class="cls-1" d="M0,128.54V90.14H13.86A20.67,20.67,0,0,1,24,92.67a19.29,19.29,0,0,1,7.27,6.93,19.11,19.11,0,0,1,0,19.5A19.18,19.18,0,0,1,24,126a20.53,20.53,0,0,1-10.07,2.52Zm14.19-7a12.35,12.35,0,0,0,6.21-1.59,11.45,11.45,0,0,0,4.4-4.36,12.15,12.15,0,0,0,1.6-6.21,12.29,12.29,0,0,0-1.61-6.24,11.69,11.69,0,0,0-4.43-4.37,12.58,12.58,0,0,0-6.26-1.58H7.41v24.35Z"/><path class="cls-1" d="M43.33,127.33a15,15,0,0,1-5.46-5.44,14.64,14.64,0,0,1-2-7.53,15.16,15.16,0,0,1,28.27-7.59,14.86,14.86,0,0,1,2,7.59,14.84,14.84,0,0,1-7.5,13,15.21,15.21,0,0,1-7.69,2A14.91,14.91,0,0,1,43.33,127.33Zm11.81-5.66a8.06,8.06,0,0,0,3-3,8.55,8.55,0,0,0,1.09-4.29A8.67,8.67,0,0,0,58.11,110a8.26,8.26,0,0,0-3-3.06,8.19,8.19,0,0,0-8.27,0,8.23,8.23,0,0,0-3,3.06,8.77,8.77,0,0,0-1.09,4.32,8.68,8.68,0,0,0,1.09,4.31,8.15,8.15,0,0,0,3,3,8.28,8.28,0,0,0,8.28,0Z"/><path class="cls-1" d="M75.2,127.33a15,15,0,0,1-5.46-5.44,14.64,14.64,0,0,1-2-7.53,15.14,15.14,0,1,1,30.28,0,14.84,14.84,0,0,1-7.5,13,15.22,15.22,0,0,1-7.7,2A14.88,14.88,0,0,1,75.2,127.33ZM87,121.67a8.06,8.06,0,0,0,3-3,8.66,8.66,0,0,0,1.09-4.29A8.77,8.77,0,0,0,90,110,8.26,8.26,0,0,0,87,107a8.19,8.19,0,0,0-8.27,0,8.23,8.23,0,0,0-3,3.06,8.67,8.67,0,0,0-1.09,4.32,8.58,8.58,0,0,0,1.09,4.31,8.15,8.15,0,0,0,3,3,8.28,8.28,0,0,0,8.28,0Z"/><path class="cls-1" d="M122.36,88.23h7v40.31h-6.1l-.49-3.36a12.07,12.07,0,0,1-3.85,3,11.17,11.17,0,0,1-5,1.08,13.63,13.63,0,0,1-7.2-2,14.61,14.61,0,0,1-5.26-5.44,15.24,15.24,0,0,1,5.27-20.5,13.6,13.6,0,0,1,7.19-2,11,11,0,0,1,8.36,3.53Zm-3.6,33.3a7.87,7.87,0,0,0,3-3,8.38,8.38,0,0,0,1.1-4.27,8.58,8.58,0,0,0-1.1-4.31,8,8,0,0,0-3-3,8.15,8.15,0,0,0-4.16-1.09,7.94,7.94,0,0,0-4.1,1.09,7.85,7.85,0,0,0-2.92,3,9.18,9.18,0,0,0,0,8.6,7.72,7.72,0,0,0,2.91,3,8.07,8.07,0,0,0,4.11,1.06A8.25,8.25,0,0,0,118.76,121.53Z"/><path class="cls-1" d="M141.61,128.54h-7V87.6h7Z"/><path class="cls-1" d="M151.91,116.57a8,8,0,0,0,2.94,4.81,8.42,8.42,0,0,0,5.34,1.75,9.7,9.7,0,0,0,6.81-2.62l3.33,4.84a15,15,0,0,1-4.71,2.92,16,16,0,0,1-5.84,1,14.44,14.44,0,0,1-12.85-7.46,15.29,15.29,0,0,1-1.91-7.52,16,16,0,0,1,1.81-7.57,13.87,13.87,0,0,1,5-5.45,13.29,13.29,0,0,1,7.2-2,14.56,14.56,0,0,1,7.6,1.9,12.44,12.44,0,0,1,4.87,5.26,17.07,17.07,0,0,1,1.66,7.68,16.81,16.81,0,0,1-.16,2.43Zm2.7-9.66a7.77,7.77,0,0,0-2.65,4.36h14.49a7.66,7.66,0,0,0-2.47-4.39,7,7,0,0,0-4.66-1.54A7.31,7.31,0,0,0,154.61,106.91Z"/><path class="cls-2" d="M178.42,128.54V90.14h12.74a19.71,19.71,0,0,1,9.92,2.56,19,19,0,0,1,7.13,7,19.18,19.18,0,0,1,0,19.39,19.14,19.14,0,0,1-7.1,6.94,19.61,19.61,0,0,1-9.87,2.54Zm12.87-2.7a16.63,16.63,0,0,0,8.42-2.19,16.53,16.53,0,0,0,6-22.62,16.41,16.41,0,0,0-6.1-6,16.83,16.83,0,0,0-8.47-2.18h-9.9v33Z"/><path class="cls-2" d="M238.55,100.47h2.73v28.07H238.6v-5.93l0-.38a13.71,13.71,0,0,1-4.64,5.06,12,12,0,0,1-6.62,1.88,12.66,12.66,0,0,1-6.86-1.94,13.78,13.78,0,0,1-4.92-5.29,16.11,16.11,0,0,1,0-14.8,13.84,13.84,0,0,1,4.92-5.31,12.6,12.6,0,0,1,6.86-2,12,12,0,0,1,6.55,1.85,13.41,13.41,0,0,1,4.63,5ZM233.19,125a11,11,0,0,0,4-4.31,13.41,13.41,0,0,0,0-12.23,11.29,11.29,0,0,0-4-4.33,10.5,10.5,0,0,0-5.67-1.59,10.24,10.24,0,0,0-5.6,1.59,11.22,11.22,0,0,0-4,4.33,13.62,13.62,0,0,0,0,12.23,11.16,11.16,0,0,0,4,4.31,10.39,10.39,0,0,0,5.6,1.57A10.72,10.72,0,0,0,233.19,125Z"/><path class="cls-2" d="M250,128a15.85,15.85,0,0,1-5.08-3l1.64-2a15.39,15.39,0,0,0,4.44,2.56,14.55,14.55,0,0,0,5.4,1.07,9.92,9.92,0,0,0,3.84-.7,6.12,6.12,0,0,0,2.62-1.94,4.63,4.63,0,0,0,.94-2.88,4.12,4.12,0,0,0-.93-2.76,6.81,6.81,0,0,0-2.69-1.82,33.14,33.14,0,0,0-4.74-1.43,17.14,17.14,0,0,1-6.64-2.91,6.1,6.1,0,0,1-2.41-5,6.24,6.24,0,0,1,1.15-3.67,7.74,7.74,0,0,1,3.33-2.63,12.79,12.79,0,0,1,5.17-1,17.05,17.05,0,0,1,5.34.86,13.21,13.21,0,0,1,4.47,2.45l-1.61,2a13.26,13.26,0,0,0-3.76-2,13.53,13.53,0,0,0-4.5-.74,9.93,9.93,0,0,0-3.63.6,5.14,5.14,0,0,0-2.32,1.65,4.14,4.14,0,0,0-.1,4.75,6.24,6.24,0,0,0,2.3,1.79,22,22,0,0,0,4.36,1.49,35.89,35.89,0,0,1,5.23,1.69,9.06,9.06,0,0,1,3.46,2.5,6.18,6.18,0,0,1,1.34,4.09,7.22,7.22,0,0,1-1.3,4.19,8.7,8.7,0,0,1-3.62,2.94,12.54,12.54,0,0,1-5.28,1.07A17.54,17.54,0,0,1,250,128Z"/><path class="cls-2" d="M289.44,101.23a9.35,9.35,0,0,1,3.85,4,13.86,13.86,0,0,1,1.37,6.44v16.83h-2.73V112.06q0-4.62-2.34-7.1a8.43,8.43,0,0,0-6.46-2.49,9.93,9.93,0,0,0-8.56,4.84,9.74,9.74,0,0,0-1.36,5.13v16.1H270.5V87.68h2.71v17.74a10.37,10.37,0,0,1,2.51-2.86,12.43,12.43,0,0,1,3.64-2,12.71,12.71,0,0,1,4.26-.73A11.82,11.82,0,0,1,289.44,101.23Z"/></g></g></svg>