<svg xmlns="http://www.w3.org/2000/svg" viewBox="0 0 173.78 93.04"><defs><style>.cls-1{fill:#e53528;}</style></defs><g id="Calque_2" data-name="Calque 2"><g id="Calque_1-2" data-name="Calque 1"><path class="cls-1" d="M14.76,59.64l-6,25,16.59-25h7.8q-5,7.47-7.1,10.73l-3.58,5.4q-1.26,1.88-3.59,5.39L11,93H0L7.26,63l.86-3.35Z"/><path class="cls-1" d="M48.13,93h-12A7.77,7.77,0,0,1,30,90a8,8,0,0,1-1.7-4.89,8.29,8.29,0,0,1,.21-1.83L33.45,63l.79-3.36H56.3l-1.6,6.5H38.15l.67,2.26-.6,2.56H53.53l-1.6,6.49H36.66l-1.82,7.4,0,.33a1.13,1.13,0,0,0,.1.51,2.18,2.18,0,0,0,.2.33,1.63,1.63,0,0,0,.38.33,1.22,1.22,0,0,0,.69.18H49.72Z"/><path class="cls-1" d="M70.87,93h-12a7.44,7.44,0,0,1-4-1.1A8.27,8.27,0,0,1,52.09,89,7.63,7.63,0,0,1,51,85.12a8,8,0,0,1,.21-1.83L56.16,63,57,59.61h6.65L57.61,84.82l-.07.33a1.06,1.06,0,0,0,.1.5c.07.13.14.24.2.34a1.62,1.62,0,0,0,.38.32,1.31,1.31,0,0,0,.69.17H72.55Z"/><path class="cls-1" d="M83.91,59.64l-6,25,16.59-25h7.8l-7.1,10.73-3.58,5.4Q90.31,77.65,88,81.16L80.11,93h-11L76.41,63l.87-3.35Z"/><path class="cls-1" d="M118.22,93H105.3a7.5,7.5,0,0,1-4-1.09,8.16,8.16,0,0,1-2.82-2.87,7.61,7.61,0,0,1-1-3.91,8.93,8.93,0,0,1,.2-1.84l4.92-20.23.79-3.42h13a7.51,7.51,0,0,1,4,1.08,8,8,0,0,1,2.82,2.88,7.63,7.63,0,0,1,1,3.89,8,8,0,0,1-.21,1.83ZM113.1,86.5l4.54-18.67c0-.11,0-.22,0-.32a1.28,1.28,0,0,0-.09-.5,2,2,0,0,0-.19-.34,1.08,1.08,0,0,0-.36-.34,1.22,1.22,0,0,0-.69-.17h-9l.68,2.21-4,16.48,0,.32a1.21,1.21,0,0,0,.09.5,2.58,2.58,0,0,0,.19.34,1.63,1.63,0,0,0,.41.33,1.31,1.31,0,0,0,.66.16Z"/><path class="cls-1" d="M135.37,93l-7.19-8.8L126.06,93h-6.68l7.26-30,.82-3.4H140.4a8,8,0,0,1,3.41.75,7.63,7.63,0,0,1,2.76,2.2,8.06,8.06,0,0,1,1.67,4.87,9.13,9.13,0,0,1-.18,1.79l-2.61,11.24H133.51L143.75,93Zm4.91-19,1.45-6.26,0-.32a1,1,0,0,0-.1-.49c-.07-.13-.14-.24-.2-.33a1.43,1.43,0,0,0-.38-.33,1.41,1.41,0,0,0-.69-.16h-9l.67,2.12L130.65,74Z"/><path class="cls-1" d="M165.61,93h-12a7.78,7.78,0,0,1-6.17-3,8,8,0,0,1-1.69-4.89,8.29,8.29,0,0,1,.21-1.83L150.92,63l.79-3.36h22.07l-1.61,6.5H155.62l.68,2.26-.61,2.56H171l-1.61,6.49H154.13l-1.81,7.4,0,.33a1.13,1.13,0,0,0,.1.51,2.18,2.18,0,0,0,.2.33,1.52,1.52,0,0,0,.39.33,1.16,1.16,0,0,0,.68.18h13.55Z"/><path class="cls-1" d="M82.94,0l-6,25L93.48,0h7.8q-5,7.47-7.1,10.73l-3.58,5.4c-.84,1.26-2,3.05-3.59,5.39L79.14,33.4h-11l7.26-30L76.3,0Z"/><path class="cls-1" d="M97.47,0l.86,3.35L105.6,33.4h-11Q89.1,25,86.77,21.52l-3.59-5.39-3.58-5.4L72.5,0h7.8L96.89,25l-6-25Z"/></g></g></svg>