<svg xmlns="http://www.w3.org/2000/svg" viewBox="0 0 239.66 41.86"><defs><style>.cls-1{fill:#e53528;}</style></defs><g id="Calque_2" data-name="Calque 2"><g id="Calque_1-2" data-name="Calque 1"><path class="cls-1" d="M49.68,37.65V21.07h12.6v-4.2H49.68V4.2h15V0H37.54V41.86H67.22V37.65Z"/><path class="cls-1" d="M100.65,32.54c-.33-3.95-.94-6.61-1.86-8s-2.91-2.63-6-3.77q9-2.31,9-9.92A9.21,9.21,0,0,0,97.61,3q-4.2-3-11.22-3h-18V41.86H80.53V21.74h2.09q5.82,0,5.82,7.25l.07,3.11,0,2.49a18.36,18.36,0,0,0,1.27,7.27H103C101.82,40.35,101,37.24,100.65,32.54ZM83,18.28H80.53V3.86H83q6.9,0,6.9,7.21T83,18.28Z"/><path class="cls-1" d="M122.79,0H105.43V41.86h16.69q19.17,0,19.17-20.88T122.79,0Zm4,34.61a6.1,6.1,0,0,1-6.07,3.79h-3.19V3.47h3.19a6.07,6.07,0,0,1,6.08,3.77q1.68,3.76,1.68,13.68T126.84,34.61Z"/><path class="cls-1" d="M163,0H152.36L140,41.86h4.75l2.66-9.08H160l2.49,9.08h12.2ZM148.58,28.58,153.92,10l4.94,18.55Z"/><path class="cls-1" d="M201.85,0V28.61L182.77,0h-7.69V41.86h4.08V15.36l17.48,26.5h9.29V0Z"/><path class="cls-1" d="M206.17,0V4.2h10.34V41.86h12.88V4.2h10.27V0Z"/><polygon class="cls-1" points="0.11 0.03 11.2 41.86 0 41.86 0 0.03 0.11 0.03"/><polygon class="cls-1" points="29.68 0.03 20.64 31.71 12.38 0.03 29.68 0.03"/><polygon class="cls-1" points="34.74 0.03 34.74 41.86 22.08 41.86 34.22 0.03 34.74 0.03"/></g></g></svg>