<svg xmlns="http://www.w3.org/2000/svg" viewBox="0 0 137.61 176.4"><defs><style>.cls-1{fill:#dfa756;}.cls-2{fill:#723f24;}</style></defs><g id="Calque_2" data-name="Calque 2"><g id="Calque_1-2" data-name="Calque 1"><path class="cls-1" d="M128.33,59.26,116.93,53a103.61,103.61,0,0,1-12.32-7.92,103.92,103.92,0,0,1,3.11-14.31l3.65-12.48a.76.76,0,0,0-1-.95L98,21a104.09,104.09,0,0,1-14.32,3.12A105.84,105.84,0,0,1,75.71,11.8L69.48.4A.78.78,0,0,0,68.8,0a.75.75,0,0,0-.67.4L61.89,11.8A103.28,103.28,0,0,1,54,24.13,104,104,0,0,1,39.66,21L27.19,17.36a.76.76,0,0,0-.76.19.77.77,0,0,0-.2.76l3.66,12.48A105.42,105.42,0,0,1,33,45.1,104.43,104.43,0,0,1,20.68,53L9.27,59.26a.76.76,0,0,0,0,1.34l11.41,6.24A104.43,104.43,0,0,1,33,74.76a105.09,105.09,0,0,1-3.11,14.31l-3.66,12.48a.77.77,0,0,0,.2.76.79.79,0,0,0,.76.19l12.47-3.65A104,104,0,0,1,54,95.73a103.16,103.16,0,0,1,7.92,12.32l6.24,11.41a.75.75,0,0,0,.67.4.78.78,0,0,0,.68-.4l6.23-11.41a106.57,106.57,0,0,1,7.92-12.32A104.09,104.09,0,0,1,98,98.85l12.47,3.65a.79.79,0,0,0,.76-.19.76.76,0,0,0,.19-.76l-3.65-12.48a103.92,103.92,0,0,1-3.11-14.31,103.61,103.61,0,0,1,12.32-7.92l11.4-6.24a.76.76,0,0,0,0-1.34m-12.14,6.23a105.4,105.4,0,0,0-12.87,8.32.76.76,0,0,0-.3.72,105.83,105.83,0,0,0,3.23,15l3.26,11.13L98.38,97.37a106.24,106.24,0,0,0-15-3.22.75.75,0,0,0-.72.3,105.32,105.32,0,0,0-8.31,12.87L68.8,117.49l-5.56-10.17a105,105,0,0,0-8.31-12.87.77.77,0,0,0-.62-.31h-.1a105.64,105.64,0,0,0-15,3.22L28.1,100.63,31.36,89.5a105.81,105.81,0,0,0,3.22-15,.76.76,0,0,0-.29-.72,105.93,105.93,0,0,0-12.88-8.32L11.24,59.93l10.17-5.57a104.67,104.67,0,0,0,12.88-8.31.76.76,0,0,0,.29-.72,105.81,105.81,0,0,0-3.22-15L28.1,19.23l11.13,3.26a105.64,105.64,0,0,0,15,3.22.78.78,0,0,0,.72-.3,106.52,106.52,0,0,0,8.31-12.87L68.8,2.37l5.57,10.17a105.32,105.32,0,0,0,8.31,12.87.78.78,0,0,0,.72.3,106.24,106.24,0,0,0,15-3.22l11.13-3.26-3.26,11.13a105.83,105.83,0,0,0-3.23,15,.77.77,0,0,0,.3.72,105.32,105.32,0,0,0,12.87,8.31l10.18,5.57Z"/><path class="cls-1" d="M100.51,46.8A106.93,106.93,0,0,1,104,29.71l2.07-7.09L99,24.69a106.81,106.81,0,0,1-17.08,3.53,107.76,107.76,0,0,1-9.59-14.57L68.8,7.16l-3.54,6.49a107.76,107.76,0,0,1-9.59,14.57,107.15,107.15,0,0,1-17.09-3.53l-7.09-2.07,2.08,7.09A108,108,0,0,1,37.1,46.8a107.47,107.47,0,0,1-14.58,9.58L16,59.93l6.48,3.54A108.49,108.49,0,0,1,37.1,73.06a108,108,0,0,1-3.53,17.09l-2.08,7.09,7.09-2.08a107.13,107.13,0,0,1,17.09-3.52,107.76,107.76,0,0,1,9.59,14.57l3.54,6.49,3.55-6.49a107.76,107.76,0,0,1,9.59-14.57A106.78,106.78,0,0,1,99,95.16l7.09,2.08L104,90.15a106.93,106.93,0,0,1-3.53-17.09,107.24,107.24,0,0,1,14.58-9.59l6.48-3.54-6.48-3.55a106.24,106.24,0,0,1-14.58-9.58"/><path class="cls-2" d="M69.92,48.27a1.43,1.43,0,0,1-1.86.71c-.66-.26-.77-1-.79-1.59-1,.06-1,.06-3.4,2.25-.57-1.77-1.19-4.42.94-5.41a9.94,9.94,0,0,1,4.58-.94,10.92,10.92,0,0,1,2.21.33,9.65,9.65,0,0,1,1.16.35c.44.16.53.37.79.77a1.69,1.69,0,0,1-.77.13,4.05,4.05,0,0,1-.78-.33,4.69,4.69,0,0,0-5.17,1.27c.89.2,1.73.49,2.6.77a15.21,15.21,0,0,1,2.63.93c-.25.41-.21.53-.71.61s-.95.1-1.43.15"/><path class="cls-2" d="M61.57,39.91c-.2.8-.39,1.6-.59,2.41.64.31,1.66.62,1.64,1.5A1.4,1.4,0,0,1,61,45.09c-1.21-.16-1.05-1.32-.89-2.23s.39-2.44,1.26-3l.21.09"/><path class="cls-2" d="M62.13,55.15c.62-.55,1.92.12,1.69-1.48.46,1.22-.19,1.72-1.69,1.48"/><path class="cls-2" d="M85.66,44.51l-.17.21a2.39,2.39,0,0,1-.15-.37,1.45,1.45,0,0,1-.09-.22l.41.38"/><path class="cls-2" d="M86.25,48.8c.14.33.29.66.4,1,1.52,4.41,4.09,8.28,6.37,12.29,2.5,4.42,4.77,8.93,5.84,14,.07.35.15.71.24,1.1-.07,0-.11,0-.12,0-1.79-6.4-5-12.14-8.33-17.81a41.64,41.64,0,0,1-4-8.24c-.23-.72-.4-1.45-.6-2.18l.16-.06"/><path class="cls-2" d="M91,79.85a30.34,30.34,0,0,1-7-12.49c-.72-2.67-1.42-5.35-2.08-8a41.52,41.52,0,0,0-4.69-12c-.75-1.23-1.66-2.37-2.49-3.55l-.21.09a5.31,5.31,0,0,0-.09,1c.14,2.86.35,5.72.45,8.6s-.15,5.79-2.13,8.13a29.25,29.25,0,0,1-2.48,2.5c-.32.31-2.06,1.57-1.75,2.11a.57.57,0,0,0,.45.21,2.26,2.26,0,0,0,.66-.19,15.36,15.36,0,0,0,5-3.53A2.16,2.16,0,0,0,75,62c.08.09.15.19.22.28.58,2,1.17,3.95,1.7,5.75-.29.72-.53,1.34-.79,2-1.36-1.06-2.91-1.29-3.85-.59a1.73,1.73,0,0,0-.61,2A7,7,0,0,1,72.43,70a1.69,1.69,0,0,1,1.38-.43,4,4,0,0,1,3,2.57,1.39,1.39,0,0,1-.44,1.7c-.67.42-1.52,0-2.1-.41-.9-.61-1.78-1.25-2.67-1.88-.5,1.29.94,1.79,1.2,2.84a20.94,20.94,0,0,0-2.43-2.09c-.69-.44-1.22-.17-1.81.31A4.34,4.34,0,0,0,67,74.73a3.53,3.53,0,0,0,.41,2.42c.2.4.42.78.63,1.15-1.09,1.49-1.77-1.85-2.57-2.22a2.55,2.55,0,0,0-1.93.32,5.28,5.28,0,0,0-1.62,1.36,26.86,26.86,0,0,1,.44-5.66c.17-.89.37-1.79.62-2.67A9.37,9.37,0,0,1,64.1,67c-1-.51-2.53-.61-3-2.23l.62-.35c.43.66.69,1.49,1.75,1.48-.36-.47-.72-.93-1.09-1.44l1.28-.31c-1.49-.74-1.51-.75-1.52-1.14H63.2a.8.8,0,0,1,0-.15l-1.52-.72-1.19,1.13v-1.9a13.45,13.45,0,0,0,4.1-.38,8.33,8.33,0,0,0,2.92-2.46l-.65-.89-.1.07.2.71a3.31,3.31,0,0,1-2.87-.55c-.91-.67-1.79-1.12-2.87-.52-.27.15-.84-.26-1.27-.41a2.94,2.94,0,0,1,.5-1c.15-.17.4-.29.45-.55.1-.52-.71-.68-1-.92-.83-.6-.18-1.77,0-2.56a10.65,10.65,0,0,0-1.27-8.44,7.36,7.36,0,0,1-1-5c.33,0,.61,0,.89,0a40.39,40.39,0,0,1,12.2,2.62c4.6,1.86,9.12,3.93,13.72,5.8l.13-.25a57.5,57.5,0,0,0-5.47-3.07c-2-.92-4-1.78-6-2.67a41.14,41.14,0,0,0-10-3c-1.24-.19-3.08.07-3.59-1.35a9.41,9.41,0,0,1-.41-5.3c.22.77.49,1.53.65,2.32s.22,1.36.37,2l.79-.34a5.61,5.61,0,0,1,1.21.76,8,8,0,0,1,.81,1.12,2.11,2.11,0,0,0,.56-.81l2-.29c.48.41.82.69,1.16,1,.07-.47.15-.94.22-1.41a3.65,3.65,0,0,1,2.81-1.63,3.24,3.24,0,0,1,2.75,1.38c.24.35.58,1.33,1.1,1.33s.4-.63.4-1a17.94,17.94,0,0,1,4,5.6l.36-.12q-.12-1.12-.24-2.22c1.39,1.07,2.84,2.06,4.14,3.24s2.46,2.56,3.68,3.85a8.4,8.4,0,0,0,.18-1.11,20.9,20.9,0,0,0-2.88-12.38,12,12,0,0,0-5.47-5,32.31,32.31,0,0,0-5.49-1.79,16.17,16.17,0,0,0-12.56,1.84,14.18,14.18,0,0,0-2,1.44,11.45,11.45,0,0,0-1.26,1.25,14.18,14.18,0,0,0-2.75,13.64,13.41,13.41,0,0,1,.44,6.41,12.54,12.54,0,0,0,2.23,9c.71,1.08,1.36,2.2,2,3.33.5.86,1.72,2.09.95,3.06a33.32,33.32,0,0,0-4.86,7.27c-.27.65-.53,1.3-.76,2-.08.27-.16.55-.23.82s-.11.79-.15,1.18a22.13,22.13,0,0,0-.07,2.7,24.53,24.53,0,0,0,1.3,7c.3.62.62,1.23,1,1.83a16.2,16.2,0,0,0,4,4.72,5.31,5.31,0,0,0,2.38,1.13A1.78,1.78,0,0,0,62.73,93a24.4,24.4,0,0,0-.37-3.9c-.3-2.67-.54-5.3-.65-8,.58,1,1,1.82,1.53,2.59a2.38,2.38,0,0,0,3.3.8,2.62,2.62,0,0,0,1.78-3.09c-.16-.68-.43-1.33-.67-2l.76-.53c.38.5.7.94,1,1.36A2.92,2.92,0,0,0,74,80a2.54,2.54,0,0,0,.26-2.47,21.19,21.19,0,0,1-1-3,5,5,0,0,0,1.47.61,3,3,0,0,0,2.46-1.57,1.62,1.62,0,0,0-.15-2c-.83-1-.23-1.7.18-2.61.78,1.85,1.42,3.66,2.31,5.34a22.56,22.56,0,0,0,3.21,5A20.57,20.57,0,0,0,89.52,84a31.36,31.36,0,0,1,11.59,8.61ZM64.4,59c-1.11.84-2.92.71-3.31-.21L64.4,59m-1-28.82a2.45,2.45,0,0,1,1.06-.76c.11.4.45.82.16,1.2s-.82.65-1.13.52-.26-.68-.09-1m8.87,3.92A4.81,4.81,0,0,0,69,33.18l.43-1.82a4.39,4.39,0,0,1,2.91,2.52l.33.58q-.23-.21-.45-.39m4.74,4c-1.11-1.19-2.2-2.38-3.32-3.6l-.21-.22,1.23-.54h0l.18-.08L77.14,38,77,38.1m-.61-3L80.73,34a6.16,6.16,0,0,1-3.54,2.77c-.3-.63-.58-1.2-.81-1.71m1.38,2,1.33-.77c.74.74,1.44,1.51,2.23,2.21s1.71,1.28,2.57,1.91c-2,.79-5.08-.87-6.13-3.35m7.49,7h0L82,41.06a2.14,2.14,0,0,1,2.06.68,4,4,0,0,1,.29.39,2,2,0,0,1,.14.25,8.17,8.17,0,0,1,.38.79l.16.4.15.39.06.17h0l.08.21a1.45,1.45,0,0,1-.09-.22m0-1.56-.11.06-1-1.6h.86c.08.53.14,1,.2,1.54M85,40.49l-2-1.08,1.66-.31c.08.4.17.77.31,1.39m-.45-2c-1.17.38-2.19.57-3.13-.35-.67-.65-1.39-1.26-2.13-1.92a5.82,5.82,0,0,0,2.34-3.27l-4,1.25c-1.11.34-2,.42-2.4-.85,1.17-1.19,2.36-2.46,2.09-4.58,4,2.13,5.83,5.69,7.19,9.72m-8.87-6.59v0a5.32,5.32,0,0,1-1.3,1.19c-.26.17-.85.63-1.2.59a.37.37,0,0,1-.18-.08,2,2,0,0,1-.47-.81A8.41,8.41,0,0,0,76.74,30a6.74,6.74,0,0,1-1,1.89m-7.9-5.4a26,26,0,0,1,8.09,1.58c.49.18.56.43.41.88a5,5,0,0,1-2.91,2.88,3.15,3.15,0,0,1-1,.39,2.29,2.29,0,0,1-1-.48L70.19,31c-.19-.13-.79-.38-.83-.64a6.46,6.46,0,0,0-2.46-3.61,3.51,3.51,0,0,1,.92-.22m-2.1.84c2.34,1.05,3.33,3.28,2.38,5.34a2.7,2.7,0,0,1-4.74.2c.71-.67,2.62-1.91,2-3.08a2.24,2.24,0,0,0-1.78-1.25,5.15,5.15,0,0,0-.6.05,2.17,2.17,0,0,1,2.79-1.26M58.15,50.49a8.65,8.65,0,0,1-.58,2.06c-.17.44-.43,1.67-.89,1.87-.88.4-1.47-3-1.52-3.53a3.11,3.11,0,0,1,.17-1.71c.24-.35.73-.33,1.12-.32,1,0,1.82.5,1.7,1.63m2.32,13.09,1-.25.17.11-.72,1c-.18-.39-.29-.61-.42-.9m7.24,17.73c.1.46.11.94.19,1.4a13.34,13.34,0,0,1-4.44-5.66,10.86,10.86,0,0,1,1.37-.44.63.63,0,0,1,.56.24c.59,1,1.17,2,1.71,3.09a5.79,5.79,0,0,1,.61,1.37m6.2-3.12a4.56,4.56,0,0,1-.11,1.22,7.45,7.45,0,0,1-4.75-4.16c-.31-.67-.63-2.07.11-2.58s1.48.34,2,.8a8.21,8.21,0,0,1,2.74,4.72"/><polygon class="cls-2" points="29.01 175.82 33.74 169.53 29.26 169.53 29.26 169.01 34.4 169.01 34.4 169.5 29.71 175.77 34.5 175.77 34.4 176.29 29.01 176.29 29.01 175.82"/><rect class="cls-2" x="37.86" y="169.01" width="0.56" height="7.29"/><polygon class="cls-2" points="44.11 169.53 41.66 169.53 41.66 169.01 47.13 169.01 47.13 169.53 44.68 169.53 44.68 176.29 44.11 176.29 44.11 169.53"/><polygon class="cls-2" points="54.58 172.71 50.86 172.71 50.86 175.77 54.93 175.77 54.85 176.29 50.3 176.29 50.3 169.01 54.77 169.01 54.77 169.53 50.86 169.53 50.86 172.19 54.58 172.19 54.58 172.71"/><polygon class="cls-2" points="62.54 175.82 67.27 169.53 62.79 169.53 62.79 169.01 67.93 169.01 67.93 169.5 63.24 175.77 68.03 175.77 67.93 176.29 62.54 176.29 62.54 175.82"/><rect class="cls-2" x="71.39" y="169.01" width="0.56" height="7.29"/><polygon class="cls-2" points="77.64 169.53 75.19 169.53 75.19 169.01 80.67 169.01 80.67 169.53 78.21 169.53 78.21 176.29 77.64 176.29 77.64 169.53"/><path class="cls-2" d="M89.75,172.6c0,2-1.06,3.8-3.31,3.8-2,0-3.24-1.66-3.24-3.75s1.15-3.75,3.32-3.75c2,0,3.23,1.57,3.23,3.7m-6,0c0,1.67.93,3.26,2.67,3.26,1.89,0,2.68-1.54,2.68-3.27s-.9-3.19-2.65-3.19-2.7,1.55-2.7,3.2"/><path class="cls-2" d="M94,169v4.41c0,1.94,1.09,2.44,2.12,2.44,1.22,0,2.13-.51,2.13-2.44V169h.57v4.38c0,2.28-1.21,3-2.72,3s-2.68-.79-2.68-2.9V169Z"/><path class="cls-2" d="M103,176.29V169h.84c1.13,1.74,3.8,5.81,4.25,6.61h0c-.06-1.06,0-2.13,0-3.31V169h.57v7.28h-.77c-1.08-1.68-3.78-5.92-4.3-6.72h0c.06,1,0,2,0,3.34v3.38Z"/><path class="cls-2" d="M18.11,137.72H5.88a10.38,10.38,0,0,0-2.53.32,10.73,10.73,0,0,0-2.23.8v-5.06H24l.15,3.46L5.88,155.13h14.2a10.38,10.38,0,0,0,2.53-.32,10.94,10.94,0,0,0,2.23-.8v5.06H0v-3.53Z"/><path class="cls-2" d="M30.87,155.57l7.85-17.44a5.72,5.72,0,0,0,.44-2.23,7.1,7.1,0,0,0-.11-1.28,4.37,4.37,0,0,0-.22-.84H48s-.07.23-.19.61A5.53,5.53,0,0,0,47.6,136a5.22,5.22,0,0,0,.45,2.16l7.85,17.44a7.69,7.69,0,0,0,1.5,2.31,8.53,8.53,0,0,0,1.36,1.19H50.91a5.53,5.53,0,0,0,.3-1.9,6.14,6.14,0,0,0-.52-2.49l-1.26-2.9H37.34l-1.26,2.9a6,6,0,0,0-.53,2.49,5.53,5.53,0,0,0,.3,1.9H28a8.39,8.39,0,0,0,2.87-3.5m12.72-17.36h-.23L39,148h8.78Z"/><path class="cls-2" d="M63.23,154.31V138.54a10.51,10.51,0,0,0-.32-2.53,11.17,11.17,0,0,0-.8-2.23h6.4a11.27,11.27,0,0,0-1.12,4.76v5.73H84v-5.73A10.49,10.49,0,0,0,83.7,136a11.17,11.17,0,0,0-.8-2.23h6.4a11.27,11.27,0,0,0-1.12,4.76v15.77a11.27,11.27,0,0,0,1.12,4.76H82.9a10.94,10.94,0,0,0,.8-2.23,10.43,10.43,0,0,0,.31-2.53v-6.25H67.39v6.25a11.27,11.27,0,0,0,1.12,4.76h-6.4a10.94,10.94,0,0,0,.8-2.23,10.44,10.44,0,0,0,.32-2.53"/><path class="cls-2" d="M97.85,154.31V138.54a11.27,11.27,0,0,0-1.12-4.76h6.4a11.17,11.17,0,0,0-.8,2.23,10.49,10.49,0,0,0-.31,2.53v15.77a10.43,10.43,0,0,0,.31,2.53,10.94,10.94,0,0,0,.8,2.23h-6.4a11.27,11.27,0,0,0,1.12-4.76"/><path class="cls-2" d="M109.71,155.57l7.85-17.44a5.55,5.55,0,0,0,.45-2.23,7.1,7.1,0,0,0-.11-1.28,4.22,4.22,0,0,0-.23-.84h9.15s-.06.23-.18.61a5.87,5.87,0,0,0,.26,3.74l7.84,17.44a8.39,8.39,0,0,0,2.87,3.5h-7.85a5.53,5.53,0,0,0,.3-1.9,6.31,6.31,0,0,0-.52-2.49l-1.27-2.9H116.18l-1.26,2.9a5.94,5.94,0,0,0-.52,2.49,5.53,5.53,0,0,0,.3,1.9h-7.85a8.11,8.11,0,0,0,1.36-1.19,7.69,7.69,0,0,0,1.5-2.31m12.72-17.36h-.22L117.86,148h8.78Z"/></g></g></svg>