<svg xmlns="http://www.w3.org/2000/svg" viewBox="0 0 232.01 57.45"><defs><style>.cls-1{fill:#3347aa;}.cls-2{fill:#dfa756;}</style></defs><g id="Calque_2" data-name="Calque 2"><g id="Calque_1-2" data-name="Calque 1"><path class="cls-1" d="M22.25,51.83a10.93,10.93,0,0,1-1.1.55l-1.57.69c-.55.24-1.07.45-1.57.63a3.74,3.74,0,0,1-1.17.27,1.82,1.82,0,0,1-1.25-.52,6.05,6.05,0,0,1-1-1.3,11.78,11.78,0,0,1-.81-1.63c-.22-.57-.43-1.05-.61-1.45-.68-1.65-1.35-3.31-2-5s-1.31-3.34-1.94-5c-.11-.29-.26-.72-.45-1.28l-.64-1.92c-.25-.71-.51-1.49-.8-2.33s-.58-1.7-.86-2.56c-.2-.43-.38-.89-.56-1.37s-.34-1-.48-1.4S5.11,27.34,5,27s-.21-.66-.29-.87a2.39,2.39,0,0,0-.08-.39l-.14-.38-.73.42a2.86,2.86,0,0,1-.89.36A1.26,1.26,0,0,1,2,26a1.29,1.29,0,0,1-.56-.49,7.27,7.27,0,0,1-.57-.87,6.51,6.51,0,0,1-.44-.93C.28,23.41.19,23.17.13,23A4.58,4.58,0,0,1,0,22.28a1.24,1.24,0,0,1,.12-.69,2.53,2.53,0,0,1,.66-1.11,6.64,6.64,0,0,1,1.06-.84A13.05,13.05,0,0,1,3.07,19c.42-.2.84-.41,1.24-.62A35.37,35.37,0,0,1,9.25,16c1.71-.65,3.47-1.23,5.26-1.75,1-.26,2-.47,3.09-.63a12.15,12.15,0,0,1,3.13-.08,12.9,12.9,0,0,1,4.49,1.29,10,10,0,0,1,3.45,2.7,6.86,6.86,0,0,1,1.53,3.64A5.87,5.87,0,0,1,29,25.28a21,21,0,0,1-2,2.58,10.31,10.31,0,0,1,4.19.93,8.08,8.08,0,0,1,3.17,2.38,6.36,6.36,0,0,1,.91,1.46c.23.52.44,1.06.63,1.63a7,7,0,0,1,.3,2.93A10,10,0,0,1,35.48,40a15.48,15.48,0,0,1-1.4,2.67,28,28,0,0,1-1.74,2.44,13.41,13.41,0,0,1-2.18,2.15A20.66,20.66,0,0,1,27.66,49c-.89.51-1.79,1-2.7,1.46ZM17.84,36.32c.5,1.51,1,2.89,1.52,4.12S20.41,43,21,44.52a13.51,13.51,0,0,0,4.41-2.43,11.42,11.42,0,0,0,3-3.72,3.43,3.43,0,0,0,.36-2.95,3.36,3.36,0,0,0-1.87-1.79,7.56,7.56,0,0,0-3.2-.52,9.23,9.23,0,0,0-3.5.8c-.41.2-.81.4-1.18.61s-.77.41-1.18.61a2.21,2.21,0,0,0-.37.23C17.58,35.68,17.71,36,17.84,36.32ZM15,27.11a12,12,0,0,0,.29,1.29c.12.42.23.84.34,1.27a18.3,18.3,0,0,0,3.56-2.41A11.25,11.25,0,0,0,21,25.07a3.16,3.16,0,0,0,.59-1.29,2.63,2.63,0,0,0,0-1.34,2.47,2.47,0,0,0-.75-1.12,4,4,0,0,0-1.27-.76,5.9,5.9,0,0,0-2.87-.27,13.56,13.56,0,0,0-2.92.71l-.21.07L14,22.76c.15.61.29,1.21.42,1.79s.27,1.11.39,1.58S15,26.93,15,27.11Z"/><path class="cls-1" d="M62.22,41a5.09,5.09,0,0,1-2.06.52,10.19,10.19,0,0,0-2.1.31,4.28,4.28,0,0,1-1.6.09,1.61,1.61,0,0,1-1.23-.8,7.63,7.63,0,0,1-.56-1.51A11.83,11.83,0,0,1,54.41,38a3.09,3.09,0,0,1-.08-.49.92.92,0,0,0,0-.18l0-.19a3.44,3.44,0,0,1-.06-.49,15,15,0,0,1-2.14,4,8.31,8.31,0,0,1-2.27,2.11A8.51,8.51,0,0,1,47,44a7,7,0,0,1-2.1.08,6.75,6.75,0,0,1-2.06-.54,5.88,5.88,0,0,1-1.89-1.32,7,7,0,0,1-1.33-1.86,30.08,30.08,0,0,1-2.06-5.92q-.7-3.06-1.58-6.09c-.35-1.17-.75-2.45-1.22-3.85s-.84-2.69-1.13-3.88a1.63,1.63,0,0,1,0-1.1,2.38,2.38,0,0,1,.62-.83,4,4,0,0,1,1-.59l1.1-.48a10.47,10.47,0,0,1,1.32-.34,10.77,10.77,0,0,1,1.49-.16,7.57,7.57,0,0,1,1.39.1,1.75,1.75,0,0,1,.93.38,3.23,3.23,0,0,1,.64.93,8.9,8.9,0,0,1,.47,1.26c.12.46.22.91.3,1.36s.14.82.21,1.13c.14.9.3,1.79.48,2.66s.37,1.76.58,2.64c.1.39.19.84.29,1.33s.22,1,.36,1.48.28,1,.43,1.45a13,13,0,0,0,.46,1.26,3.87,3.87,0,0,0,1.79,2.33,1.94,1.94,0,0,0,1.88-.2,4.48,4.48,0,0,0,1.5-1.91,6.82,6.82,0,0,0,.66-2.86,23.45,23.45,0,0,0-.17-3.2c-.14-1.11-.31-2.23-.52-3.35s-.41-2.24-.61-3.33-.35-2.16-.47-3.19a4.1,4.1,0,0,0-.09-.68,4,4,0,0,1-.09-.67,2,2,0,0,1,.08-.65,1,1,0,0,1,.44-.52,5.69,5.69,0,0,1,2.32-.68,19.24,19.24,0,0,0,2.48-.4,3.29,3.29,0,0,1,1.94,0,2.39,2.39,0,0,1,1.4,1.14,10.37,10.37,0,0,1,1.26,3.4c.19,1.14.44,2.34.74,3.59.28,1.09.5,2.19.69,3.29s.4,2.19.64,3.29c.3,1.44.58,2.76.86,4a37.71,37.71,0,0,1,.66,4c0,.37.07.74.12,1.1a7.55,7.55,0,0,1,.07,1.06c0,.32,0,.63-.05.94a2.29,2.29,0,0,1-.26.88A1.38,1.38,0,0,1,62.22,41Z"/><path class="cls-1" d="M71.64,39.62c-.16,0-.43.07-.8.15L69.68,40c-.4.08-.79.16-1.16.22a2.15,2.15,0,0,1-.77,0,2.38,2.38,0,0,1-.92-.42,1.69,1.69,0,0,1-.43-.75c-.14-.38-.26-.77-.39-1.18s-.22-.81-.31-1.21-.15-.69-.18-.87q-.78-3.3-1.35-6.63c-.38-2.22-.69-4.46-1-6.7,0-.15,0-.3-.07-.44a1.65,1.65,0,0,1,0-.45c-.07-.37-.12-.74-.17-1.11s-.09-.75-.12-1.13a1.85,1.85,0,0,0,0-.42,1.94,1.94,0,0,1,0-.43c-.25-1.83-.49-3.64-.74-5.45A22.72,22.72,0,0,1,62,7.6l.09-.44c0-.2.09-.4.14-.62s.11-.42.17-.63a.83.83,0,0,1,.24-.42,2.51,2.51,0,0,1,1.26-.66,9.74,9.74,0,0,1,1.79-.27,17.74,17.74,0,0,1,1.93,0l1.63.11a4.11,4.11,0,0,1,1.56.44,1.19,1.19,0,0,1,.61.6,1.92,1.92,0,0,1,.2.8,4,4,0,0,1,0,.69c0,.34-.09.7-.12,1.09s-.07.74-.09,1.08,0,.55-.07.65c0,.54-.06,1.08-.07,1.6s0,1.06-.07,1.6a17.74,17.74,0,0,1,2-1.74,15.67,15.67,0,0,1,2.31-1.38,16.89,16.89,0,0,1,2-.78,13.13,13.13,0,0,1,2.12-.45,8.48,8.48,0,0,1,2.92.17,7.32,7.32,0,0,1,2.64,1.16,6.5,6.5,0,0,1,1.25,1.15,13.1,13.1,0,0,1,1,1.36,10.66,10.66,0,0,1,1.2,2.91c.25,1,.46,2,.63,3.1a30.16,30.16,0,0,1,.3,4.05,25,25,0,0,1-.32,4.06,22.87,22.87,0,0,1-1.3,4.59,12.81,12.81,0,0,1-2.51,4,12.14,12.14,0,0,1-1.7,1.47,5.3,5.3,0,0,1-2,.9,10,10,0,0,1-3.9,0,11.29,11.29,0,0,1-3.68-1.37c0,.24.08.48.11.72a5.52,5.52,0,0,1,.06.72,1.16,1.16,0,0,1-.27.73,1.54,1.54,0,0,1-.64.5,3.52,3.52,0,0,1-.86.3C72.21,39.47,71.93,39.54,71.64,39.62Zm2.47-10.78a10.82,10.82,0,0,0,2.4.85,4.29,4.29,0,0,0,2.42-.09A2.11,2.11,0,0,0,80,28.9a4.52,4.52,0,0,0,.68-1.08,10.3,10.3,0,0,0,.85-3.67,18.21,18.21,0,0,0-.24-3.78,6.59,6.59,0,0,0-.61-1.85,4.09,4.09,0,0,0-1.15-1.4,3.43,3.43,0,0,0-1.65-.64,3.87,3.87,0,0,0-2.15.47,13.39,13.39,0,0,0-1.52.92,7.69,7.69,0,0,0-1.39,1.21,6.23,6.23,0,0,0-1,1.43A2.44,2.44,0,0,0,71.6,22c.1.94.21,1.87.34,2.8s.25,1.86.39,2.79A7.7,7.7,0,0,0,74.11,28.84Z"/><path class="cls-1" d="M98.16,36.63c-.16,0-.43,0-.81.08l-1.17.13L95,37a2.12,2.12,0,0,1-.77,0,2.53,2.53,0,0,1-.88-.49,1.87,1.87,0,0,1-.36-.8c-.1-.38-.19-.78-.28-1.2s-.15-.83-.2-1.23-.09-.7-.1-.89q-.49-3.35-.76-6.72c-.18-2.25-.29-4.5-.35-6.76,0-.16,0-.3,0-.44a2.33,2.33,0,0,1,0-.45c0-.38-.06-.75-.07-1.13s0-.75,0-1.13a2.09,2.09,0,0,0,0-.42,2.1,2.1,0,0,1,0-.43c-.08-1.85-.17-3.68-.25-5.49a22.87,22.87,0,0,1,.42-5.46l.13-.43c.06-.19.12-.4.2-.61s.15-.41.22-.6a.87.87,0,0,1,.27-.4,2.51,2.51,0,0,1,1.31-.55,10.48,10.48,0,0,1,1.81-.11,15.24,15.24,0,0,1,1.91.18l1.61.26a4,4,0,0,1,1.51.57,1.16,1.16,0,0,1,.56.65,1.9,1.9,0,0,1,.12.82,2.61,2.61,0,0,1-.1.69c-.07.33-.14.69-.21,1.07s-.13.73-.19,1.07a5.79,5.79,0,0,1-.12.64c-.08.54-.15,1.06-.21,1.58s-.13,1-.21,1.59a16.74,16.74,0,0,1,2.17-1.55,14.61,14.61,0,0,1,2.42-1.17,17.23,17.23,0,0,1,2.08-.6,11.9,11.9,0,0,1,2.14-.25,8.53,8.53,0,0,1,2.9.42,7.38,7.38,0,0,1,2.52,1.39,6.69,6.69,0,0,1,1.13,1.25,11.36,11.36,0,0,1,.87,1.45,10.89,10.89,0,0,1,.94,3c.16,1,.28,2.08.35,3.15a29,29,0,0,1-.06,4.06,24.82,24.82,0,0,1-.68,4,22.23,22.23,0,0,1-1.7,4.45,12.73,12.73,0,0,1-2.85,3.78A12.23,12.23,0,0,1,110.42,35a5.1,5.1,0,0,1-2.12.72,9.94,9.94,0,0,1-3.88-.36,11.1,11.1,0,0,1-3.53-1.69c0,.25,0,.49,0,.72a5.93,5.93,0,0,1,0,.73,1.17,1.17,0,0,1-.33.71,1.6,1.6,0,0,1-.69.44,4,4,0,0,1-.87.22C98.75,36.53,98.45,36.58,98.16,36.63Zm3.41-10.52a10.15,10.15,0,0,0,2.31,1.06,4.25,4.25,0,0,0,2.41.13,2.06,2.06,0,0,0,1.14-.61,4.22,4.22,0,0,0,.78-1,10.26,10.26,0,0,0,1.17-3.58,17.85,17.85,0,0,0,.1-3.79,6.86,6.86,0,0,0-.45-1.89,4,4,0,0,0-1-1.49,3.25,3.25,0,0,0-1.58-.79,3.79,3.79,0,0,0-2.18.27,13.66,13.66,0,0,0-1.59.78,8.23,8.23,0,0,0-1.5,1.09,6.76,6.76,0,0,0-1.1,1.33,2.47,2.47,0,0,0-.38,1.46q0,1.41.09,2.82c0,.94.08,1.88.14,2.81A7.74,7.74,0,0,0,101.57,26.11Z"/><path class="cls-1" d="M124.81,35.63a6.6,6.6,0,0,0-.81,0c-.38,0-.77,0-1.18,0l-1.18,0a2,2,0,0,1-.76-.1,1.69,1.69,0,0,1-.83-.57,1.75,1.75,0,0,1-.29-.82c-.07-.39-.12-.8-.17-1.22s-.08-.84-.1-1.25,0-.7,0-.89q-.19-3.39-.16-6.76c0-2.26.11-4.51.25-6.77,0-.15,0-.29,0-.42a1.65,1.65,0,0,1,.05-.42c0-.38,0-.76,0-1.15s0-.78.08-1.15a1.76,1.76,0,0,0,.06-.42,1.72,1.72,0,0,1,0-.43l.24-5.44a22.26,22.26,0,0,1,.9-5.4q.1-.33.42-1a2.44,2.44,0,0,1,.58-1A2.48,2.48,0,0,1,123.33,0a10.13,10.13,0,0,1,1.81.05A17,17,0,0,1,127,.42l1.58.4a4.56,4.56,0,0,1,1.46.7,1.46,1.46,0,0,1,.5.73,2,2,0,0,1,.05.84,4,4,0,0,1-.16.63c-.1.33-.21.68-.31,1s-.2.72-.28,1.05-.15.53-.18.62c-.3,1.15-.55,2.3-.76,3.46s-.39,2.32-.54,3.5a5.76,5.76,0,0,1-.07.68c0,.3-.09.65-.14,1.06s-.09.82-.14,1.26-.1.86-.14,1.26c0,.22,0,.44,0,.66-.12,1.69-.2,3.35-.25,5s-.06,3.29,0,5c0,.13,0,.36,0,.71s0,.7,0,1.08,0,.74,0,1.08a4.67,4.67,0,0,0,.08.71,11.25,11.25,0,0,1,.08,1.27,6.23,6.23,0,0,1-.11,1.27,1.14,1.14,0,0,1-.39.67,1.56,1.56,0,0,1-.72.37,3.53,3.53,0,0,1-.89.15A8.85,8.85,0,0,0,124.81,35.63Z"/><path class="cls-1" d="M147.24,36.94a17.71,17.71,0,0,1-4.76-.07,12,12,0,0,1-4.36-1.47,16.86,16.86,0,0,1-3.84-3,13,13,0,0,1-2.57-3.79,11.41,11.41,0,0,1-.92-3.73,24.52,24.52,0,0,1,.05-3.83,20.12,20.12,0,0,1,.95-4.7A14.12,14.12,0,0,1,134.12,12a15.36,15.36,0,0,1,5-3.91A12.19,12.19,0,0,1,143,6.88a14.3,14.3,0,0,1,2.85-.08,17.58,17.58,0,0,1,2.82.41,14.8,14.8,0,0,1,1.9.58,6.28,6.28,0,0,1,1.64.89,8.94,8.94,0,0,1,2.6,2.71,7.33,7.33,0,0,1,1.11,3.18,8.1,8.1,0,0,1-.7,4.05,7.52,7.52,0,0,1-2.81,3.31,9.19,9.19,0,0,1-3.66,1.32,16.69,16.69,0,0,1-3.26.34,25.94,25.94,0,0,1-3.31-.15c-.47,0-.94-.08-1.4-.15A6.11,6.11,0,0,1,139.4,23a16.5,16.5,0,0,0,.17,1.71,4.12,4.12,0,0,0,.62,1.64,5.76,5.76,0,0,0,.91,1.2,4.94,4.94,0,0,0,2.41,1.29,7,7,0,0,0,1.2.13,9.21,9.21,0,0,0,2.1-.15,13.09,13.09,0,0,0,2-.52c.28-.13.55-.24.82-.34a5,5,0,0,1,.87-.24,1.9,1.9,0,0,1,1.1.16,2.4,2.4,0,0,1,.76.81,7.09,7.09,0,0,1,.53.94,11,11,0,0,1,.58,1.32,5.39,5.39,0,0,1,.33,1.33,2.69,2.69,0,0,1-.46,1.8,5,5,0,0,1-1.5,1.38,9.14,9.14,0,0,1-2.17,1A17.71,17.71,0,0,1,147.24,36.94Zm-7-19.24A14.79,14.79,0,0,0,143,18a6.61,6.61,0,0,0,2.63-.42,3.89,3.89,0,0,0,1-.55,1.6,1.6,0,0,0,.62-.82,2.45,2.45,0,0,0,.07-.75,3.74,3.74,0,0,0-.13-.86,2.53,2.53,0,0,0-.36-.78,1.5,1.5,0,0,0-.59-.53,1.51,1.51,0,0,0-.73-.17,3.44,3.44,0,0,0-.8,0,4.81,4.81,0,0,0-1.42.45,4.49,4.49,0,0,0-1.12.76A6.64,6.64,0,0,0,141,16,18.47,18.47,0,0,0,140.27,17.7Z"/><path class="cls-2" d="M159.16,46.9l-.81-.09-1.21-.12-1.22-.13a2.5,2.5,0,0,1-.79-.2,1.65,1.65,0,0,1-.73-.7,2.38,2.38,0,0,1-.21-.9,9,9,0,0,1,0-1.28c0-.46,0-.89.08-1.29s.06-.72.09-.94q.18-3.53.63-7c.3-2.35.66-4.69,1.08-7,0-.15,0-.3.05-.44a2.57,2.57,0,0,1,.11-.44c.15-.78.29-1.57.44-2.36,0-.15.05-.3.08-.44a2.87,2.87,0,0,0,.08-.44q.45-2.82,1-5.63a27.83,27.83,0,0,1,1.6-5.5q.15-.31.54-1.05a2.7,2.7,0,0,1,.69-.93A2.28,2.28,0,0,1,162,9.63a9.75,9.75,0,0,1,1.9.31,19.7,19.7,0,0,1,1.93.6c.62.24,1.13.45,1.54.64a3.47,3.47,0,0,1,1.44.88,1.35,1.35,0,0,1,.39.8,2.09,2.09,0,0,1-.05.87,4,4,0,0,1-.28.76,3.22,3.22,0,0,1,.5-.27l.32-.17a14.57,14.57,0,0,1,2.17-.81,10.89,10.89,0,0,1,2.28-.4,6.08,6.08,0,0,1,2.18.19,8.83,8.83,0,0,1,2.11.86,7,7,0,0,1,1.73,1.4,6.8,6.8,0,0,1,1.16,1.78,10.16,10.16,0,0,1,.68,2.84A13.22,13.22,0,0,1,182,22.8a19.3,19.3,0,0,1-.89,4.16,31.08,31.08,0,0,1-1.63,4A19.76,19.76,0,0,1,177,34.55a16.32,16.32,0,0,1-3.18,2.89c-.28.2-.55.39-.84.56a4,4,0,0,1-.91.41,7.06,7.06,0,0,1-3,.47,6.67,6.67,0,0,1-3-.82,5.78,5.78,0,0,1-1.46-.94,14.83,14.83,0,0,1-1.27-1.24c-.09.62-.17,1.24-.25,1.84s-.14,1.22-.2,1.85c0,.12,0,.36-.08.72s-.08.74-.12,1.15-.08.79-.1,1.15a7.09,7.09,0,0,0,0,.73,10.14,10.14,0,0,1-.08,1.34,7.08,7.08,0,0,1-.27,1.31,1.11,1.11,0,0,1-.48.62,2.27,2.27,0,0,1-.77.34,3.46,3.46,0,0,1-.91,0Q159.64,46.92,159.16,46.9ZM167,29.78a3,3,0,0,0,1.51.82,3.23,3.23,0,0,0,2.3-.5,7.14,7.14,0,0,0,2-1.85,9.69,9.69,0,0,0,1.35-2.62,8.22,8.22,0,0,0,.48-2.81,4.54,4.54,0,0,0-.65-2.33,2.92,2.92,0,0,0-2.09-1.24,3.36,3.36,0,0,0-2,.32,7,7,0,0,0-1.94,1.33,9.06,9.06,0,0,0-1.58,2,7.07,7.07,0,0,0-.88,2.39,5.49,5.49,0,0,0,.1,2.39A4.2,4.2,0,0,0,167,29.78Z"/><path class="cls-2" d="M192.45,44.4a8,8,0,0,1-2.8-.23,14.41,14.41,0,0,1-2.66-1,11.55,11.55,0,0,1-2-1.34A6.94,6.94,0,0,1,183.33,40a12.45,12.45,0,0,1-1.11-2.33,13.37,13.37,0,0,1-.63-2.51,16.77,16.77,0,0,1-.29-3.7,20.74,20.74,0,0,1,.43-3.77,17.42,17.42,0,0,1,1.14-3.61,17.77,17.77,0,0,1,1.83-3.24,11,11,0,0,1,2.37-2.35A16.78,16.78,0,0,1,190,16.74a9.38,9.38,0,0,1,2.19-.64,8,8,0,0,1,2.29-.06,11.77,11.77,0,0,1,2.75.61,22.33,22.33,0,0,1,2.62,1.14,18.52,18.52,0,0,1,2.1,1.37,11.39,11.39,0,0,1,1.78,1.69,9,9,0,0,1,1.78,3.85,12.94,12.94,0,0,1,.17,4.29,21.87,21.87,0,0,1-1.75,6,18.12,18.12,0,0,1-3.47,5.17c-.58.59-1.19,1.15-1.83,1.69a12.2,12.2,0,0,1-2,1.41,8.15,8.15,0,0,1-2.08.79C193.86,44.2,193.15,44.32,192.45,44.4Zm-1.84-8.24a3.43,3.43,0,0,0,1.55.28,3.74,3.74,0,0,0,1.56-.39,7,7,0,0,0,2.44-1.9,11.64,11.64,0,0,0,1.71-2.71,12,12,0,0,0,.9-3,5.7,5.7,0,0,0-.29-3.06c-.13-.23-.25-.44-.38-.65a1.41,1.41,0,0,0-.53-.5,3.46,3.46,0,0,0-1.44-.6,6.3,6.3,0,0,0-1.56-.1,3.83,3.83,0,0,0-1.37.3,5.19,5.19,0,0,0-1.2.68l-.57.49a2.64,2.64,0,0,0-.53.55,12.19,12.19,0,0,0-2.14,6,10.62,10.62,0,0,0,.06,1.77,4.69,4.69,0,0,0,.5,1.68,1.45,1.45,0,0,0,.54.71A4.41,4.41,0,0,0,190.61,36.16Z"/><path class="cls-2" d="M204.93,57.13l-.79-.22L203,56.6l-1.19-.33a2.43,2.43,0,0,1-.76-.33,1.71,1.71,0,0,1-.61-.81,2.57,2.57,0,0,1-.06-.93,8.76,8.76,0,0,1,.19-1.26c.09-.45.19-.87.29-1.26s.17-.7.23-.91c.5-2.3,1.08-4.59,1.75-6.85s1.4-4.53,2.19-6.78l.12-.42a1.9,1.9,0,0,1,.18-.42l.81-2.26q.07-.23.15-.42a2.6,2.6,0,0,0,.15-.42c.6-1.81,1.21-3.62,1.84-5.41a27.8,27.8,0,0,1,2.47-5.17c.13-.19.36-.51.7-.95a2.55,2.55,0,0,1,.83-.8,2.37,2.37,0,0,1,1.47-.08,9.58,9.58,0,0,1,1.83.61,19.49,19.49,0,0,1,1.83.91c.58.33,1.06.63,1.43.88a3.59,3.59,0,0,1,1.3,1.11,1.38,1.38,0,0,1,.26.85,2,2,0,0,1-.19.85,3.28,3.28,0,0,1-.4.71,3.3,3.3,0,0,1,.55-.19,2.74,2.74,0,0,0,.34-.11,15.19,15.19,0,0,1,2.29-.45,11.33,11.33,0,0,1,2.33,0,6.38,6.38,0,0,1,2.15.55,9.18,9.18,0,0,1,2,1.2,7,7,0,0,1,2.37,3.62,9.77,9.77,0,0,1,.23,2.91,13.69,13.69,0,0,1-.5,2.85,19.72,19.72,0,0,1-1.55,4,30.26,30.26,0,0,1-2.26,3.64,19,19,0,0,1-3,3.19A16.52,16.52,0,0,1,221,50.18a9.53,9.53,0,0,1-.93.42,4,4,0,0,1-1,.25,7,7,0,0,1-3.09,0,6.9,6.9,0,0,1-2.81-1.29,6,6,0,0,1-1.3-1.16,16.63,16.63,0,0,1-1.07-1.43q-.28.89-.54,1.77c-.17.59-.33,1.18-.49,1.79,0,.12-.11.35-.2.7s-.19.72-.3,1.11-.2.77-.28,1.12a4.26,4.26,0,0,0-.13.72,12.48,12.48,0,0,1-.29,1.32,9,9,0,0,1-.48,1.25,1.12,1.12,0,0,1-.58.53,2.29,2.29,0,0,1-.83.2,3.08,3.08,0,0,1-.9-.11C205.56,57.27,205.25,57.19,204.93,57.13Zm10.48-15.64a3.16,3.16,0,0,0,1.38,1.06,3.25,3.25,0,0,0,2.37-.12,7.18,7.18,0,0,0,2.25-1.51,9.38,9.38,0,0,0,1.76-2.37,8,8,0,0,0,.92-2.69,4.49,4.49,0,0,0-.28-2.41,2.92,2.92,0,0,0-1.88-1.56,3.38,3.38,0,0,0-2,0,7,7,0,0,0-2.14,1,8.77,8.77,0,0,0-1.89,1.73,7,7,0,0,0-1.26,2.21,5.54,5.54,0,0,0-.28,2.38A4.26,4.26,0,0,0,215.41,41.49Z"/></g></g></svg>