<svg xmlns="http://www.w3.org/2000/svg" xmlns:xlink="http://www.w3.org/1999/xlink" viewBox="0 0 216.31 158.62"><defs><style>.cls-1{fill:url(#Dégradé_sans_nom_37);}.cls-2{fill:url(#Dégradé_sans_nom_37-2);}.cls-3{fill:url(#Dégradé_sans_nom_37-4);}.cls-4{fill:url(#Dégradé_sans_nom_37-5);}.cls-5{fill:url(#Dégradé_sans_nom_37-6);}.cls-6{fill:url(#Dégradé_sans_nom_37-7);}.cls-7{fill:url(#Dégradé_sans_nom_37-8);}.cls-8{fill:url(#Dégradé_sans_nom_37-10);}.cls-9{fill:url(#Dégradé_sans_nom_37-11);}.cls-10{fill:url(#Dégradé_sans_nom_37-12);}.cls-11{fill:url(#Dégradé_sans_nom_37-13);}.cls-12{fill:url(#Dégradé_sans_nom_37-14);}.cls-13{fill:url(#Dégradé_sans_nom_37-15);}.cls-14{fill:url(#Dégradé_sans_nom_37-16);}.cls-15{fill:url(#Dégradé_sans_nom_37-18);}.cls-16{fill:url(#Dégradé_sans_nom_37-19);}.cls-17{fill:url(#Dégradé_sans_nom_37-20);}.cls-18{fill:url(#Dégradé_sans_nom_37-21);}.cls-19{fill:url(#Dégradé_sans_nom_37-22);}.cls-20{fill:url(#Dégradé_sans_nom_37-23);}</style><linearGradient id="Dégradé_sans_nom_37" x1="118.7" y1="22.46" x2="93.84" y2="85.44" gradientUnits="userSpaceOnUse"><stop offset="0.09" stop-color="#1d70b7"/><stop offset="1" stop-color="#56acd2"/></linearGradient><linearGradient id="Dégradé_sans_nom_37-2" x1="137.9" y1="30.04" x2="113.04" y2="93.02" xlink:href="#Dégradé_sans_nom_37"/><linearGradient id="Dégradé_sans_nom_37-4" x1="138.32" y1="30.21" x2="113.46" y2="93.19" gradientTransform="translate(134.24 -98.89) rotate(72.99)" xlink:href="#Dégradé_sans_nom_37"/><linearGradient id="Dégradé_sans_nom_37-5" x1="144.87" y1="32.8" x2="120.01" y2="95.77" xlink:href="#Dégradé_sans_nom_37"/><linearGradient id="Dégradé_sans_nom_37-6" x1="137.51" y1="29.89" x2="112.65" y2="92.88" xlink:href="#Dégradé_sans_nom_37"/><linearGradient id="Dégradé_sans_nom_37-7" x1="132.76" y1="28.02" x2="107.9" y2="91" xlink:href="#Dégradé_sans_nom_37"/><linearGradient id="Dégradé_sans_nom_37-8" x1="90.16" y1="11.2" x2="65.3" y2="74.18" xlink:href="#Dégradé_sans_nom_37"/><linearGradient id="Dégradé_sans_nom_37-10" x1="93.68" y1="12.59" x2="68.82" y2="75.57" gradientTransform="translate(15.68 -22.29) rotate(17.01)" xlink:href="#Dégradé_sans_nom_37"/><linearGradient id="Dégradé_sans_nom_37-11" x1="96.61" y1="13.74" x2="71.75" y2="76.72" xlink:href="#Dégradé_sans_nom_37"/><linearGradient id="Dégradé_sans_nom_37-12" x1="109.93" y1="19" x2="85.07" y2="81.98" xlink:href="#Dégradé_sans_nom_37"/><linearGradient id="Dégradé_sans_nom_37-13" x1="96.44" y1="13.68" x2="71.58" y2="76.66" xlink:href="#Dégradé_sans_nom_37"/><linearGradient id="Dégradé_sans_nom_37-14" x1="107" y1="17.85" x2="82.14" y2="80.83" xlink:href="#Dégradé_sans_nom_37"/><linearGradient id="Dégradé_sans_nom_37-15" x1="100.31" y1="15.21" x2="75.45" y2="78.18" xlink:href="#Dégradé_sans_nom_37"/><linearGradient id="Dégradé_sans_nom_37-16" x1="117.53" y1="22" x2="92.67" y2="84.98" xlink:href="#Dégradé_sans_nom_37"/><linearGradient id="Dégradé_sans_nom_37-18" x1="71" y1="-4.9" x2="46.14" y2="58.08" xlink:href="#Dégradé_sans_nom_37"/><linearGradient id="Dégradé_sans_nom_37-19" x1="105.68" y1="8.79" x2="80.82" y2="71.77" xlink:href="#Dégradé_sans_nom_37"/><linearGradient id="Dégradé_sans_nom_37-20" x1="138.03" y1="21.56" x2="113.17" y2="84.54" xlink:href="#Dégradé_sans_nom_37"/><linearGradient id="Dégradé_sans_nom_37-21" x1="167.47" y1="33.18" x2="142.61" y2="96.16" xlink:href="#Dégradé_sans_nom_37"/><linearGradient id="Dégradé_sans_nom_37-22" x1="201.57" y1="46.64" x2="176.71" y2="109.62" xlink:href="#Dégradé_sans_nom_37"/><linearGradient id="Dégradé_sans_nom_37-23" x1="236.53" y1="60.44" x2="211.67" y2="123.42" xlink:href="#Dégradé_sans_nom_37"/></defs><g id="Calque_2" data-name="Calque 2"><g id="Calque_1-2" data-name="Calque 1"><path class="cls-1" d="M121.62,50.35a6.92,6.92,0,0,1-2.2,4.87L107.64,66.29,96.14,54.06a7,7,0,0,1,10.11-9.61l2,1.76L109.94,45a7,7,0,0,1,11.68,5.37Z"/><path class="cls-2" d="M135.26,42.65l-3.16-1,4-12.91s0,0,0,.07l3.27.38a2.6,2.6,0,0,1-.1.48Z"/><path class="cls-2" d="M135.26,42.65l-3.16-1,4-12.91s0,0,0,.07l3.27.38a2.6,2.6,0,0,1-.1.48Z"/><rect class="cls-3" x="133.02" y="39.63" width="1.86" height="3.3" transform="translate(55.3 157.3) rotate(-72.99)"/><path class="cls-4" d="M118.84,87a3.81,3.81,0,0,1-1.33-.24,3.74,3.74,0,0,1-2.11-2l-2.74-6.4a3.73,3.73,0,0,1,2-4.92L117.86,72a.8.8,0,0,0-.19,0,3.79,3.79,0,0,0,.55-.07L133,69.29l-17,7.12a.43.43,0,0,0-.24.24.44.44,0,0,0,0,.34l2.75,6.4a.44.44,0,0,0,.25.24.41.41,0,0,0,.34,0c4.85-2.3,16.64-7.86,21.45-9.93a.44.44,0,0,0,.23-.58l-2.39-5.58a.44.44,0,0,0-.58-.23l-.92.38a3.73,3.73,0,0,1-5.12-2.81l-.92-5.34a3.75,3.75,0,0,1,.73-2.91l10.64-13.78a.38.38,0,0,0,.08-.17L149,14.72a.46.46,0,0,0-.2-.49,2.54,2.54,0,0,0-3.49.85l-1.43,2.34a.63.63,0,0,1,0,.09l-4.53,12c0,.09,0,.17-.06.23l-4,13-3.16-1,4-12.89v-.16l4.67-12.31a3.6,3.6,0,0,1,.3-.62l1.42-2.34a5.85,5.85,0,0,1,3.61-2.63,5.78,5.78,0,0,1,4.41.69,3.74,3.74,0,0,1,1.7,4.08l-6.76,27.94a3.88,3.88,0,0,1-.68,1.4L134.11,58.62A.45.45,0,0,0,134,59l.92,5.33a.42.42,0,0,0,.22.31.41.41,0,0,0,.38,0l.92-.38a3.75,3.75,0,0,1,4.88,2l2.39,5.58a3.74,3.74,0,0,1-2,4.9c-4.75,2-16.5,7.6-21.34,9.89A3.73,3.73,0,0,1,118.84,87Zm-1-14.92.2.48.3-.17a1,1,0,0,0-.18-.15A1.35,1.35,0,0,0,117.88,72Z"/><polygon class="cls-5" points="117.55 75.73 112.47 61.62 111.73 59.19 114.88 58.23 115.61 60.62 119.47 71.35 135.54 64.63 136.81 67.67 117.55 75.73"/><path class="cls-6" d="M120.7,49l-2.43-2.23,4.4-4.8a.2.2,0,0,0,.06-.07l8.7-14.27a5.8,5.8,0,0,1,1.26-1.45l.56-.46a3.74,3.74,0,0,1,6.07,3.57l-3.24-.61a.45.45,0,0,0-.72-.43l-.57.47a2.62,2.62,0,0,0-.54.62l-8.71,14.28a4.08,4.08,0,0,1-.45.6Z"/><path class="cls-7" d="M81.05,42.65l-4-12.91a4.06,4.06,0,0,1-.12-.52l3.28-.38a.22.22,0,0,1,0-.08l4,12.92Z"/><path class="cls-7" d="M81.05,42.65l-4-12.91a4.06,4.06,0,0,1-.12-.52l3.28-.38a.22.22,0,0,1,0-.08l4,12.92Z"/><rect class="cls-8" x="80.71" y="40.35" width="3.3" height="1.86" transform="translate(-8.47 25.9) rotate(-17.01)"/><path class="cls-9" d="M97.47,87a3.77,3.77,0,0,1-1.6-.36C91,84.3,79.29,78.76,74.53,76.7a3.73,3.73,0,0,1-2-4.9L75,66.22a3.75,3.75,0,0,1,4.88-2l.92.38a.41.41,0,0,0,.38,0,.45.45,0,0,0,.22-.31L82.28,59a.48.48,0,0,0-.08-.35L71.56,44.84a3.72,3.72,0,0,1-.68-1.4L64.12,15.5a3.75,3.75,0,0,1,1.69-4.08,5.83,5.83,0,0,1,8,1.94l1.43,2.34a3.72,3.72,0,0,1,.29.6l4.67,12.33,0,.15,4,12.9-3.15,1-4-12.91a1.76,1.76,0,0,1-.07-.27l-4.54-12s0,0,0-.08L71,15.08a2.54,2.54,0,0,0-3.49-.85.46.46,0,0,0-.2.5l6.76,27.93a.38.38,0,0,0,.08.17L84.81,56.61a3.75,3.75,0,0,1,.72,2.91l-.91,5.34a3.73,3.73,0,0,1-5.12,2.81l-.93-.38a.43.43,0,0,0-.57.23L75.61,73.1a.44.44,0,0,0,.23.58c4.81,2.07,16.6,7.64,21.44,9.93a.44.44,0,0,0,.35,0,.47.47,0,0,0,.25-.24l2.74-6.4a.45.45,0,0,0,0-.34.43.43,0,0,0-.24-.24l-17-7.12,14.75,2.63a3.63,3.63,0,0,0,.55.07.7.7,0,0,0-.2,0l3.22,1.34a3.73,3.73,0,0,1,2,4.92l-2.75,6.4a3.68,3.68,0,0,1-2.11,2A3.76,3.76,0,0,1,97.47,87Zm.45-14.61.31.17.2-.48a1.15,1.15,0,0,0-.33.17A1,1,0,0,0,97.92,72.34ZM80.25,28.83h0Z"/><polygon class="cls-10" points="98.76 75.73 79.5 67.67 80.77 64.63 96.83 71.35 100.69 60.62 101.37 58.41 104.52 59.37 103.81 61.69 98.76 75.73"/><path class="cls-11" d="M95.06,48.45,91.2,44.24a4.26,4.26,0,0,1-.43-.57L82.06,29.39a2.22,2.22,0,0,0-.53-.61l-.59-.49a.44.44,0,0,0-.4-.08.45.45,0,0,0-.31.51L77,29.33A3.74,3.74,0,0,1,83,25.75l.58.48a5.78,5.78,0,0,1,1.26,1.44L93.58,42l.07.09,3.84,4.18Z"/><path class="cls-12" d="M107.62,32.57l-.81-.44c-.15-.09-.3-.17-.44-.27A18.25,18.25,0,0,1,106.78.48L107.6,0l.83.48a18.37,18.37,0,0,1,8.49,11,18.28,18.28,0,0,1-8.13,20.36l-.37.23Zm0-28.73a15,15,0,0,0-5.89,7.73,15,15,0,0,0,5.89,17.17,15,15,0,0,0,6.14-16.35A15.07,15.07,0,0,0,107.6,3.84Z"/><path class="cls-13" d="M104.7,33A18.26,18.26,0,0,1,87.44,8.69l.31-.9.94-.17a18.29,18.29,0,0,1,12.26,2l1.19.66-.43,1.3a15,15,0,0,0,5.9,17.18l3.09-2-1.18,4.15c0,.16-.1.32-.16.48a2.23,2.23,0,0,1-.08.24l-.33.86-.9.17A18.16,18.16,0,0,1,104.7,33ZM90.26,10.71a15,15,0,0,0,13.18,18.94,18.32,18.32,0,0,1-5.26-17.74A15,15,0,0,0,90.26,10.71Z"/><path class="cls-14" d="M111.68,33a18.53,18.53,0,0,1-4-.45h0l-.06,0-.14,0-.5-.13-.92-.24-.25-.91c0-.12-.07-.25-.1-.38l-.91-4,2.86,1.84a15,15,0,0,0,6.14-16.35l-.34-1.24,1.13-.63a18.15,18.15,0,0,1,13.58-1.67l.92.24.25.93a18.34,18.34,0,0,1-4.73,17.63h0A18.14,18.14,0,0,1,111.68,33Zm5.55-20.16a18.74,18.74,0,0,1,.32,3.44,18.11,18.11,0,0,1-5.86,13.42,14.85,14.85,0,0,0,10.53-4.39,15,15,0,0,0,4.09-13.51A14.9,14.9,0,0,0,117.23,12.85Z"/><path class="cls-14" d="M111.68,33a18.53,18.53,0,0,1-4-.45h0l-.06,0-.14,0-.5-.13-.92-.24-.25-.91c0-.12-.07-.25-.1-.38l-.91-4,2.86,1.84a15,15,0,0,0,6.14-16.35l-.34-1.24,1.13-.63a18.15,18.15,0,0,1,13.58-1.67l.92.24.25.93a18.34,18.34,0,0,1-4.73,17.63h0A18.14,18.14,0,0,1,111.68,33Zm5.55-20.16a18.74,18.74,0,0,1,.32,3.44,18.11,18.11,0,0,1-5.86,13.42,14.85,14.85,0,0,0,10.53-4.39,15,15,0,0,0,4.09-13.51A14.9,14.9,0,0,0,117.23,12.85Z"/><path class="cls-15" d="M0,155.19l19.86-29.11H1.74v-3.87H25.52V125L5.61,154.1H25.79V158H0Z"/><path class="cls-16" d="M38.26,144.69c0-8.6,6.42-13.82,13.49-13.82,7.62,0,12.08,4.95,12.08,12.4a18,18,0,0,1-.22,2.72H41.25v-3.48H61l-1.14,1.25c0-6.25-3.11-9.36-8-9.36s-9.14,3.7-9.14,10.29c0,6.86,4.46,10.34,10.34,10.34a14.43,14.43,0,0,0,8-2.5l1.63,2.93a18,18,0,0,1-10.23,3.16C44.57,158.62,38.26,153.5,38.26,144.69Z"/><path class="cls-17" d="M77.71,131.52h3.7l.38,4.46H82c2.77-2.88,5.82-5.11,9.95-5.11,6.26,0,9.15,3.7,9.15,10.66V158H96.59V142.13c0-5-1.74-7.35-6-7.35-3.16,0-5.28,1.58-8.33,4.74V158H77.71Z"/><path class="cls-18" d="M116.34,131.79l7.68-.27h15.4v3.65H116.34Zm7.57-2.5c0-6.42,3.37-10.72,10.66-10.72a19.66,19.66,0,0,1,7.62,1.52l-1,3.37a14.42,14.42,0,0,0-6.15-1.25c-4.74,0-6.64,2.67-6.64,6.91V158h-4.46Z"/><path class="cls-19" d="M162.22,149.1V122.87h-9.36v-3.65h13.87v30.2c0,3.81,2.07,5.45,5.23,5.45a12.07,12.07,0,0,0,4.95-1.2l1.14,3.37a16,16,0,0,1-7.07,1.58C165.32,158.62,162.22,155.35,162.22,149.1Z"/><path class="cls-20" d="M190.19,144.8c0-8.87,6.09-13.93,13.06-13.93s13.06,5.06,13.06,13.93-6.1,13.82-13.06,13.82S190.19,153.56,190.19,144.8Zm21.49,0c0-6.1-3.37-10.18-8.43-10.18s-8.44,4.08-8.44,10.18,3.38,10.07,8.44,10.07S211.68,150.84,211.68,144.8Z"/></g></g></svg>