<svg xmlns="http://www.w3.org/2000/svg" xmlns:xlink="http://www.w3.org/1999/xlink" viewBox="0 0 208.19 150.14"><defs><style>.cls-1{fill:url(#Dégradé_sans_nom_7);}.cls-2{fill:url(#Dégradé_sans_nom_7-2);}.cls-3{fill:url(#Dégradé_sans_nom_7-3);}.cls-4{fill:url(#Dégradé_sans_nom_7-4);}.cls-5{fill:url(#Dégradé_sans_nom_7-6);}.cls-6{fill:url(#Dégradé_sans_nom_7-8);}.cls-7{fill:url(#Dégradé_sans_nom_7-9);}.cls-8{fill:url(#Dégradé_sans_nom_7-10);}.cls-9{fill:url(#Dégradé_sans_nom_7-11);}.cls-10{fill:url(#Dégradé_sans_nom_7-12);}.cls-11{fill:url(#Dégradé_sans_nom_7-13);}.cls-12{fill:url(#Dégradé_sans_nom_7-14);}</style><linearGradient id="Dégradé_sans_nom_7" x1="2.07" y1="128.21" x2="208.37" y2="128.21" gradientUnits="userSpaceOnUse"><stop offset="0.09" stop-color="#f39b6e"/><stop offset="0.73" stop-color="#e1794d"/></linearGradient><linearGradient id="Dégradé_sans_nom_7-2" x1="2.07" y1="132.1" x2="208.37" y2="132.1" xlink:href="#Dégradé_sans_nom_7"/><linearGradient id="Dégradé_sans_nom_7-3" x1="2.07" y1="131.9" x2="208.37" y2="131.9" xlink:href="#Dégradé_sans_nom_7"/><linearGradient id="Dégradé_sans_nom_7-4" x1="2.07" y1="127.84" x2="208.37" y2="127.84" xlink:href="#Dégradé_sans_nom_7"/><linearGradient id="Dégradé_sans_nom_7-6" x1="2.07" y1="135.99" x2="208.37" y2="135.99" xlink:href="#Dégradé_sans_nom_7"/><linearGradient id="Dégradé_sans_nom_7-8" x1="2.07" y1="128.21" x2="208.37" y2="128.21" xlink:href="#Dégradé_sans_nom_7"/><linearGradient id="Dégradé_sans_nom_7-9" x1="2.07" y1="131.92" x2="208.37" y2="131.92" xlink:href="#Dégradé_sans_nom_7"/><linearGradient id="Dégradé_sans_nom_7-10" x1="2.07" y1="129.46" x2="208.37" y2="129.46" xlink:href="#Dégradé_sans_nom_7"/><linearGradient id="Dégradé_sans_nom_7-11" x1="107.61" y1="98.58" x2="107.61" y2="43.39" xlink:href="#Dégradé_sans_nom_7"/><linearGradient id="Dégradé_sans_nom_7-12" x1="92.12" y1="98.58" x2="92.12" y2="43.39" xlink:href="#Dégradé_sans_nom_7"/><linearGradient id="Dégradé_sans_nom_7-13" x1="125.12" y1="98.58" x2="125.12" y2="43.39" xlink:href="#Dégradé_sans_nom_7"/><linearGradient id="Dégradé_sans_nom_7-14" x1="108.62" y1="98.58" x2="108.62" y2="43.39" xlink:href="#Dégradé_sans_nom_7"/></defs><g id="Calque_2" data-name="Calque 2"><g id="Calque_1-2" data-name="Calque 1"><path class="cls-1" d="M87.79,114.6v27.22H82.46V124.16l-7.68,12.63-.62,0-7.65-12.58v17.59H61.15V114.6h5.52l7.81,12.85,7.76-12.85Z"/><path class="cls-2" d="M107.39,122.37h5v19.45h-5v-2.3a7.63,7.63,0,0,1-6.34,2.84,8.8,8.8,0,0,1-6.67-3,10.95,10.95,0,0,1,0-14.58,8.78,8.78,0,0,1,6.67-3,7.66,7.66,0,0,1,6.34,2.84ZM96.61,132.1A5.36,5.36,0,0,0,98.13,136a5.61,5.61,0,0,0,7.72,0,5.82,5.82,0,0,0,0-7.89,5.61,5.61,0,0,0-7.72,0,5.38,5.38,0,0,0-1.52,3.95"/><path class="cls-3" d="M122,125.72a5.24,5.24,0,0,1,2.31-2.8,7.1,7.1,0,0,1,3.6-.93v5.6a5.87,5.87,0,0,0-4.1.93,4.44,4.44,0,0,0-1.81,4v9.3h-5V122.37h5Z"/><path class="cls-4" d="M133.29,120a3.13,3.13,0,0,1-3.08-3.07,3,3,0,0,1,.92-2.18,2.93,2.93,0,0,1,2.16-.93,3,3,0,0,1,2.19.93,3,3,0,0,1,.92,2.18,3.12,3.12,0,0,1-3.11,3.07Zm-2.49,21.78V122.37h5v19.45Z"/><path class="cls-2" d="M155.18,122.37h5v19.45h-5v-2.3a7.6,7.6,0,0,1-6.34,2.84,8.83,8.83,0,0,1-6.67-3,10.95,10.95,0,0,1,0-14.58,8.81,8.81,0,0,1,6.67-3,7.63,7.63,0,0,1,6.34,2.84ZM145.93,136a5.15,5.15,0,0,0,3.85,1.54,5.25,5.25,0,0,0,3.87-1.54,5.49,5.49,0,0,0-3.87-9.43,5.19,5.19,0,0,0-3.85,1.54,5.88,5.88,0,0,0,0,7.89Z"/><path class="cls-5" d="M179.64,122.37h4.9v18.52a8.29,8.29,0,0,1-3,6.88,11.18,11.18,0,0,1-7.18,2.37,12.21,12.21,0,0,1-5.54-1.2,8.48,8.48,0,0,1-3.67-3.54l4.27-2.45a6.16,6.16,0,0,0,8.83,1.47,4.51,4.51,0,0,0,1.36-3.53v-2.1a7.31,7.31,0,0,1-6.22,3,9.14,9.14,0,0,1-6.9-2.9,10.29,10.29,0,0,1,0-14.09,9.14,9.14,0,0,1,6.88-2.92,7.32,7.32,0,0,1,6.22,3Zm-9.35,13.25a5.88,5.88,0,0,0,7.82,0,5.52,5.52,0,0,0,0-7.63,5.88,5.88,0,0,0-7.82,0,5.5,5.5,0,0,0,0,7.63Z"/><path class="cls-2" d="M193.33,134.16c.68,2.44,2.5,3.65,5.49,3.65a5.11,5.11,0,0,0,4.35-1.94l4.05,2.33a9.64,9.64,0,0,1-8.48,4.16,10.46,10.46,0,0,1-7.74-2.91,10.26,10.26,0,0,1,7.35-17.62,9.29,9.29,0,0,1,7.06,3,10.26,10.26,0,0,1,2.78,7.31,11.75,11.75,0,0,1-.2,2.06Zm-.08-3.89h9.92a4.68,4.68,0,0,0-1.77-3,5.11,5.11,0,0,0-3.05-1,5.35,5.35,0,0,0-3.35,1A5,5,0,0,0,193.25,130.27Z"/><path class="cls-6" d="M20.61,141.82l-1.1-6.1H7.25l-3.32,6.1H0L15,114.6h4.09l5,27.22ZM9.09,132.33h9.8l-2.45-13.5Z"/><path class="cls-7" d="M33.6,125.21A7.56,7.56,0,0,1,40.25,122l-.62,3.54a7.36,7.36,0,0,0-4.54,1.33,6.71,6.71,0,0,0-2.6,4.6v0l-1.83,10.35H27.3l3.45-19.44h3.36Z"/><path class="cls-8" d="M48.81,125.64,47,136.18a2.43,2.43,0,0,0,.24,2,2,2,0,0,0,1.65.65c.76,0,1.72,0,2.86-.06l-.55,3c-2.87.39-5,.14-6.25-.76s-1.72-2.52-1.31-4.88l1.86-10.54H41.6l.63-3.26H46l.78-4.43,3.54-1-1,5.45H54.6L54,125.64Z"/><path class="cls-9" d="M107.61,99.6a49.79,49.79,0,0,1-35.21-85A49.79,49.79,0,1,1,142.82,85,49.45,49.45,0,0,1,107.61,99.6Zm0-97.31A47.51,47.51,0,1,0,155.12,49.8,47.56,47.56,0,0,0,107.61,2.29Z"/><path class="cls-10" d="M115.57,69.62a13.51,13.51,0,0,0-3.73-9,19,19,0,0,0-1.35-1.34,22.22,22.22,0,0,0-1.87-1.49l-.35-.24c-.42-.3-.86-.58-1.31-.86a65.21,65.21,0,0,0-11.19-5c-1.21-.46-2.35-.88-3.37-1.3C81.47,45.84,75.66,39.54,75.12,31.57a2.47,2.47,0,0,0-2.46-2.29A2.43,2.43,0,0,0,70.31,31a39.83,39.83,0,0,0,0,22.59A42.48,42.48,0,0,0,82.23,72.77a31.2,31.2,0,0,0,20.7,8.54h.19a15.5,15.5,0,0,0,2.85-.25,12.29,12.29,0,0,1-1.85-1.34c-.26-.23-.5-.46-.74-.7H103C88.3,78.86,76.59,66.69,72.49,53a37.41,37.41,0,0,1,0-21.28.17.17,0,0,1,.16-.13.18.18,0,0,1,.18.17c.72,10.66,9.49,16.94,18.69,20.7,3.83,1.56,9.15,3.22,13.58,5.78.56.33,1.11.67,1.65,1a22.12,22.12,0,0,1,1.86,1.41A16.81,16.81,0,0,1,110,61.94a11.31,11.31,0,0,1,3.3,7.73v.24c0,.1,0,.2,0,.31a8.57,8.57,0,0,1-2.84,6.31,8.75,8.75,0,0,1-1.82,1.25,10.49,10.49,0,0,1-2.73,1,11.31,11.31,0,0,0,2.73,1.56,11.38,11.38,0,0,0,2.74-1.56c.18-.14.36-.28.53-.44a10.28,10.28,0,0,0,1.18-1.2,11.11,11.11,0,0,0,2.5-6.81v0c0-.12,0-.24,0-.35A2.81,2.81,0,0,0,115.57,69.62Z"/><path class="cls-11" d="M146.94,31a2.46,2.46,0,0,0-4.81.54c-.54,8-6.36,14.27-17.29,18.74-1,.42-2.16.84-3.36,1.3a65.3,65.3,0,0,0-11.2,5q1,.76,1.86,1.56c4.42-2.56,9.75-4.22,13.57-5.78,9.2-3.76,18-10,18.7-20.7a.17.17,0,0,1,.17-.17.18.18,0,0,1,.17.13,37.58,37.58,0,0,1,0,21.28C140.65,66.69,128.94,78.86,114.29,79h-.43a13.19,13.19,0,0,1-2.5-.28,10.69,10.69,0,0,1-2.74-1,8.68,8.68,0,0,1-1.81-1.25A8.57,8.57,0,0,1,104,70.22v-.55a11.35,11.35,0,0,1,3.29-7.73,18.63,18.63,0,0,1,1.37-1.29,22.29,22.29,0,0,1,1.87-1.41,22.22,22.22,0,0,0-1.87-1.49,22,22,0,0,0-1.86,1.49c-.49.44-.94.88-1.36,1.34a13.56,13.56,0,0,0-3.73,9v.67a11.12,11.12,0,0,0,2.51,6.81,9.46,9.46,0,0,0,1.17,1.2c.18.16.35.3.54.44a11.31,11.31,0,0,0,2.73,1.56,13.39,13.39,0,0,0,2.66.76,15.47,15.47,0,0,0,2.84.25h.2A31.22,31.22,0,0,0,135,72.77,42.57,42.57,0,0,0,147,53.62,39.92,39.92,0,0,0,146.94,31Z"/><path class="cls-12" d="M113.17,25.67c-.93-.91-1.9-1.84-2.93-2.87a2.31,2.31,0,0,0-1.62-.67,2.29,2.29,0,0,0-1.61.67c-1,1-2,2-2.93,2.87-5.08,4.9-8.75,8.45-8.75,14.54a13.29,13.29,0,0,0,26.58,0C121.91,34.12,118.24,30.57,113.17,25.67ZM108.62,51.2a11,11,0,0,1-11-11c0-6.08,4.41-9.2,11-15.79,6.59,6.59,11,9.71,11,15.79A11,11,0,0,1,108.62,51.2Z"/></g></g></svg>