<svg xmlns="http://www.w3.org/2000/svg" xmlns:xlink="http://www.w3.org/1999/xlink" viewBox="0 0 192.16 117.96"><defs><style>.cls-1{fill:url(#Dégradé_sans_nom_133);}.cls-2{fill:url(#Dégradé_sans_nom_133-2);}.cls-3{fill:url(#Dégradé_sans_nom_133-3);}.cls-4{fill:url(#Dégradé_sans_nom_133-4);}.cls-5{fill:url(#Dégradé_sans_nom_133-5);}.cls-6{fill:url(#Dégradé_sans_nom_133-6);}.cls-7{fill:url(#Dégradé_sans_nom_133-7);}.cls-8{fill:url(#Dégradé_sans_nom_133-8);}.cls-9{fill:url(#Dégradé_sans_nom_133-9);}.cls-10{fill:url(#Dégradé_sans_nom_133-10);}.cls-11{fill:#fffcf8;}</style><linearGradient id="Dégradé_sans_nom_133" y1="102.59" x2="30.75" y2="102.59" gradientUnits="userSpaceOnUse"><stop offset="0" stop-color="#2b52b5"/><stop offset="1" stop-color="#2b75b5"/></linearGradient><linearGradient id="Dégradé_sans_nom_133-2" x1="34.59" y1="102.59" x2="57.65" y2="102.59" xlink:href="#Dégradé_sans_nom_133"/><linearGradient id="Dégradé_sans_nom_133-3" x1="61.49" y1="102.59" x2="84.55" y2="102.59" xlink:href="#Dégradé_sans_nom_133"/><linearGradient id="Dégradé_sans_nom_133-4" x1="88.39" y1="102.59" x2="111.45" y2="102.59" xlink:href="#Dégradé_sans_nom_133"/><linearGradient id="Dégradé_sans_nom_133-5" x1="115.29" y1="102.59" x2="138.35" y2="102.59" xlink:href="#Dégradé_sans_nom_133"/><linearGradient id="Dégradé_sans_nom_133-6" x1="142.2" y1="102.59" x2="165.26" y2="102.59" xlink:href="#Dégradé_sans_nom_133"/><linearGradient id="Dégradé_sans_nom_133-7" x1="169.1" y1="102.59" x2="192.16" y2="102.59" xlink:href="#Dégradé_sans_nom_133"/><linearGradient id="Dégradé_sans_nom_133-8" x1="-5.28" y1="-13.33" x2="212.79" y2="64.11" xlink:href="#Dégradé_sans_nom_133"/><linearGradient id="Dégradé_sans_nom_133-9" x1="-14.48" y1="12.58" x2="203.59" y2="90.02" xlink:href="#Dégradé_sans_nom_133"/><linearGradient id="Dégradé_sans_nom_133-10" x1="-2.31" y1="-21.68" x2="215.76" y2="55.76" xlink:href="#Dégradé_sans_nom_133"/></defs><g id="Calque_2" data-name="Calque 2"><g id="Calque_1-2" data-name="Calque 1"><path class="cls-1" d="M0,118V87.22H30.75V118H23.06V94.9H19.22v15.38H11.53V94.9H7.69V118Z"/><path class="cls-2" d="M34.59,118V87.22H57.65V118H50V106.43H42.27V118ZM50,98.75V94.9H42.27v3.85Z"/><path class="cls-3" d="M61.49,118V87.22H84.55V118H76.86V94.9H69.18V118Z"/><path class="cls-4" d="M88.39,118V87.22h23.06V94.9H96.08v3.85h11.53v7.68H96.08v3.85h15.37V118Z"/><path class="cls-5" d="M123,118V94.9h-7.69V87.22h23.06V94.9h-7.68V118Z"/><path class="cls-6" d="M149.88,118V94.9H142.2V87.22h23.06V94.9h-7.69V118Z"/><path class="cls-7" d="M169.1,118V87.22h23.06V118h-7.69V106.43h-7.68V118Zm15.37-19.21V94.9h-7.68v3.85Z"/><path class="cls-8" d="M142.19,12.82,129.05,26l-2.66,2.66-14.1,14.09L98.23,56.78l-44-44L64.5,2.59,65,2.26a14,14,0,0,1,4.89-2,14.62,14.62,0,0,1,3-.3,14.15,14.15,0,0,1,10,3.92l.24.25h0A19.34,19.34,0,0,0,90,8.5h0a24,24,0,0,0,8.22,1.42A24,24,0,0,0,106.2,8.6l.12,0A19.57,19.57,0,0,0,113,4.62h0l0,0c.34-.32.67-.65,1-1l.09-.1h0A14.18,14.18,0,0,1,123.6,0a14.55,14.55,0,0,1,3,.3,14.14,14.14,0,0,1,4.65,1.81h0c.25.15.49.31.73.48Z"/><path class="cls-9" d="M60,38.52l.17-.28a31.74,31.74,0,0,1-37.78,6.52l0,0,28.4-28.4L65.18,30.77l.12.12v0l1.17,1.14Z"/><path class="cls-10" d="M174,44.65a31.59,31.59,0,0,1-37.47-6l0,0L130,32.05l.1-.09,1-1h0l14.64-14.64Z"/><rect class="cls-11" x="66.85" y="5.68" width="2.4" height="8.85" rx="0.98"/><rect class="cls-11" x="66.85" y="5.68" width="2.4" height="8.85" rx="0.98" transform="translate(78.16 -57.94) rotate(90)"/><circle class="cls-11" cx="128.5" cy="6.83" r="1.23"/><circle class="cls-11" cx="131.72" cy="10.16" r="1.23"/><circle class="cls-11" cx="125.21" cy="10.09" r="1.23"/><circle class="cls-11" cx="128.5" cy="13.38" r="1.23"/></g></g></svg>