<svg xmlns="http://www.w3.org/2000/svg" viewBox="0 0 223.52 80.8"><defs><style>.cls-1{fill:#ef4162;}</style></defs><g id="Calque_2" data-name="Calque 2"><g id="Calque_1-2" data-name="Calque 1"><path class="cls-1" d="M127.3,20.69q0,7.51-2.78,11.87a8.93,8.93,0,0,1-15.36,0q-2.79-4.37-2.79-11.91t2.82-11.84a8.95,8.95,0,0,1,15.34,0Q127.31,13.17,127.3,20.69Zm-19.15,0q0,6.78,2.24,10.47a7.49,7.49,0,0,0,12.9,0q2.23-3.66,2.23-10.5t-2.23-10.44a7.5,7.5,0,0,0-12.87,0Q108.16,14,108.15,20.69Z"/><path class="cls-1" d="M139.23,36.93a6.64,6.64,0,0,1-5.84-3.17q-2.12-3.16-2.12-8.84t2.19-9.07a6.9,6.9,0,0,1,6-3.24,9.29,9.29,0,0,1,4.32,1.06l-.43,1.89a10,10,0,0,0-3.92-1,5.35,5.35,0,0,0-4.85,2.66c-1.1,1.78-1.65,4.33-1.65,7.67a14.14,14.14,0,0,0,1.65,7.42A5.14,5.14,0,0,0,139.2,35a8.76,8.76,0,0,0,4.4-1.15v2A7.84,7.84,0,0,1,139.23,36.93Z"/><path class="cls-1" d="M152.45,35a9,9,0,0,0,2.63-.34v1.72a6.38,6.38,0,0,1-2.66.52,3.8,3.8,0,0,1-3.4-1.66,9.7,9.7,0,0,1-1.1-5.22V14.92h-2.58V13.67l2.58-1,.8-5.31h.82v5.67h5.11v1.86h-5.11V29.75a8.68,8.68,0,0,0,.7,4A2.35,2.35,0,0,0,152.45,35Z"/><path class="cls-1" d="M173.24,24.75c0,3.82-.69,6.81-2.07,9a6.45,6.45,0,0,1-5.7,3.23,6,6,0,0,1-4-1.49,9.26,9.26,0,0,1-2.68-4.27,20.2,20.2,0,0,1-.93-6.42c0-3.83.69-6.8,2.07-8.94a6.43,6.43,0,0,1,5.67-3.2,6.32,6.32,0,0,1,5.62,3.24C172.55,18,173.24,21,173.24,24.75Zm-13.74,0a14.91,14.91,0,0,0,1.58,7.53,5,5,0,0,0,8.91,0,15,15,0,0,0,1.58-7.53A14.83,14.83,0,0,0,170,17.22a5,5,0,0,0-4.48-2.67,4.9,4.9,0,0,0-4.44,2.66A15.05,15.05,0,0,0,159.5,24.75Z"/><path class="cls-1" d="M185.4,12.61a6,6,0,0,1,5.5,3.09c1.24,2.07,1.85,5.08,1.85,9.05s-.65,6.9-1.94,9a6.1,6.1,0,0,1-5.47,3.17,5.75,5.75,0,0,1-3.35-1A7,7,0,0,1,179.64,33h-.14l-.45,3.54h-1V3h1.59v8.43c0,1.27,0,2.43-.06,3.49l-.05,1.84h.11A7.72,7.72,0,0,1,182,13.6,5.71,5.71,0,0,1,185.4,12.61Zm0,1.94a4.64,4.64,0,0,0-4.4,2.37q-1.33,2.37-1.33,7.83v.36q0,5.31,1.38,7.61A4.69,4.69,0,0,0,185.34,35a4.61,4.61,0,0,0,4.29-2.68,16.47,16.47,0,0,0,1.44-7.65Q191.07,14.56,185.37,14.55Z"/><path class="cls-1" d="M204.42,12.61a10.25,10.25,0,0,1,2.37.3l-.3,2.05a7.18,7.18,0,0,0-2.26-.37q-2.22,0-3.65,2.55a13,13,0,0,0-1.42,6.42V36.5h-1.59V13.06h1.35l.16,4.23h.11a9.53,9.53,0,0,1,2.29-3.63A4.34,4.34,0,0,1,204.42,12.61Z"/><path class="cls-1" d="M217.36,36.93a6.76,6.76,0,0,1-5.92-3.15q-2.12-3.15-2.12-8.82a17.25,17.25,0,0,1,2.05-9,6.25,6.25,0,0,1,5.53-3.37,5.45,5.45,0,0,1,4.85,2.89,14.94,14.94,0,0,1,1.77,7.85v1.72H211q0,4.83,1.67,7.37a5.27,5.27,0,0,0,4.7,2.55,11.31,11.31,0,0,0,2.62-.28,13.42,13.42,0,0,0,2.86-1.21v1.94a10.14,10.14,0,0,1-2.73,1.17A11.22,11.22,0,0,1,217.36,36.93Zm-.46-22.42a4.67,4.67,0,0,0-4,2.23,12.85,12.85,0,0,0-1.78,6.43h10.76a12.87,12.87,0,0,0-1.31-6.37A4,4,0,0,0,216.9,14.51Z"/><path class="cls-1" d="M119.06,66.7V80.28h-8.32V46h15.51a20.36,20.36,0,0,1,6.9,1,8.79,8.79,0,0,1,4.3,3.55,10.16,10.16,0,0,1,1.71,5.74q0,6.16-6.13,8.85l6.52,15.15h-9.14L125,66.7Zm0-14.58v8.73h5.07a14.08,14.08,0,0,0,3.61-.33,4,4,0,0,0,2-1.51,4.3,4.3,0,0,0,.88-2.67,4,4,0,0,0-.88-2.56,3.59,3.59,0,0,0-1.91-1.4,19.1,19.1,0,0,0-3.88-.26Z"/><path class="cls-1" d="M155.15,54.4q6,0,9.32,3.79a13.82,13.82,0,0,1,3.34,9.49,13.23,13.23,0,0,1-3.47,9.37,12,12,0,0,1-9.24,3.75,11.4,11.4,0,0,1-8.92-3.71,13.71,13.71,0,0,1-3.35-9.54,14.46,14.46,0,0,1,1.51-6.86,12.28,12.28,0,0,1,4.15-4.55A11.86,11.86,0,0,1,155.15,54.4Zm.21,4.9a3.73,3.73,0,0,0-3.3,1.64Q151,62.59,151,67.48,151,72,152,73.93a3.5,3.5,0,0,0,3.3,2,3.75,3.75,0,0,0,3.17-1.67q1.22-1.68,1.21-6.36c0-3.33-.35-5.59-1.07-6.78A3.54,3.54,0,0,0,155.36,59.3Z"/><path class="cls-1" d="M192.23,61.05l-5.62,1.46q-1-3.43-5.09-3.44-3.89,0-3.88,2.29a1.75,1.75,0,0,0,.71,1.45,9.58,9.58,0,0,0,3.71.91A35,35,0,0,1,188.68,65a6.81,6.81,0,0,1,3.4,2.54A7.41,7.41,0,0,1,193.34,72a7.77,7.77,0,0,1-3.07,6.37q-3.06,2.46-8.57,2.46-10,0-11.92-7.5l6.49-.93c.53,2.28,2.47,3.41,5.79,3.41a7.19,7.19,0,0,0,3.24-.66,2,2,0,0,0,1.31-1.8c0-1.17-1-1.87-2.92-2.08q-7.91-1-10.41-2.95a6.71,6.71,0,0,1-2.49-5.55,7.4,7.4,0,0,1,2.89-6q2.9-2.35,8.12-2.36A12.18,12.18,0,0,1,188.43,56,9.9,9.9,0,0,1,192.23,61.05Z"/><path class="cls-1" d="M221.19,68.86H204.38c0,.45,0,.84,0,1.18a5.32,5.32,0,0,0,1.48,4.09,5.05,5.05,0,0,0,3.56,1.38q3.85,0,4.63-4l7,.5q-2.92,8.79-11.87,8.78a13.48,13.48,0,0,1-6.63-1.51,12.23,12.23,0,0,1-4.5-4.43,13.19,13.19,0,0,1-1.77-7,13.51,13.51,0,0,1,3.55-9.76,12.83,12.83,0,0,1,17.79-.27C220,60.16,221.19,63.82,221.19,68.86Zm-16.83-4.34h9.28c-.24-3.48-1.72-5.22-4.42-5.22Q204.87,59.3,204.36,64.52Z"/><path class="cls-1" d="M39.23,34.72l0,.05L30.78,15.65l-.55-1.25-1.69-3.83h0s-.11-.26-.27-.71l0,0s0,0,0,0c.15.44.27.71.27.71h0l1.69,3.84.55,1.25Z"/><path class="cls-1" d="M50.87,5.87c0,.19,0,.37,0,.56a13.39,13.39,0,0,1-.47,2.63c-.05.19-.1.36-.15.52s-.06.2-.09.28a15.51,15.51,0,0,0-4.31-1.49,34.61,34.61,0,0,0-13.25,0A15.76,15.76,0,0,0,28.3,9.84l0,0c-.07-.22-.16-.49-.24-.8a13.53,13.53,0,0,1-.47-2.63c0-.19,0-.37,0-.56a7.56,7.56,0,0,1,.86-3.81l.09,0C30.79.8,34.73,0,39.2,0S47.72.82,50,2.06A7.33,7.33,0,0,1,50.87,5.87Z"/><path class="cls-1" d="M62.33,74.84a14.52,14.52,0,0,1-8.94-7.92l-.51-1.15h0a15.48,15.48,0,0,1,8.93-.24,15.54,15.54,0,0,0-8.87.26h0l.51,1.15A14.6,14.6,0,0,0,62.33,74.84Z"/><path class="cls-1" d="M35.45,43.29,27.71,60.86l-1.57-.53-.21-.07c-9.07-3-19.24.9-22.73,8.82L1.58,72.77,0,76.35,5.47,78.2l2.85,1c8.77,3,18.59-.66,22.37-8.09.12-.24.24-.48.35-.73l1-2.36,2.16-4.92,5-11.25ZM25,66.92C22.1,73.53,14.35,77.07,7.69,74.83l-.64-.21.89-2c2.69-6.1,10.54-9.14,17.58-6.81Z"/><path class="cls-1" d="M76.88,72.79,75.26,69.1c-3.49-7.93-13.67-11.88-22.73-8.82l-1.78.6L43,43.3l0-.07-3.72-8.44,0-.07-8.39-19-.55-1.25L28.6,10.58h0s-.12-.27-.27-.71c0,0,0,0,0,0-.07-.22-.15-.47-.23-.76a13.56,13.56,0,0,1-.46-2.64c0-.18,0-.36,0-.55a7.33,7.33,0,0,1,.86-3.81l0-.06.05-.08-.42.14-.08,0c-5.13,1.76-7.85,6.38-6.11,10.35l.14.32L35.5,43.3l3.76,8.52,5,11.26L46.38,68l1,2.36v0h0c.1.24.22.48.34.72h0c3.78,7.43,13.6,11,22.37,8.08l2.85-1,5.47-1.84Zm-6.11,2.06a13.56,13.56,0,0,1-8,.13l-.44-.14a14.6,14.6,0,0,1-8.89-7.9l-.51-1.15h0a15.54,15.54,0,0,1,8.87-.26l.24.06.18.06a12.85,12.85,0,0,1,8.28,6.95l.9,2Z"/><path class="cls-1" d="M56.53,12.44l-.14.33L43,43.23l0,.06L39.2,34.77l0-.05,8.39-19.07.55-1.25h0l1.69-3.83h0s.11-.26.27-.71c0-.08.06-.18.09-.28s.1-.33.15-.52a13.39,13.39,0,0,0,.47-2.63c0-.19,0-.37,0-.56A7.33,7.33,0,0,0,50,2.06l-.08-.13.42.14.08,0C55.55,3.86,58.28,8.48,56.53,12.44Z"/></g></g></svg>