<svg xmlns="http://www.w3.org/2000/svg" viewBox="0 0 157.08 132.17"><defs><style>.cls-1{fill:#dc8425;}</style></defs><g id="Calque_2" data-name="Calque 2"><g id="Calque_1-2" data-name="Calque 1"><path class="cls-1" d="M33.75,105.39a15.55,15.55,0,0,0,2.94-2.62A2.62,2.62,0,0,0,37,99.14a32.61,32.61,0,0,1-1.9-2.73A26.14,26.14,0,0,1,33.44,93a5.75,5.75,0,0,1,1.89-6.57A30.65,30.65,0,0,1,41.85,82a78.25,78.25,0,0,1,17.24-6.2,41.25,41.25,0,0,1,11.09-1.32c3-.05,5.83-.1,8.41.9a19.79,19.79,0,0,1,3,1.36c2.89,1.48,3.63,5.16,2.42,7.89a9.56,9.56,0,0,1-3.2,3.89A31.89,31.89,0,0,1,72.28,93c-2.89,1.16-5.89,1.95-8.83,2.84a5,5,0,0,1-2,.21,1,1,0,0,1-.78-.63,1.26,1.26,0,0,1,.42-1.1,9.45,9.45,0,0,1,2-.79,65.88,65.88,0,0,0,12.4-5.21,24.5,24.5,0,0,0,5.15-3.78c2.58-2.63,2.37-4.15-1.31-5.68a17.2,17.2,0,0,0-6.68-1.26A58.4,58.4,0,0,0,56.2,79.9a63.91,63.91,0,0,0-14.77,5.89c-1.48.84-2.79,1.89-4.21,2.89a9.1,9.1,0,0,0-1,1.1c-1.21,1.58-1.26,2.37-.21,4,.79,1.26,1.57,2.52,2.42,3.73,1.94,2.73,1.31,6.78-2.16,9.3-4.57,3.37-9.67,5.84-14.72,8.47-3.78,1.94-7.62,3.83-11.3,6a62,62,0,0,0-6.83,4.78,6.33,6.33,0,0,0-1.63,2.05,1.18,1.18,0,0,0,.68,1.79,8.52,8.52,0,0,0,1.68.37,23.51,23.51,0,0,0,8.36-.68C21,127.84,29.65,126,38.17,123.9c8-1.9,15.87-4,23.81-6.05.79-.21,1.52-.52,2.31-.74.26,0,.58.22.89.32-.1.26-.21.63-.42.74a11.75,11.75,0,0,1-1.84.73c-4.36,1.26-8.77,2.58-13.19,3.73-7.31,1.84-14.61,3.63-21.92,5.42-5,1.15-10,2.36-15,3.31A29.06,29.06,0,0,1,4,132c-1.53-.21-2.95-.58-3.63-2.1a4,4,0,0,1,.84-4.31,20.11,20.11,0,0,1,5.68-4.89c4.1-2.47,8.36-4.73,12.51-7.09C24.18,110.91,29,108.23,33.75,105.39Z"/><path class="cls-1" d="M67.17,113c-1.68.53-3.62-.68-3.41-3.52a22,22,0,0,1,1.15-3.1,27.4,27.4,0,0,1,4-6A78.45,78.45,0,0,1,84.31,86.47a18.65,18.65,0,0,1,1.84-1.16,2.13,2.13,0,0,1,2.73.37A2,2,0,0,1,89,88.42a7.91,7.91,0,0,1-1.58,1.89c-1.79,1.57-3.57,3.15-5.47,4.52-2.2,1.63-4.57,3-6.83,4.57-2,1.42-4.26,2.58-5.78,4.68a23.37,23.37,0,0,0-3.63,6.31c-.26.84-.1,1,.74.84A33.42,33.42,0,0,0,70.06,110c4.84-1.84,9.68-3.79,14.51-5.63a28.74,28.74,0,0,1,3.31-1,.81.81,0,0,1,.84.27c.27.36,0,.73-.36.89a29.7,29.7,0,0,1-2.89,1.26c-1.16.53-2.37.95-3.53,1.42-3.52,1.42-7,2.84-10.61,4.26A39.41,39.41,0,0,1,67.17,113Zm9.2-16.34c.11,0,.32,0,.42-.11,1.74-1.26,3.58-2.41,5.21-3.83s3.1-3,4.67-4.42a2.84,2.84,0,0,0,.37-.53.39.39,0,0,1-.05-.15c-.11,0-.32-.06-.42,0-1.68,1.36-3.36,2.68-5,4s-3.37,3-5,4.58C76.42,96.35,76.42,96.51,76.37,96.67Z"/><path class="cls-1" d="M93.61,107.5c.42-.69,1-1.37,1.37-2,.1-.11,0-.27.1-.42a1.24,1.24,0,0,0-.47,0c-.84.52-1.68,1-2.52,1.52l-2.68,1.58c-1.48.84-3,1.73-4.47,2.52a4.67,4.67,0,0,1-1.68.63,2,2,0,0,1-2.32-2.21,7.76,7.76,0,0,1,1.58-3,41.83,41.83,0,0,1,5.41-5.15.64.64,0,0,0,.27-.21c.47-.32.94-.69,1.47-.11a1.5,1.5,0,0,1,0,1.79c-.58.63-1.26,1.1-1.84,1.73-1.47,1.47-2.89,3-4.31,4.52-.11.16-.06.42-.06.58a1.55,1.55,0,0,0,.48,0c1.52-.74,3.1-1.47,4.57-2.31,2.94-1.53,5.83-3.16,8.78-4.73.47-.27.89-.74,1.47-.32a1.72,1.72,0,0,1,.37,1.84,4.44,4.44,0,0,1-.53.84c-.89,1.42-1.84,2.79-2.73,4.16-.11.26-.21.52-.32.73a2.47,2.47,0,0,0,.9-.26c2.89-1.68,5.83-3.37,8.78-5.05.78-.42,1.63-.89,2.47-1.26.36-.16.84-.37,1,.11a1.25,1.25,0,0,1-.47.94c-1.47.9-2.94,1.74-4.41,2.58-3.05,1.78-6.05,3.47-9.1,5.25A12.11,12.11,0,0,0,91.19,115a42.7,42.7,0,0,1-11.25,9.88,26.47,26.47,0,0,1-3.78,1.69,1.3,1.3,0,0,1-1.58-1.9A14.19,14.19,0,0,1,76,123a63.5,63.5,0,0,1,8.62-6.73,4.74,4.74,0,0,1,.84-.52C89.14,114,91.51,110.91,93.61,107.5ZM85.2,118c0-.11,0-.26.11-.42-.16,0-.32,0-.42.16a66.18,66.18,0,0,0-8.1,6.25,1.18,1.18,0,0,0-.21.26v.27s.11,0,.21,0a3.25,3.25,0,0,0,.42-.21A33.32,33.32,0,0,0,85.2,118Z"/><path class="cls-1" d="M109.11,110.12c-1,.48-1.84,1.06-1.68,2.37a3.61,3.61,0,0,1-.37,1.63c-.84,2.15-4.62,4.73-7,4.73a3.84,3.84,0,0,1-.73,0,1.57,1.57,0,0,1-1.11-2.53,15.92,15.92,0,0,1,2.84-2.78c1.1-.84,2.37-1.58,3.63-2.37s1.26-.84.84-2.26c-.32-1.21-.69-2.42-.95-3.68-.47-2.31.11-3.68,2.26-4.78A29.42,29.42,0,0,1,111,98.51a1.4,1.4,0,0,1,2,.89c.21.63.06,1-.63,1.26-1.21.53-2.47,1-3.68,1.53a8.59,8.59,0,0,0-1.31.73,2.55,2.55,0,0,0-1.16,2.74c.21,1,.53,2.1.79,3.2.16.58.53.63,1,.37,1.42-.63,2.79-1.31,4.21-2,2.52-1.15,5-2.31,7.51-3.47.42-.15,1-.68,1.32-.1.36.73-.48.89-1,1.1Zm-3.78,2.95a.51.51,0,0,0-.11-.48.6.6,0,0,0-.42,0c-1.26.85-2.57,1.69-3.78,2.58a16.07,16.07,0,0,0-1.68,1.63.59.59,0,0,0,0,.42s.16.11.26.11h.32a10.22,10.22,0,0,0,5.15-3.68A2,2,0,0,0,105.33,113.07Z"/><path class="cls-1" d="M116.68,113c-2.42.22-3.68-1.47-2.73-3.67a22.51,22.51,0,0,1,6.1-8,4.94,4.94,0,0,1,1.31-.69,1.4,1.4,0,0,1,2,.58,4,4,0,0,1,.84,2.47c0,2.26-1.1,3.84-3.63,3.73a6.32,6.32,0,0,1-1.79-.36,1.25,1.25,0,0,0-1.73.47,21.89,21.89,0,0,0-1.79,3c-.26.42-.05.85.58.85a6.42,6.42,0,0,0,1.79-.16c2.42-.69,4.83-1.37,7.15-2.26,4.41-1.74,8.77-3.58,13.19-5.36.53-.21,1.31-.79,1.63-.21.37.78-.63.89-1.1,1.1-3.68,1.63-7.42,3.21-11.09,4.84-1.32.57-2.63,1.2-3.9,1.78A19.23,19.23,0,0,1,116.68,113Zm3.21-8.62c-.11.11-.26.32-.21.37a1.38,1.38,0,0,0,.37.32c1,0,1.63-.26,1.89-1a2.85,2.85,0,0,0,.16-.94,2.38,2.38,0,0,0-.9.21A12.85,12.85,0,0,0,119.89,104.39Z"/><path class="cls-1" d="M134.08,113c-2.42.22-3.68-1.47-2.73-3.67a22.59,22.59,0,0,1,6.09-8,5,5,0,0,1,1.32-.69,1.39,1.39,0,0,1,2,.58,3.92,3.92,0,0,1,.85,2.47c0,2.26-1.11,3.84-3.63,3.73a6.32,6.32,0,0,1-1.79-.36,1.25,1.25,0,0,0-1.73.47,20.93,20.93,0,0,0-1.79,3c-.26.42,0,.85.58.85a6.31,6.31,0,0,0,1.78-.16c2.42-.69,4.84-1.37,7.15-2.26,4.42-1.74,8.78-3.58,13.2-5.36.52-.21,1.31-.79,1.63-.21.36.78-.63.89-1.11,1.1-3.68,1.63-7.41,3.21-11.09,4.84-1.31.57-2.63,1.2-3.89,1.78A19.29,19.29,0,0,1,134.08,113Zm3.21-8.62c-.11.11-.27.32-.22.37a1.76,1.76,0,0,0,.37.32c1,0,1.63-.26,1.9-1a2.85,2.85,0,0,0,.15-.94,2.37,2.37,0,0,0-.89.21A12.85,12.85,0,0,0,137.29,104.39Z"/><path class="cls-1" d="M118.74,35.3l-9.55-9.87H64L54.46,35.3l-.87.89.62.6.26.27,32,31.53.15.14.15-.14,32-31.53.88-.87Zm-2.46,0h-16l8.16-8.11h.06ZM86.75,68l-.15.16L86.42,68,75.29,37.06h21.6L86.76,68ZM86.1,27.3l.27-.11H87l8.87,8.11H76.34c1.41-1.24,2.85-2.45,4.3-3.66l3.09-2.51,1.56-1.24A5.07,5.07,0,0,1,86.1,27.3Zm21.2-.11L98.08,35l-9.74-7.84Zm-22.53,0v0l-1.58,1.22L80,30.84c-1.93,1.43-3.89,2.86-5.89,4.22-1.52-1.39-3-2.82-4.47-4.24l-2.45-2.44L66,27.19Zm-20.2.18a5.41,5.41,0,0,1,.62.56l1.19,1.25,2.39,2.49c1.12,1.2,2.24,2.4,3.33,3.63H56.91Zm-7.68,9.69H73.46L86.37,67.9ZM86.8,67.92,98.7,37.06h17.6Z"/><polygon class="cls-1" points="60.01 9.89 66.01 19.02 59.2 10.48 60.01 9.89"/><polygon class="cls-1" points="111.86 10.48 105.06 19.02 111.05 9.89 111.86 10.48"/><polygon class="cls-1" points="86.03 0 85.77 10.91 85.03 0.02 86.03 0"/></g></g></svg>