<?xml version="1.0" encoding="UTF-8"?>
<svg id="Calque_1" data-name="Calque 1" xmlns="http://www.w3.org/2000/svg" xmlns:xlink="http://www.w3.org/1999/xlink" viewBox="0 0 290.31 50.69">
  <defs>
    <style>
      .cls-1{fill:url(#Dégradé_sans_nom_23);}
      .cls-2{fill:url(#Dégradé_sans_nom_23-2);}
      .cls-3{fill:#6366f1;}
    </style>
    <linearGradient id="Dégradé_sans_nom_23" x1="5" y1="151.18" x2="60.97" y2="151.18" gradientUnits="userSpaceOnUse">
      <stop offset="0" stop-color="#6465f1"/>
      <stop offset="0.66" stop-color="#b353e8"/>
      <stop offset="0.9" stop-color="#e8499f"/>
    </linearGradient>
    <linearGradient id="Dégradé_sans_nom_23-2" x1="22.2" y1="148.1" x2="78.23" y2="148.1" xlink:href="#Dégradé_sans_nom_23"/>
  </defs>
  <path class="cls-1" d="M61,146.58a4.52,4.52,0,0,1-1.42,3.47q-9.61,9.58-19.22,19.18a19.68,19.68,0,0,1-7.89,5,15.55,15.55,0,0,1-4.72.76,17.4,17.4,0,0,1-8.92-2.39,29.2,29.2,0,0,1-11.37-11.3,18.84,18.84,0,0,1-2.25-6.62,17.25,17.25,0,0,1,3-12.51,27,27,0,0,1,2.93-3.55c3.25-3.32,6.56-6.58,9.85-9.86a4.49,4.49,0,0,1,7.58,2A4.2,4.2,0,0,1,27.37,135c-3.24,3.27-6.51,6.51-9.77,9.77a10.35,10.35,0,0,0-2.54,3.76,8.77,8.77,0,0,0,.4,6.76,18.22,18.22,0,0,0,4.67,6.1,16.56,16.56,0,0,0,4.69,3.1,8,8,0,0,0,8.83-1.37,14.57,14.57,0,0,0,1.08-1q9.23-9.21,18.44-18.42a4.65,4.65,0,0,1,3.47-1.46A4.48,4.48,0,0,1,61,146.58Z" transform="translate(-5 -124.29)"/>
  <path class="cls-2" d="M78.23,146.81a18.33,18.33,0,0,1-4,11.5,33.62,33.62,0,0,1-2.46,2.74q-4.73,4.75-9.48,9.47A4.5,4.5,0,0,1,54.58,168a4.23,4.23,0,0,1,1.27-3.72l9.83-9.82a9.84,9.84,0,0,0,2.74-4.52,8.93,8.93,0,0,0-.66-5.91,18,18,0,0,0-4.83-6.26,16,16,0,0,0-4.73-3A8,8,0,0,0,49.7,136a14.45,14.45,0,0,0-1.23,1.12Q39.25,146.35,30,155.56A4.52,4.52,0,0,1,26.75,157a4.34,4.34,0,0,1-4.16-2.77,4.26,4.26,0,0,1,1-4.94q9.63-9.65,19.29-19.26a19.81,19.81,0,0,1,7.89-5,15.76,15.76,0,0,1,3.8-.72,18.08,18.08,0,0,1,11.13,3.11A30,30,0,0,1,75,136.65a20.19,20.19,0,0,1,3,8C78.16,145.48,78.19,146.32,78.23,146.81Z" transform="translate(-5 -124.29)"/>
  <path class="cls-3" d="M104.29,166.22a10.39,10.39,0,0,1-4.4-4.52,15.64,15.64,0,0,1-1.52-7.18v-9.75a15.62,15.62,0,0,1,1.52-7.17,10.36,10.36,0,0,1,4.4-4.53,14.36,14.36,0,0,1,6.93-1.56,12.29,12.29,0,0,1,6,1.44,11.8,11.8,0,0,1,4.36,4.19,17.83,17.83,0,0,1,2.38,6.63H117a9.07,9.07,0,0,0-1.21-3,5.9,5.9,0,0,0-2-1.91,5.19,5.19,0,0,0-2.61-.66,6.29,6.29,0,0,0-3.2.77,4.91,4.91,0,0,0-2,2.25,8.21,8.21,0,0,0-.7,3.55v9.75a8.14,8.14,0,0,0,.7,3.55,5,5,0,0,0,2,2.23,6.19,6.19,0,0,0,3.2.77,5.27,5.27,0,0,0,2.64-.65,5.41,5.41,0,0,0,2-1.89,8.84,8.84,0,0,0,1.18-3H124a18.32,18.32,0,0,1-2.4,6.64,11.93,11.93,0,0,1-4.35,4.19,12.22,12.22,0,0,1-6,1.44A14.48,14.48,0,0,1,104.29,166.22Z" transform="translate(-5 -124.29)"/>
  <path class="cls-3" d="M134.52,166.14a11.24,11.24,0,0,1-4.55-4.59,14.13,14.13,0,0,1-1.62-6.88V144.6a14.09,14.09,0,0,1,1.62-6.87,11.32,11.32,0,0,1,4.55-4.6,15.1,15.1,0,0,1,13.61,0,11.35,11.35,0,0,1,4.56,4.6,14.2,14.2,0,0,1,1.61,6.87v10.07a14.24,14.24,0,0,1-1.61,6.88,11.26,11.26,0,0,1-4.56,4.59,15,15,0,0,1-13.61,0Zm10-5.84a5.24,5.24,0,0,0,2.12-2.18,7,7,0,0,0,.74-3.28V144.43a7,7,0,0,0-.74-3.27A5.21,5.21,0,0,0,144.5,139a6.93,6.93,0,0,0-6.35,0,5.19,5.19,0,0,0-2.11,2.19,6.86,6.86,0,0,0-.75,3.27v10.41a6.93,6.93,0,0,0,.75,3.28,5.22,5.22,0,0,0,2.11,2.18,6.93,6.93,0,0,0,6.35,0Z" transform="translate(-5 -124.29)"/>
  <path class="cls-3" d="M160.9,131.87h8.19l13.21,27.22-.58.64V131.87h6.4v35.51h-8.23l-13.17-26.81.58-.63v27.44h-6.4Z" transform="translate(-5 -124.29)"/>
  <path class="cls-3" d="M195.94,131.87h6.69V167.4h-6.69Zm2.42,0h21.38v6.45H198.36Zm0,14.66h18.69V153H198.36Zm0,14.42h21.38v6.45H198.36Z" transform="translate(-5 -124.29)"/>
  <path class="cls-3" d="M231,166.22a10.39,10.39,0,0,1-4.4-4.52,15.64,15.64,0,0,1-1.52-7.18v-9.75a15.62,15.62,0,0,1,1.52-7.17,10.36,10.36,0,0,1,4.4-4.53,14.38,14.38,0,0,1,6.94-1.56,12.27,12.27,0,0,1,6,1.44,11.73,11.73,0,0,1,4.36,4.19,18,18,0,0,1,2.39,6.63h-6.94a9.07,9.07,0,0,0-1.21-3,5.9,5.9,0,0,0-2-1.91,5.16,5.16,0,0,0-2.6-.66,6.24,6.24,0,0,0-3.2.77,4.93,4.93,0,0,0-2,2.25,8.35,8.35,0,0,0-.7,3.55v9.75a8.29,8.29,0,0,0,.7,3.55,5,5,0,0,0,2,2.23,6.14,6.14,0,0,0,3.2.77,5.33,5.33,0,0,0,2.64-.65,5.46,5.46,0,0,0,2-1.89,8.84,8.84,0,0,0,1.18-3h6.94a18.51,18.51,0,0,1-2.41,6.64,11.93,11.93,0,0,1-4.35,4.19,12.21,12.21,0,0,1-6,1.44A14.49,14.49,0,0,1,231,166.22Z" transform="translate(-5 -124.29)"/>
  <path class="cls-3" d="M262.77,167.4h-6.94V131.87h6.94Z" transform="translate(-5 -124.29)"/>
  <path class="cls-3" d="M275.53,166.14a11.24,11.24,0,0,1-4.55-4.59,14.13,14.13,0,0,1-1.62-6.88V144.6a14.09,14.09,0,0,1,1.62-6.87,11.32,11.32,0,0,1,4.55-4.6,15.1,15.1,0,0,1,13.61,0,11.29,11.29,0,0,1,4.56,4.6,14.09,14.09,0,0,1,1.61,6.87v10.07a14.13,14.13,0,0,1-1.61,6.88,11.2,11.2,0,0,1-4.56,4.59,15,15,0,0,1-13.61,0Zm10-5.84a5.28,5.28,0,0,0,2.11-2.18,6.93,6.93,0,0,0,.74-3.28V144.43a6.86,6.86,0,0,0-.74-3.27,5.25,5.25,0,0,0-2.11-2.19,7,7,0,0,0-6.36,0,5.25,5.25,0,0,0-2.11,2.19,6.86,6.86,0,0,0-.75,3.27v10.41a6.93,6.93,0,0,0,.75,3.28,5.28,5.28,0,0,0,2.11,2.18,7,7,0,0,0,6.36,0Z" transform="translate(-5 -124.29)"/>
</svg> 