<svg xmlns="http://www.w3.org/2000/svg" viewBox="0 0 133.13 92.15"><defs><style>.cls-1{fill:#6366f1;}</style></defs><g id="Calque_2" data-name="Calque 2"><g id="Calque_1-2" data-name="Calque 1"><path class="cls-1" d="M101.75,40.51a8.27,8.27,0,0,1-2.59,6.32Q81.69,64.26,64.23,81.69a36,36,0,0,1-14.34,9.08,28.13,28.13,0,0,1-8.58,1.37,31.54,31.54,0,0,1-16.22-4.35A53,53,0,0,1,4.41,67.26a34.37,34.37,0,0,1-4.08-12A31.34,31.34,0,0,1,5.76,32.48,47.75,47.75,0,0,1,11.1,26C17,20,23,14.07,29,8.1a8.15,8.15,0,0,1,13.77,3.69,7.63,7.63,0,0,1-2.1,7.71c-5.9,5.94-11.84,11.84-17.76,17.76a18.91,18.91,0,0,0-4.63,6.84c-1.55,4.2-1,8.29.74,12.29A32.76,32.76,0,0,0,27.5,67.47,30.48,30.48,0,0,0,36,73.11c5.87,2.47,11.2,1.54,16.05-2.49.68-.56,1.33-1.17,2-1.8Q70.82,52.1,87.57,35.34a8.52,8.52,0,0,1,6.31-2.67A8.16,8.16,0,0,1,101.75,40.51Z"/><path class="cls-1" d="M133.13,40.94a33.22,33.22,0,0,1-7.31,20.89,57.34,57.34,0,0,1-4.48,5c-5.72,5.77-11.47,11.49-17.23,17.22a8.19,8.19,0,0,1-14-4.66,7.7,7.7,0,0,1,2.31-6.76q8.93-9,17.88-17.86a17.83,17.83,0,0,0,5-8.21,16.22,16.22,0,0,0-1.2-10.75,33,33,0,0,0-8.78-11.37,29.24,29.24,0,0,0-8.6-5.53,14.52,14.52,0,0,0-15.45,2.44,26.84,26.84,0,0,0-2.23,2Q62.26,40.1,45.51,56.84a8.28,8.28,0,0,1-6,2.65,7.88,7.88,0,0,1-7.56-5,7.75,7.75,0,0,1,1.84-9q17.52-17.53,35.06-35A35.9,35.9,0,0,1,83.22,1.39,28.92,28.92,0,0,1,90.13.07c7.42-.51,14.08,1.74,20.23,5.66a54.42,54.42,0,0,1,16.93,16.74A36.57,36.57,0,0,1,132.78,37C133,38.51,133.05,40,133.13,40.94Z"/></g></g></svg>