<svg xmlns="http://www.w3.org/2000/svg" xmlns:xlink="http://www.w3.org/1999/xlink" viewBox="0 0 76.1 52.67"><defs><style>.cls-1{fill:url(#Dégradé_sans_nom_23);}.cls-2{fill:url(#Dégradé_sans_nom_23-2);}</style><linearGradient id="Dégradé_sans_nom_23" y1="27.94" x2="58.16" y2="27.94" gradientUnits="userSpaceOnUse"><stop offset="0" stop-color="#6465f1"/><stop offset="0.66" stop-color="#b353e8"/><stop offset="0.9" stop-color="#e8499f"/></linearGradient><linearGradient id="Dégradé_sans_nom_23-2" x1="17.88" y1="24.74" x2="76.1" y2="24.74" xlink:href="#Dégradé_sans_nom_23"/></defs><g id="Calque_2" data-name="Calque 2"><g id="Calque_1-2" data-name="Calque 1"><path class="cls-1" d="M58.16,23.16a4.72,4.72,0,0,1-1.48,3.61q-10,10-20,19.92a20.66,20.66,0,0,1-8.2,5.2,16.18,16.18,0,0,1-4.91.78,18,18,0,0,1-9.27-2.49A30.29,30.29,0,0,1,2.52,38.45,19.6,19.6,0,0,1,.19,31.56a17.92,17.92,0,0,1,3.1-13,28.24,28.24,0,0,1,3.05-3.68C9.72,11.43,13.16,8,16.58,4.63a4.66,4.66,0,0,1,7.87,2.11,4.38,4.38,0,0,1-1.2,4.41c-3.37,3.39-6.77,6.77-10.16,10.15a10.87,10.87,0,0,0-2.64,3.91,9.15,9.15,0,0,0,.42,7,18.72,18.72,0,0,0,4.85,6.34,17.31,17.31,0,0,0,4.88,3.22,8.36,8.36,0,0,0,9.18-1.42c.39-.33.76-.67,1.11-1L50.06,20.2a4.83,4.83,0,0,1,3.61-1.52A4.65,4.65,0,0,1,58.16,23.16Z"/><path class="cls-2" d="M76.1,23.4a19,19,0,0,1-4.18,11.94,33.06,33.06,0,0,1-2.56,2.86q-4.9,4.94-9.85,9.84a4.68,4.68,0,0,1-8-2.67,4.39,4.39,0,0,1,1.32-3.86q5.1-5.11,10.22-10.21a10.16,10.16,0,0,0,2.84-4.69,9.33,9.33,0,0,0-.68-6.15,19.09,19.09,0,0,0-5-6.5,16.67,16.67,0,0,0-4.92-3.15,8.28,8.28,0,0,0-8.83,1.39,15.58,15.58,0,0,0-1.28,1.16L26,32.49A4.69,4.69,0,0,1,22.6,34a4.48,4.48,0,0,1-4.32-2.87,4.4,4.4,0,0,1,1-5.13q10-10,20-20a20.49,20.49,0,0,1,8.2-5.2,16,16,0,0,1,4-.75A18.8,18.8,0,0,1,63.08,3.27a31.24,31.24,0,0,1,9.68,9.57,20.91,20.91,0,0,1,3.14,8.31C76,22,76.05,22.89,76.1,23.4Z"/></g></g></svg>