<svg xmlns="http://www.w3.org/2000/svg" xmlns:xlink="http://www.w3.org/1999/xlink" viewBox="0 0 204.65 108.88"><defs><style>.cls-1{fill:#6366f1;}.cls-2{fill:url(#Dégradé_sans_nom_23);}.cls-3{fill:url(#Dégradé_sans_nom_23-2);}</style><linearGradient id="Dégradé_sans_nom_23" x1="64.28" y1="27.94" x2="122.44" y2="27.94" gradientUnits="userSpaceOnUse"><stop offset="0" stop-color="#6465f1"/><stop offset="0.66" stop-color="#b353e8"/><stop offset="0.9" stop-color="#e8499f"/></linearGradient><linearGradient id="Dégradé_sans_nom_23-2" x1="82.15" y1="24.74" x2="140.37" y2="24.74" xlink:href="#Dégradé_sans_nom_23"/></defs><g id="Calque_2" data-name="Calque 2"><g id="Calque_1-2" data-name="Calque 1"><path class="cls-1" d="M6.14,107.27a10.86,10.86,0,0,1-4.57-4.7A16.23,16.23,0,0,1,0,95.12V85a16.25,16.25,0,0,1,1.57-7.46,10.94,10.94,0,0,1,4.57-4.71,15,15,0,0,1,7.22-1.62,12.78,12.78,0,0,1,6.22,1.5,12.31,12.31,0,0,1,4.53,4.35,18.67,18.67,0,0,1,2.47,6.89H19.37a9.48,9.48,0,0,0-1.25-3.12,6.16,6.16,0,0,0-2.06-2,5.34,5.34,0,0,0-2.7-.68A6.51,6.51,0,0,0,10,79a5.32,5.32,0,0,0-2.1,2.34A8.69,8.69,0,0,0,7.21,85V95.12a8.6,8.6,0,0,0,.72,3.68,5.27,5.27,0,0,0,2.1,2.32,6.52,6.52,0,0,0,3.33.8,5.56,5.56,0,0,0,2.74-.67,5.75,5.75,0,0,0,2-2,9,9,0,0,0,1.22-3.15h7.21a19,19,0,0,1-2.5,6.9,12.28,12.28,0,0,1-4.52,4.35,12.67,12.67,0,0,1-6.2,1.5A15.13,15.13,0,0,1,6.14,107.27Z"/><path class="cls-1" d="M37.57,107.19a11.83,11.83,0,0,1-4.74-4.77,14.72,14.72,0,0,1-1.68-7.15V84.81a14.72,14.72,0,0,1,1.68-7.15,11.71,11.71,0,0,1,4.74-4.77,14.33,14.33,0,0,1,7.07-1.69,14.36,14.36,0,0,1,7.07,1.69,11.62,11.62,0,0,1,4.73,4.77,14.72,14.72,0,0,1,1.68,7.15V95.27a14.72,14.72,0,0,1-1.68,7.15,11.74,11.74,0,0,1-4.73,4.77,14.36,14.36,0,0,1-7.07,1.69A14.33,14.33,0,0,1,37.57,107.19Zm10.37-6.07a5.39,5.39,0,0,0,2.19-2.27,7.17,7.17,0,0,0,.78-3.4V84.63a7.14,7.14,0,0,0-.78-3.4A5.47,5.47,0,0,0,47.94,79a7.29,7.29,0,0,0-6.6,0,5.56,5.56,0,0,0-2.2,2.28,7.13,7.13,0,0,0-.77,3.4V95.45a7.16,7.16,0,0,0,.77,3.4,5.47,5.47,0,0,0,2.2,2.27,7.21,7.21,0,0,0,6.6,0Z"/><path class="cls-1" d="M65,71.58h8.51L87.22,99.86l-.61.66V71.58h6.65v36.89H84.7L71,80.62l.61-.66v28.51H65Z"/><path class="cls-1" d="M101.38,71.58h7V108.5h-7Zm2.52,0h22.22v6.7H103.9Zm0,15.23h19.42v6.71H103.9Zm0,15h22.22v6.71H103.9Z"/><path class="cls-1" d="M137.85,107.27a10.81,10.81,0,0,1-4.57-4.7,16.23,16.23,0,0,1-1.58-7.45V85a16.25,16.25,0,0,1,1.58-7.46,10.88,10.88,0,0,1,4.57-4.71,14.94,14.94,0,0,1,7.21-1.62,12.75,12.75,0,0,1,6.22,1.5,12.24,12.24,0,0,1,4.53,4.35,18.86,18.86,0,0,1,2.48,6.89h-7.22a9.48,9.48,0,0,0-1.25-3.12,6.16,6.16,0,0,0-2.06-2,5.31,5.31,0,0,0-2.7-.68,6.51,6.51,0,0,0-3.33.79,5.24,5.24,0,0,0-2.09,2.34,8.54,8.54,0,0,0-.73,3.7V95.12a8.45,8.45,0,0,0,.73,3.68,5.19,5.19,0,0,0,2.09,2.32,6.52,6.52,0,0,0,3.33.8,5.56,5.56,0,0,0,2.74-.67,5.86,5.86,0,0,0,2.06-2,9.17,9.17,0,0,0,1.21-3.15h7.22a19.18,19.18,0,0,1-2.51,6.9,12.28,12.28,0,0,1-4.52,4.35,12.62,12.62,0,0,1-6.2,1.5A15.06,15.06,0,0,1,137.85,107.27Z"/><path class="cls-1" d="M170.83,108.5h-7.21V71.58h7.21Z"/><path class="cls-1" d="M184.09,107.19a11.81,11.81,0,0,1-4.73-4.77,14.72,14.72,0,0,1-1.68-7.15V84.81a14.72,14.72,0,0,1,1.68-7.15,11.68,11.68,0,0,1,4.73-4.77,15.65,15.65,0,0,1,14.15,0A11.62,11.62,0,0,1,203,77.66a14.72,14.72,0,0,1,1.68,7.15V95.27a14.72,14.72,0,0,1-1.68,7.15,11.74,11.74,0,0,1-4.73,4.77,15.65,15.65,0,0,1-14.15,0Zm10.38-6.07a5.39,5.39,0,0,0,2.19-2.27,7.17,7.17,0,0,0,.78-3.4V84.63a7.14,7.14,0,0,0-.78-3.4A5.47,5.47,0,0,0,194.47,79a7.29,7.29,0,0,0-6.6,0,5.56,5.56,0,0,0-2.2,2.28,7.14,7.14,0,0,0-.78,3.4V95.45a7.17,7.17,0,0,0,.78,3.4,5.47,5.47,0,0,0,2.2,2.27,7.21,7.21,0,0,0,6.6,0Z"/><path class="cls-2" d="M122.44,23.16A4.76,4.76,0,0,1,121,26.77q-10,10-20,19.92a20.6,20.6,0,0,1-8.2,5.2,16.11,16.11,0,0,1-4.9.78,18,18,0,0,1-9.28-2.49A30.27,30.27,0,0,1,66.8,38.45a19.4,19.4,0,0,1-2.33-6.89,17.92,17.92,0,0,1,3.1-13,27.46,27.46,0,0,1,3.05-3.68C74,11.43,77.43,8,80.85,4.63a4.66,4.66,0,0,1,7.87,2.11,4.36,4.36,0,0,1-1.2,4.41c-3.37,3.39-6.77,6.77-10.15,10.15a10.75,10.75,0,0,0-2.64,3.91,9.06,9.06,0,0,0,.42,7A18.59,18.59,0,0,0,80,38.57a17.31,17.31,0,0,0,4.88,3.22,8.35,8.35,0,0,0,9.17-1.42c.39-.33.76-.67,1.12-1q9.58-9.57,19.16-19.14a4.83,4.83,0,0,1,3.61-1.52A4.66,4.66,0,0,1,122.44,23.16Z"/><path class="cls-3" d="M140.37,23.4a19,19,0,0,1-4.17,11.94,33.18,33.18,0,0,1-2.57,2.86q-4.89,4.94-9.84,9.84a4.67,4.67,0,0,1-8-2.67,4.39,4.39,0,0,1,1.32-3.86q5.1-5.11,10.21-10.21a10.18,10.18,0,0,0,2.85-4.69,9.33,9.33,0,0,0-.69-6.15,18.93,18.93,0,0,0-5-6.5,16.79,16.79,0,0,0-4.92-3.15,8.3,8.3,0,0,0-8.84,1.39c-.44.36-.86.75-1.27,1.16L90.29,32.49A4.71,4.71,0,0,1,86.87,34a4.48,4.48,0,0,1-4.32-2.87,4.43,4.43,0,0,1,1-5.13q10-10,20-20a20.56,20.56,0,0,1,8.2-5.2,16.21,16.21,0,0,1,4-.75,18.81,18.81,0,0,1,11.56,3.23A31.24,31.24,0,0,1,137,12.84a21.07,21.07,0,0,1,3.14,8.31C140.3,22,140.33,22.89,140.37,23.4Z"/></g></g></svg>