<svg xmlns="http://www.w3.org/2000/svg" viewBox="0 0 301.67 52.67"><defs><style>.cls-1{fill:#e9ecff;}</style></defs><g id="Calque_2" data-name="Calque 2"><g id="Calque_1-2" data-name="Calque 1"><path class="cls-1" d="M58.16,23.16a4.72,4.72,0,0,1-1.48,3.61q-10,10-20,19.92a20.66,20.66,0,0,1-8.2,5.2,16.18,16.18,0,0,1-4.91.78,18,18,0,0,1-9.27-2.49A30.29,30.29,0,0,1,2.52,38.45,19.6,19.6,0,0,1,.19,31.56a17.92,17.92,0,0,1,3.1-13,28.24,28.24,0,0,1,3.05-3.68C9.72,11.43,13.16,8,16.58,4.63a4.66,4.66,0,0,1,7.87,2.11,4.38,4.38,0,0,1-1.2,4.41c-3.37,3.39-6.77,6.77-10.16,10.15a10.87,10.87,0,0,0-2.64,3.91,9.15,9.15,0,0,0,.42,7,18.72,18.72,0,0,0,4.85,6.34,17.31,17.31,0,0,0,4.88,3.22,8.36,8.36,0,0,0,9.18-1.42c.39-.33.76-.67,1.11-1L50.06,20.2a4.83,4.83,0,0,1,3.61-1.52A4.65,4.65,0,0,1,58.16,23.16Z"/><path class="cls-1" d="M76.1,23.4a19,19,0,0,1-4.18,11.94,33.06,33.06,0,0,1-2.56,2.86q-4.9,4.94-9.85,9.84a4.68,4.68,0,0,1-8-2.67,4.39,4.39,0,0,1,1.32-3.86q5.1-5.11,10.22-10.21a10.16,10.16,0,0,0,2.84-4.69,9.33,9.33,0,0,0-.68-6.15,19.09,19.09,0,0,0-5-6.5,16.67,16.67,0,0,0-4.92-3.15,8.28,8.28,0,0,0-8.83,1.39,15.58,15.58,0,0,0-1.28,1.16L26,32.49A4.69,4.69,0,0,1,22.6,34a4.48,4.48,0,0,1-4.32-2.87,4.4,4.4,0,0,1,1-5.13q10-10,20-20a20.49,20.49,0,0,1,8.2-5.2,16,16,0,0,1,4-.75A18.8,18.8,0,0,1,63.08,3.27a31.24,31.24,0,0,1,9.68,9.57,20.91,20.91,0,0,1,3.14,8.31C76,22,76.05,22.89,76.1,23.4Z"/><path class="cls-1" d="M103.17,43.56a10.73,10.73,0,0,1-4.57-4.69A16.25,16.25,0,0,1,97,31.41V21.28a16.23,16.23,0,0,1,1.57-7.45,10.88,10.88,0,0,1,4.57-4.71,15,15,0,0,1,7.21-1.62A12.85,12.85,0,0,1,116.6,9a12.26,12.26,0,0,1,4.53,4.36,18.68,18.68,0,0,1,2.48,6.89H116.4a9.19,9.19,0,0,0-1.26-3.12,6.13,6.13,0,0,0-2-2,5.38,5.38,0,0,0-2.71-.69,6.5,6.5,0,0,0-3.32.8,5.21,5.21,0,0,0-2.1,2.34,8.64,8.64,0,0,0-.72,3.69V31.41A8.61,8.61,0,0,0,105,35.1a5.16,5.16,0,0,0,2.1,2.32,6.5,6.5,0,0,0,3.32.8,5.53,5.53,0,0,0,2.74-.67,5.78,5.78,0,0,0,2.06-2,9,9,0,0,0,1.22-3.15h7.21a19.05,19.05,0,0,1-2.5,6.89,12.23,12.23,0,0,1-4.52,4.36,12.68,12.68,0,0,1-6.21,1.5A15,15,0,0,1,103.17,43.56Z"/><path class="cls-1" d="M134.59,43.49a11.71,11.71,0,0,1-4.73-4.78,14.66,14.66,0,0,1-1.68-7.14V21.11A14.72,14.72,0,0,1,129.86,14a11.62,11.62,0,0,1,4.73-4.77,15.63,15.63,0,0,1,14.14,0A11.71,11.71,0,0,1,153.47,14a14.72,14.72,0,0,1,1.68,7.15V31.57a14.66,14.66,0,0,1-1.68,7.14,11.79,11.79,0,0,1-4.74,4.78,15.63,15.63,0,0,1-14.14,0ZM145,37.42a5.47,5.47,0,0,0,2.2-2.27,7.18,7.18,0,0,0,.77-3.41V20.93a7.13,7.13,0,0,0-.77-3.4,5.5,5.5,0,0,0-2.2-2.28,7.21,7.21,0,0,0-6.6,0,5.41,5.41,0,0,0-2.19,2.28,7.14,7.14,0,0,0-.78,3.4V31.74a7.18,7.18,0,0,0,.78,3.41,5.39,5.39,0,0,0,2.19,2.27,7.21,7.21,0,0,0,6.6,0Z"/><path class="cls-1" d="M162,7.88h8.51l13.73,28.28-.61.66V7.88h6.66V44.77h-8.56L168,16.92l.61-.66V44.77H162Z"/><path class="cls-1" d="M198.41,7.88h7V44.8h-7Zm2.51,0h22.22v6.7H200.92Zm0,15.23h19.43v6.71H200.92Zm0,15h22.22V44.8H200.92Z"/><path class="cls-1" d="M234.87,43.56a10.73,10.73,0,0,1-4.57-4.69,16.25,16.25,0,0,1-1.57-7.46V21.28a16.23,16.23,0,0,1,1.57-7.45,10.88,10.88,0,0,1,4.57-4.71,15,15,0,0,1,7.21-1.62A12.83,12.83,0,0,1,248.3,9a12.37,12.37,0,0,1,4.54,4.36,18.85,18.85,0,0,1,2.47,6.89H248.1a9.19,9.19,0,0,0-1.26-3.12,6,6,0,0,0-2.05-2,5.38,5.38,0,0,0-2.71-.69,6.5,6.5,0,0,0-3.32.8,5.21,5.21,0,0,0-2.1,2.34,8.64,8.64,0,0,0-.72,3.69V31.41a8.61,8.61,0,0,0,.72,3.69,5.16,5.16,0,0,0,2.1,2.32,6.5,6.5,0,0,0,3.32.8,5.53,5.53,0,0,0,2.74-.67,5.78,5.78,0,0,0,2.06-2,9,9,0,0,0,1.22-3.15h7.21a19.05,19.05,0,0,1-2.5,6.89,12.23,12.23,0,0,1-4.52,4.36,12.68,12.68,0,0,1-6.21,1.5A15,15,0,0,1,234.87,43.56Z"/><path class="cls-1" d="M267.85,44.8h-7.21V7.88h7.21Z"/><path class="cls-1" d="M281.12,43.49a11.71,11.71,0,0,1-4.73-4.78,14.66,14.66,0,0,1-1.68-7.14V21.11A14.72,14.72,0,0,1,276.39,14a11.62,11.62,0,0,1,4.73-4.77,15.63,15.63,0,0,1,14.14,0A11.71,11.71,0,0,1,300,14a14.72,14.72,0,0,1,1.67,7.15V31.57A14.65,14.65,0,0,1,300,38.71a11.79,11.79,0,0,1-4.74,4.78,15.63,15.63,0,0,1-14.14,0Zm10.37-6.07a5.47,5.47,0,0,0,2.2-2.27,7.18,7.18,0,0,0,.77-3.41V20.93a7.13,7.13,0,0,0-.77-3.4,5.5,5.5,0,0,0-2.2-2.28,7.21,7.21,0,0,0-6.6,0,5.5,5.5,0,0,0-2.2,2.28,7.25,7.25,0,0,0-.77,3.4V31.74a7.29,7.29,0,0,0,.77,3.41,5.47,5.47,0,0,0,2.2,2.27,7.21,7.21,0,0,0,6.6,0Z"/></g></g></svg>